<svg width="35" height="43" viewBox="0 0 35 43" fill="none" xmlns="http://www.w3.org/2000/svg">
<path d="M28.9364 18.2465C27.2184 20.089 25.2126 21.4645 23.1532 22.5876C25.1384 23.6395 27.0803 24.8608 28.7523 26.4201C31.6191 29.0937 33.6271 32.6861 34.073 37.8792C34.2862 40.3627 32.2471 42.2235 30.0002 42.2235H5.0002C2.7537 42.2235 0.712647 40.3623 0.928057 37.8772C1.41827 32.2219 3.7838 28.6042 7.0711 26.042C8.9506 24.577 11.1469 23.4588 13.3354 22.4779C11.0748 21.3193 8.823 19.9609 6.8886 18.1729C3.637 15.1674 1.3511 11.0358 0.911058 4.87707C0.736278 2.43089 2.7353 0.556763 5.0002 0.556763H30.0002C32.2817 0.556763 34.2482 2.44755 34.1011 4.86236C33.7309 10.944 31.8123 15.1624 28.9364 18.2465Z" fill="#60FFD2"/>
<path fill-rule="evenodd" clip-rule="evenodd" d="M11.2493 4.72339C10.0988 4.72339 9.16602 5.65613 9.16602 6.80672C9.16602 7.95732 10.0988 8.89002 11.2493 8.89002H23.7493C24.8999 8.89002 25.8327 7.95732 25.8327 6.80672C25.8327 5.65613 24.8999 4.72339 23.7493 4.72339H11.2493ZM15.416 13.0567C14.2654 13.0567 13.3327 13.9894 13.3327 15.14C13.3327 16.2906 14.2654 17.2234 15.416 17.2234H19.5827C20.7333 17.2234 21.666 16.2906 21.666 15.14C21.666 13.9894 20.7333 13.0567 19.5827 13.0567H15.416ZM15.416 25.5567C14.2654 25.5567 13.3327 26.4894 13.3327 27.64C13.3327 28.7906 14.2654 29.7234 15.416 29.7234H19.5827C20.7333 29.7234 21.666 28.7906 21.666 27.64C21.666 26.4894 20.7333 25.5567 19.5827 25.5567H15.416ZM9.16602 35.9734C9.16602 34.8228 10.0988 33.89 11.2493 33.89H23.7493C24.8999 33.89 25.8327 34.8228 25.8327 35.9734C25.8327 37.124 24.8999 38.0567 23.7493 38.0567H11.2493C10.0988 38.0567 9.16602 37.124 9.16602 35.9734Z" fill="#1D6CEF"/>
</svg>
