<svg width="34" height="43" viewBox="0 0 34 43" fill="none" xmlns="http://www.w3.org/2000/svg">
<path d="M4.5 10.9734H29.5V29.7234C29.5 36.627 23.9036 42.2234 17 42.2234C10.0964 42.2234 4.5 36.627 4.5 29.7234V10.9734Z" fill="#60FFD2"/>
<path fill-rule="evenodd" clip-rule="evenodd" d="M2.4173 0.556763C1.26672 0.556763 0.333984 1.4895 0.333984 2.64009C0.333984 3.79068 1.26672 4.72342 2.4173 4.72342H4.5007V29.7235C4.5007 36.627 10.0971 42.2235 17.0007 42.2235C23.9042 42.2235 29.5007 36.627 29.5007 29.7235V4.72342H31.584C32.7346 4.72342 33.6673 3.79068 33.6673 2.64009C33.6673 1.4895 32.7346 0.556763 31.584 0.556763H29.5007H25.334H8.6673H4.5007H2.4173ZM25.334 4.72342H8.6673V29.7235C8.6673 34.3258 12.3983 38.0568 17.0007 38.0568C21.603 38.0568 25.334 34.3258 25.334 29.7235V4.72342Z" fill="#1D6CEF"/>
<path fill-rule="evenodd" clip-rule="evenodd" d="M19.084 23.4735C20.2346 23.4735 21.1673 22.5407 21.1673 21.3901C21.1673 20.2395 20.2346 19.3068 19.084 19.3068C17.9334 19.3068 17.0007 20.2395 17.0007 21.3901C17.0007 22.5407 17.9334 23.4735 19.084 23.4735ZM14.9173 31.8068C16.0679 31.8068 17.0007 30.874 17.0007 29.7235C17.0007 28.5729 16.0679 27.6401 14.9173 27.6401C13.7667 27.6401 12.834 28.5729 12.834 29.7235C12.834 30.874 13.7667 31.8068 14.9173 31.8068Z" fill="#1D6CEF"/>
</svg>
