<svg width="34" height="28" viewBox="0 0 34 28" fill="none" xmlns="http://www.w3.org/2000/svg">
<g opacity="0.6">
<path d="M26.7058 9H28.3724C31.1338 9 33.3724 11.2386 33.3724 14V24C33.3724 25.841 31.88 27.3333 30.0391 27.3333H26.7058V9Z" fill="#1D6CEF"/>
<path d="M0.0397949 5.6667C0.0397949 2.90532 2.27837 0.666748 5.03979 0.666748H21.7065C24.4679 0.666748 26.7065 2.90532 26.7065 5.6667V27.3334H3.37314C1.53219 27.3334 0.0397949 25.841 0.0397949 24.0001V5.6667Z" fill="#60FFD2"/>
<path d="M10.0398 22.3334C10.0398 21.4129 10.786 20.6667 11.7065 20.6667H15.0398C15.9603 20.6667 16.7065 21.4129 16.7065 22.3334V27.3334H10.0398V22.3334Z" fill="#1D6CEF"/>
<path fill-rule="evenodd" clip-rule="evenodd" d="M13.3718 7.33337C12.4513 7.33337 11.7051 8.07957 11.7051 8.99997V10.6667H10.0384C9.11803 10.6667 8.37183 11.4129 8.37183 12.3334C8.37183 13.2538 9.11803 14 10.0384 14H11.7051V15.6667C11.7051 16.5872 12.4513 17.3334 13.3718 17.3334C14.2922 17.3334 15.0384 16.5872 15.0384 15.6667V14H16.7051C17.6256 14 18.3718 13.2538 18.3718 12.3334C18.3718 11.4129 17.6256 10.6667 16.7051 10.6667H15.0384V8.99997C15.0384 8.07957 14.2922 7.33337 13.3718 7.33337Z" fill="#1D6CEF"/>
</g>
</svg>
