<svg width="34" height="40" viewBox="0 0 34 40" fill="none" xmlns="http://www.w3.org/2000/svg">
<g clip-path="url(#clip0_2_204)">
<g clip-path="url(#clip1_2_204)">
<g clip-path="url(#clip2_2_204)">
<g opacity="0.6">
<path d="M0.289795 33.6483C0.34472 32.6977 0.632945 31.7339 1.19525 30.8302L4.20071 26H28.3707L31.3733 30.8342C33.8559 34.8311 30.9816 40 26.2765 40H6.28958C2.90083 40 0.462199 37.319 0.289795 34.3259V33.6483Z" fill="#1D6CEF"/>
<path fill-rule="evenodd" clip-rule="evenodd" d="M24.2896 10C25.3942 10 26.2897 10.8954 26.2897 12C26.2897 13.1046 25.3943 14 24.2897 14L24.2896 18.8589C24.2896 19.2318 24.3938 19.5973 24.5906 19.9141L31.3733 30.8342C33.8559 34.8311 30.9816 40 26.2765 40H6.28958C1.58235 40 -1.29159 34.8269 1.19525 30.8302L7.98771 19.9137C8.18502 19.5966 8.2896 19.2306 8.2896 18.8571V14C7.18511 13.9999 6.28978 13.1045 6.28978 12C6.28978 10.8955 7.18511 10.0001 8.2896 10C8.28954 10 8.28966 10 8.2896 10H10.2896H22.2896H24.2896ZM12.2896 14V18.8571C12.2896 19.9776 11.9758 21.0756 11.3839 22.027L4.59148 32.9434C3.76253 34.2756 4.72051 36 6.28958 36H26.2765C27.8448 36 28.8029 34.277 27.9754 32.9447L21.1927 22.0246C20.6024 21.0742 20.2896 19.9777 20.2896 18.8589V14H12.2896Z" fill="#60FFD2"/>
<path fill-rule="evenodd" clip-rule="evenodd" d="M20.2898 4C21.3943 4 22.2898 3.10457 22.2898 2C22.2898 0.895431 21.3943 0 20.2898 0C19.1852 0 18.2898 0.895431 18.2898 2C18.2898 3.10457 19.1852 4 20.2898 4ZM12.2898 6C13.3943 6 14.2898 5.10457 14.2898 4C14.2898 2.89543 13.3943 2 12.2898 2C11.1852 2 10.2898 2.89543 10.2898 4C10.2898 5.10457 11.1852 6 12.2898 6Z" fill="#1D6CEF"/>
</g>
</g>
</g>
</g>
<defs>
<clipPath id="clip0_2_204">
<rect width="33" height="40" fill="white" transform="translate(0.280029)"/>
</clipPath>
<clipPath id="clip1_2_204">
<rect width="33" height="40" fill="white" transform="translate(0.280029)"/>
</clipPath>
<clipPath id="clip2_2_204">
<rect width="33" height="40" fill="white" transform="translate(0.280029)"/>
</clipPath>
</defs>
</svg>
