<svg width="119" height="31" viewBox="0 0 119 31" fill="none" xmlns="http://www.w3.org/2000/svg">
<g clip-path="url(#clip0_2_318)">
<g clip-path="url(#clip1_2_318)">
<mask id="mask0_2_318" style="mask-type:luminance" maskUnits="userSpaceOnUse" x="0" y="0" width="119" height="31">
<path d="M118.543 0.578857H0V30.021H118.543V0.578857Z" fill="white"/>
</mask>
<g mask="url(#mask0_2_318)">
<path d="M19.0664 15.3194C20.0339 14.5092 20.649 13.2925 20.649 11.9319C20.649 10.5714 20.0339 9.35463 19.0664 8.54451C19.1773 8.4908 19.284 8.43255 19.3857 8.36939C20.0273 7.97041 20.7847 7.73999 21.5959 7.73999C23.9111 7.73999 25.7879 9.61682 25.7879 11.9319C25.7879 14.2471 23.9111 16.1238 21.5959 16.1238C20.7847 16.1238 20.0273 15.8934 19.3857 15.4945C19.284 15.4314 19.1773 15.3731 19.0664 15.3194Z" fill="white"/>
<path d="M17.9034 12.5916C18.3361 11.4064 18.2604 10.045 17.5802 8.86675C16.8999 7.68852 15.7587 6.94233 14.5159 6.72445C14.5851 6.62254 14.6483 6.51873 14.7047 6.41322C15.0609 5.74685 15.6017 5.1686 16.3042 4.76299C18.3092 3.60543 20.873 4.29238 22.0305 6.29735C23.1881 8.30233 22.5012 10.8661 20.4962 12.0237C19.7937 12.4293 19.0225 12.6084 18.2673 12.5838C18.1478 12.5797 18.0262 12.5827 17.9034 12.5916Z" fill="white"/>
<path d="M15.5298 10.8118C15.312 9.56896 14.5657 8.42776 13.3875 7.74751C12.2092 7.06726 10.8478 6.99163 9.6626 7.42436C9.67159 7.30153 9.67445 7.17998 9.67051 7.06042C9.64586 6.30521 9.82502 5.53407 10.2306 4.83153C11.3882 2.82656 13.9519 2.1396 15.9569 3.29718C17.9618 4.45475 18.6489 7.0185 17.4913 9.0235C17.0856 9.726 16.5074 10.2667 15.841 10.6229C15.7356 10.6794 15.6318 10.7426 15.5298 10.8118Z" fill="white"/>
<path d="M12.586 10.4566C11.7759 9.48913 10.559 8.87395 9.19853 8.87395C7.838 8.87395 6.62122 9.48913 5.8111 10.4566C5.75744 10.3457 5.69916 10.239 5.63599 10.1373C5.23702 9.49565 5.00659 8.73829 5.00659 7.92706C5.00659 5.61191 6.88339 3.73511 9.19853 3.73511C11.5137 3.73511 13.3905 5.61191 13.3905 7.92706C13.3905 8.73829 13.16 9.49565 12.7611 10.1373C12.6979 10.239 12.6396 10.3457 12.586 10.4566Z" fill="white"/>
<path d="M9.85728 11.6209C8.67204 11.1882 7.31063 11.2638 6.13239 11.944C4.95415 12.6243 4.20796 13.7655 3.99009 15.0084C3.88818 14.9392 3.78436 14.8759 3.67885 14.8195C3.01248 14.4633 2.43423 13.9225 2.02862 13.22C0.871049 11.215 1.558 8.6513 3.56298 7.49371C5.56796 6.33614 8.1317 7.02309 9.28931 9.02808C9.69492 9.73059 9.87406 10.5017 9.84933 11.2569C9.84551 11.3765 9.84835 11.4981 9.85728 11.6209Z" fill="white"/>
<path d="M8.07699 13.9933C6.83411 14.2112 5.69292 14.9574 5.01267 16.1356C4.33242 17.3138 4.2568 18.6752 4.68954 19.8605C4.56668 19.8515 4.44513 19.8487 4.32555 19.8525C3.57034 19.8772 2.7992 19.6981 2.09667 19.2925C0.091696 18.1349 -0.595259 15.5711 0.562314 13.5661C1.71988 11.5612 4.28364 10.8742 6.28862 12.0318C6.99115 12.4374 7.53185 13.0156 7.88809 13.682C7.9445 13.7875 8.0078 13.8914 8.07699 13.9933Z" fill="white"/>
<path d="M7.7202 16.9381C6.75279 17.7483 6.13758 18.965 6.13758 20.3255C6.13758 21.686 6.75279 22.9028 7.7202 23.7129C7.60933 23.7665 7.50263 23.8249 7.40102 23.888C6.75933 24.287 6.00193 24.5174 5.19072 24.5174C2.87558 24.5174 0.998779 22.6407 0.998779 20.3255C0.998779 18.0103 2.87558 16.1335 5.19072 16.1335C6.00193 16.1335 6.75933 16.364 7.40102 16.763C7.50263 16.8261 7.60933 16.8844 7.7202 16.9381Z" fill="white"/>
<path d="M8.88535 19.6663C8.45255 20.8516 8.52817 22.2129 9.20843 23.3912C9.88874 24.5695 11.0299 25.3156 12.2728 25.5335C12.2036 25.6355 12.1404 25.7393 12.0839 25.8448C11.7277 26.5111 11.1869 27.0893 10.4845 27.4949C8.47944 28.6526 5.91569 27.9655 4.75812 25.9606C3.60054 23.9556 4.2875 21.3919 6.29247 20.2343C6.99501 19.8287 7.76616 19.6496 8.52135 19.6743C8.6409 19.6781 8.76246 19.6753 8.88535 19.6663Z" fill="white"/>
<path d="M11.2567 21.447C11.4745 22.6899 12.2207 23.831 13.399 24.5113C14.5771 25.1915 15.9386 25.2671 17.1239 24.8344C17.115 24.9573 17.1121 25.0788 17.1159 25.1983C17.1407 25.9535 16.9616 26.7247 16.5559 27.4272C15.3983 29.4322 12.8346 30.1192 10.8295 28.9615C8.82458 27.804 8.13764 25.2403 9.29526 23.2353C9.70086 22.5327 10.2791 21.9921 10.9455 21.6358C11.051 21.5794 11.1548 21.5161 11.2567 21.447Z" fill="white"/>
<path d="M14.203 21.8032C15.013 22.7706 16.2299 23.3857 17.5904 23.3857C18.9509 23.3857 20.1678 22.7706 20.9779 21.8032C21.0315 21.914 21.0898 22.0207 21.153 22.1223C21.552 22.764 21.7824 23.5215 21.7824 24.3327C21.7824 26.6478 19.9055 28.5246 17.5904 28.5246C15.2753 28.5246 13.3984 26.6478 13.3984 24.3327C13.3984 23.5215 13.6289 22.764 14.0278 22.1223C14.0911 22.0207 14.1493 21.914 14.203 21.8032Z" fill="white"/>
<path d="M16.9312 20.6391C18.1164 21.0718 19.4778 20.9962 20.656 20.316C21.8343 19.6357 22.5804 18.4946 22.7983 17.2517C22.9002 17.3208 23.004 17.3841 23.1096 17.4405C23.776 17.7968 24.3542 18.3375 24.7598 19.04C25.9174 21.045 25.2304 23.6088 23.2255 24.7663C21.2205 25.9239 18.6568 25.2369 17.4991 23.2319C17.0935 22.5294 16.9144 21.7583 16.939 21.0031C16.9429 20.8835 16.9401 20.762 16.9312 20.6391Z" fill="white"/>
<path d="M21.7767 16.12L21.7741 16.1244C21.094 17.3027 19.9527 18.0488 18.71 18.2667C18.7791 18.3687 18.8424 18.4725 18.8987 18.5779C19.2549 19.2444 19.7957 19.8226 20.4982 20.2282C22.5032 21.3858 25.0669 20.6988 26.2246 18.6938C27.2169 16.9749 26.8537 14.8453 25.4663 13.5432C24.8569 15.0058 23.4427 16.049 21.7767 16.12Z" fill="white"/>
<path d="M36.6179 8.20335V20.7233H33.8433V8.20335H36.6179ZM34.2831 20.7233L34.3339 18.27H41.5243V20.7233H34.2831ZM41.9586 16.4766C41.9586 15.5856 42.1447 14.8073 42.5169 14.1419C42.8891 13.465 43.4135 12.9406 44.0903 12.5684C44.7671 12.1961 45.5565 12.0101 46.4589 12.0101C47.3613 12.0101 48.1452 12.1961 48.8107 12.5684C49.4874 12.9406 50.0119 13.465 50.3841 14.1419C50.7563 14.8073 50.9424 15.5856 50.9424 16.4766C50.9424 17.3677 50.7563 18.146 50.3841 18.8114C50.0119 19.4769 49.4874 19.9957 48.8107 20.3679C48.1452 20.7402 47.3613 20.9262 46.4589 20.9262C45.5565 20.9262 44.7671 20.7402 44.0903 20.3679C43.4135 19.9957 42.8891 19.4769 42.5169 18.8114C42.1447 18.146 41.9586 17.3677 41.9586 16.4766ZM44.5809 16.4597C44.5809 16.8883 44.6599 17.2662 44.8178 17.5933C44.9757 17.9091 45.1957 18.1572 45.4776 18.3377C45.7597 18.5069 46.0868 18.5915 46.4589 18.5915C46.8312 18.5915 47.1582 18.5069 47.4402 18.3377C47.7222 18.1572 47.9365 17.9091 48.0831 17.5933C48.2411 17.2662 48.3201 16.8883 48.3201 16.4597C48.3201 16.0311 48.2411 15.6588 48.0831 15.3431C47.9365 15.0273 47.7222 14.7848 47.4402 14.6155C47.1582 14.4351 46.8312 14.3448 46.4589 14.3448C46.0868 14.3448 45.7597 14.4351 45.4776 14.6155C45.1957 14.7848 44.9757 15.0273 44.8178 15.3431C44.6599 15.6588 44.5809 16.0311 44.5809 16.4597ZM51.5307 16.3413C51.5307 15.4728 51.7055 14.7115 52.0552 14.0572C52.4049 13.4031 52.8843 12.8955 53.4933 12.5345C54.1024 12.1623 54.8018 11.9762 55.5912 11.9762C56.2567 11.9762 56.8432 12.1115 57.3508 12.3823C57.8696 12.653 58.2192 13.0083 58.3998 13.4481L58.146 13.6174L58.349 12.2639H60.7007V20.1818C60.7007 21.1744 60.5089 22.0316 60.1255 22.7535C59.7419 23.4866 59.1949 24.0506 58.4843 24.4453C57.785 24.8401 56.9503 25.0375 55.9803 25.0375C55.1683 25.0375 54.4352 24.8739 53.7809 24.5468C53.138 24.231 52.6135 23.7799 52.2075 23.1934C51.8127 22.6068 51.5759 21.9301 51.4969 21.163H54.1363C54.1587 21.6481 54.3505 22.0203 54.7115 22.2798C55.0836 22.5392 55.5573 22.6689 56.1326 22.6689C56.7756 22.6689 57.2718 22.4884 57.6215 22.1275C57.9712 21.7778 58.146 21.3098 58.146 20.7233V18.9299L58.3828 19.1498C58.2023 19.5897 57.8526 19.9449 57.3339 20.2157C56.815 20.4864 56.2172 20.6217 55.5405 20.6217C54.7622 20.6217 54.0685 20.4413 53.4595 20.0804C52.8617 19.7194 52.3879 19.2175 52.0382 18.5746C51.6999 17.9317 51.5307 17.1873 51.5307 16.3413ZM54.17 16.2736C54.17 16.6797 54.2546 17.0405 54.4238 17.3564C54.593 17.6723 54.8186 17.9204 55.1006 18.1008C55.3825 18.27 55.6927 18.3547 56.0312 18.3547C56.4372 18.3547 56.7924 18.27 57.0971 18.1008C57.4129 17.9204 57.6554 17.6723 57.8245 17.3564C58.005 17.0405 58.0952 16.6797 58.0952 16.2736C58.0952 15.8563 58.005 15.5009 57.8245 15.2077C57.644 14.9032 57.3959 14.6662 57.0801 14.4971C56.7756 14.3279 56.4203 14.2433 56.0142 14.2433C55.6758 14.2433 55.3657 14.3279 55.0836 14.4971C54.8018 14.6662 54.5761 14.9032 54.4069 15.2077C54.2489 15.5123 54.17 15.8675 54.17 16.2736ZM61.6293 16.4766C61.6293 15.5856 61.8154 14.8073 62.1876 14.1419C62.5598 13.465 63.0842 12.9406 63.761 12.5684C64.4378 12.1961 65.2273 12.0101 66.1296 12.0101C67.032 12.0101 67.8159 12.1961 68.4814 12.5684C69.158 12.9406 69.6825 13.465 70.0548 14.1419C70.427 14.8073 70.6131 15.5856 70.6131 16.4766C70.6131 17.3677 70.427 18.146 70.0548 18.8114C69.6825 19.4769 69.158 19.9957 68.4814 20.3679C67.8159 20.7402 67.032 20.9262 66.1296 20.9262C65.2273 20.9262 64.4378 20.7402 63.761 20.3679C63.0842 19.9957 62.5598 19.4769 62.1876 18.8114C61.8154 18.146 61.6293 17.3677 61.6293 16.4766ZM64.2516 16.4597C64.2516 16.8883 64.3306 17.2662 64.4885 17.5933C64.6464 17.9091 64.8664 18.1572 65.1484 18.3377C65.4304 18.5069 65.7575 18.5915 66.1296 18.5915C66.5019 18.5915 66.829 18.5069 67.1109 18.3377C67.3929 18.1572 67.6072 17.9091 67.7538 17.5933C67.9118 17.2662 67.9907 16.8883 67.9907 16.4597C67.9907 16.0311 67.9118 15.6588 67.7538 15.3431C67.6072 15.0273 67.3929 14.7848 67.1109 14.6155C66.829 14.4351 66.5019 14.3448 66.1296 14.3448C65.7575 14.3448 65.4304 14.4351 65.1484 14.6155C64.8664 14.7848 64.6464 15.0273 64.4885 15.3431C64.3306 15.6588 64.2516 16.0311 64.2516 16.4597ZM71.709 20.7233V12.2639H74.3314V20.7233H71.709ZM73.0286 10.9442C72.6113 10.9442 72.256 10.8031 71.9628 10.5212C71.6808 10.228 71.5398 9.87263 71.5398 9.45533C71.5398 9.03803 71.6808 8.68836 71.9628 8.40633C72.256 8.12439 72.6113 7.9834 73.0286 7.9834C73.4347 7.9834 73.7787 8.12439 74.0606 8.40633C74.3539 8.68836 74.5006 9.03803 74.5006 9.45533C74.5006 9.87263 74.3539 10.228 74.0606 10.5212C73.7787 10.8031 73.4347 10.9442 73.0286 10.9442ZM76.0271 24.7837V12.2639H78.413L78.5478 13.2959C78.7849 12.9012 79.163 12.5854 79.6814 12.3485C80.2004 12.1115 80.759 11.9932 81.3564 11.9932C82.1459 11.9932 82.834 12.168 83.4205 12.5176C84.007 12.8673 84.4695 13.3692 84.8081 14.0234C85.1459 14.6662 85.3265 15.4446 85.3497 16.3582C85.3722 17.2492 85.225 18.0444 84.9096 18.7437C84.5935 19.4317 84.1371 19.9732 83.5391 20.3679C82.9409 20.7627 82.2196 20.9601 81.3735 20.9601C80.787 20.9601 80.24 20.8586 79.7325 20.6556C79.225 20.4525 78.8469 20.1931 78.599 19.8773V24.7837H76.0271ZM78.6493 16.4935C78.6493 16.9109 78.7338 17.2831 78.9034 17.6102C79.084 17.926 79.3265 18.1742 79.631 18.3547C79.9463 18.5238 80.3074 18.6083 80.7134 18.6083C81.131 18.6083 81.4866 18.5182 81.7795 18.3377C82.0839 18.1572 82.3156 17.9091 82.473 17.5933C82.6426 17.2775 82.727 16.9109 82.727 16.4935C82.727 16.0762 82.6426 15.7097 82.473 15.3938C82.3156 15.078 82.0839 14.8298 81.7795 14.6494C81.4866 14.469 81.131 14.3787 80.7134 14.3787C80.3074 14.3787 79.9463 14.469 79.631 14.6494C79.3265 14.8186 79.084 15.0612 78.9034 15.377C78.7338 15.6927 78.6493 16.0649 78.6493 16.4935ZM85.796 18.05H88.1482C88.1482 18.3433 88.2436 18.5746 88.4357 18.7437C88.6387 18.913 88.9316 18.9976 89.3151 18.9976C89.5405 18.9976 89.7273 18.9693 89.8737 18.913C90.0318 18.8565 90.1504 18.7775 90.2286 18.6761C90.3193 18.5633 90.3641 18.4392 90.3641 18.3038C90.3641 18.1572 90.3138 18.0331 90.2123 17.9317C90.1216 17.8302 89.9636 17.7512 89.7382 17.6948L88.2498 17.3056C87.4145 17.0801 86.8226 16.7473 86.4732 16.3074C86.123 15.8675 85.9486 15.3656 85.9486 14.8017C85.9486 14.2377 86.0896 13.7471 86.3717 13.3298C86.6645 12.9012 87.0597 12.5741 87.5556 12.3485C88.0522 12.1115 88.6101 11.9932 89.2306 11.9932C90.1666 11.9932 90.9336 12.2526 91.5318 12.7714C92.1408 13.2789 92.4623 13.9726 92.4964 14.8524H90.1441C90.1558 14.5592 90.0713 14.3279 89.8908 14.1588C89.7102 13.9783 89.4732 13.8881 89.1803 13.8881C88.9208 13.8881 88.7062 13.9557 88.5373 14.091C88.3791 14.2151 88.3001 14.39 88.3001 14.6155C88.3001 14.8298 88.3791 14.9877 88.5373 15.0893C88.6953 15.1795 88.9091 15.2584 89.1803 15.3261L90.6857 15.6984C91.3854 15.8675 91.9153 16.1552 92.2764 16.5612C92.6375 16.9672 92.8172 17.4861 92.8172 18.1177C92.8172 18.9862 92.4964 19.6742 91.8533 20.1818C91.2103 20.6894 90.3758 20.9432 89.3492 20.9432C88.2893 20.9432 87.437 20.6781 86.7947 20.1481C86.1625 19.6066 85.83 18.9073 85.796 18.05ZM96.9747 20.9432C95.9822 20.9432 95.2151 20.633 94.6736 20.0126C94.1327 19.3923 93.8616 18.5802 93.8616 17.5763V12.2639H96.4672V16.6289C96.4672 17.4184 96.6082 17.9485 96.8903 18.2192C97.1723 18.49 97.5442 18.6253 98.0067 18.6253C98.6048 18.6253 99.016 18.4561 99.2417 18.1177C99.4675 17.7794 99.5803 17.2943 99.5803 16.6627V12.2639H102.186V20.7233H99.7334L99.5636 19.7758C99.3036 20.1254 98.9375 20.4075 98.4635 20.6217C97.9897 20.836 97.4938 20.9432 96.9747 20.9432ZM106.486 20.7233H103.864V12.2639H106.301L106.486 13.7189L106.2 13.4143C106.425 12.9857 106.763 12.6417 107.215 12.3823C107.677 12.1115 108.173 11.9762 108.703 11.9762C109.538 11.9762 110.192 12.1623 110.666 12.5345C111.151 12.9068 111.5 13.3974 111.714 14.0064H111.308C111.444 13.3974 111.771 12.9068 112.29 12.5345C112.81 12.1623 113.429 11.9762 114.151 11.9762C115.246 11.9762 116.051 12.2694 116.57 12.8559C117.09 13.4425 117.349 14.2208 117.349 15.1908V20.7233H114.812V15.8337C114.812 15.3036 114.681 14.9088 114.421 14.6494C114.174 14.39 113.841 14.2603 113.424 14.2603C113.176 14.2603 112.938 14.3167 112.713 14.4294C112.488 14.5309 112.301 14.7171 112.154 14.9877C112.008 15.2472 111.934 15.6195 111.934 16.1044V20.7233H109.363V15.8337C109.363 15.3036 109.239 14.9144 108.991 14.6662C108.743 14.4069 108.41 14.2772 107.992 14.2772C107.745 14.2772 107.502 14.3335 107.265 14.4464C107.039 14.5479 106.854 14.734 106.707 15.0047C106.56 15.2641 106.486 15.6307 106.486 16.1044V20.7233Z" fill="white"/>
</g>
</g>
</g>
<defs>
<clipPath id="clip0_2_318">
<rect width="118.75" height="30" fill="white" transform="translate(0 0.300049)"/>
</clipPath>
<clipPath id="clip1_2_318">
<rect width="118.75" height="30" fill="white" transform="translate(0 0.300049)"/>
</clipPath>
</defs>
</svg>
