<svg width="120" height="31" viewBox="0 0 120 31" fill="none" xmlns="http://www.w3.org/2000/svg">
<g clip-path="url(#clip0_2_338)">
<g clip-path="url(#clip1_2_338)">
<g clip-path="url(#clip2_2_338)">
<path d="M54.4441 22.9541C53.3951 22.9541 52.4445 22.7903 51.5593 22.4298C50.6743 22.0691 49.9204 21.5446 49.2321 20.889C48.5764 20.2335 48.0519 19.4795 47.6912 18.5944C47.3307 17.7094 47.134 16.7587 47.134 15.7753C47.134 14.7591 47.3307 13.8413 47.6912 12.9562C48.0519 12.0711 48.5764 11.3172 49.2321 10.6616C49.8875 10.006 50.6416 9.51429 51.5266 9.15371C52.4116 8.79313 53.3951 8.59644 54.4112 8.59644C55.5258 8.59644 56.4764 8.76035 57.3287 9.12093C58.0499 9.41595 58.7056 9.80931 59.2955 10.301C59.4595 10.4321 59.4595 10.6944 59.2955 10.8583L57.8204 12.3334C57.6566 12.4973 57.3943 12.4973 57.2303 12.3334C56.9354 12.0711 56.5748 11.8745 56.2142 11.7106C55.6896 11.4811 55.0996 11.3828 54.4112 11.3828C53.8212 11.3828 53.264 11.4811 52.7395 11.7106C52.2478 11.9073 51.8216 12.2023 51.4282 12.5629C51.0677 12.9562 50.8054 13.4152 50.576 13.9396C50.3794 14.4641 50.2809 15.0542 50.2809 15.7098C50.2809 16.3654 50.3794 16.9554 50.576 17.5127C50.7727 18.0372 51.0677 18.4961 51.4282 18.8895C51.7889 19.2828 52.2149 19.5779 52.7395 19.7745C53.264 19.9712 53.8212 20.1023 54.4112 20.1023C55.1324 20.1023 55.7225 20.004 56.247 19.7745C56.6404 19.6106 57.0009 19.3812 57.2959 19.1189C57.4599 18.9878 57.7221 18.955 57.8859 19.1189L59.3939 20.6269C59.5577 20.7907 59.5577 21.053 59.361 21.2168C58.7711 21.7086 58.1155 22.102 57.3943 22.3969C56.5749 22.7903 55.5914 22.9541 54.4441 22.9541Z" fill="white"/>
<path d="M43.4954 22.7575C43.2661 22.7575 43.1021 22.5608 43.1021 22.3641V9.25201C43.1021 9.02253 43.2987 8.85864 43.4954 8.85864H45.7573C45.9869 8.85864 46.1507 9.05532 46.1507 9.25201V22.3314C46.1507 22.5608 45.954 22.7246 45.7573 22.7246H43.4954V22.7575Z" fill="white"/>
<path d="M60.4429 22.3313C60.4429 22.5607 60.6396 22.7247 60.8361 22.7247H63.0979H63.1308H63.1635H69.9491C70.1786 22.7247 70.3424 22.528 70.3424 22.3313V20.4628C70.3424 20.2333 70.1458 20.0694 69.9491 20.0694H63.4586V16.9553H69.2607C69.4901 16.9553 69.6541 16.7586 69.6541 16.5619V14.7918C69.6541 14.5623 69.4574 14.3984 69.2607 14.3984H63.4586V11.5138H69.9164C70.1458 11.5138 70.3096 11.3171 70.3096 11.1204V9.28472C70.3096 9.05525 70.1131 8.89136 69.9164 8.89136H63.229H63.1964H63.1635H60.9016C60.6722 8.89136 60.5084 9.08803 60.5084 9.28472V22.3313H60.4429Z" fill="white"/>
<path fill-rule="evenodd" clip-rule="evenodd" d="M74.3092 22.7575C74.2763 22.7575 74.2763 22.7575 74.2436 22.7575C74.2107 22.7575 74.2107 22.7575 74.178 22.7575H71.9489C71.7195 22.7575 71.5557 22.5608 71.5557 22.3641V9.25201C71.5557 9.02253 71.7524 8.85864 71.9489 8.85864H74.178C74.2107 8.85864 74.2107 8.85864 74.2436 8.85864C74.2763 8.85864 74.2763 8.85864 74.3092 8.85864H77.4889C78.3739 8.85864 79.1278 9.02253 79.7506 9.35035C80.3735 9.67815 80.8652 10.1043 81.193 10.6616C81.5208 11.2188 81.6846 11.8089 81.6846 12.4972C81.6846 13.3495 81.4224 14.0707 80.8652 14.6608C80.6358 14.923 80.3406 15.1197 80.0128 15.3164C80.4718 15.5458 80.8652 15.8409 81.193 16.2014C81.8486 16.8898 82.1436 17.7093 82.1436 18.7255C82.1436 19.4795 81.9469 20.1678 81.5864 20.7906C81.2259 21.3807 80.6685 21.8725 79.9801 22.233C79.2918 22.5937 78.4395 22.7575 77.456 22.7575H74.3092ZM74.6041 20.3318H77.1938C77.7839 20.3318 78.2755 20.1678 78.6033 19.8073C78.9311 19.4467 79.1278 19.0205 79.1278 18.4961C79.1278 18.1355 79.0623 17.8405 78.8984 17.5454C78.7344 17.2832 78.5051 17.0537 78.2428 16.8898C77.9805 16.7259 77.6198 16.6604 77.2267 16.6604H74.637V20.3318H74.6041ZM76.9315 14.333H74.6041V11.2516H76.9315C77.456 11.2516 77.8494 11.3827 78.1772 11.645C78.5051 11.9072 78.6362 12.2678 78.6362 12.7923C78.6362 13.3168 78.4722 13.7101 78.1772 13.9724C77.8494 14.2346 77.4233 14.333 76.9315 14.333Z" fill="white"/>
<path d="M83.1597 22.3313C83.1597 22.5607 83.3564 22.7247 83.5529 22.7247H85.8147H85.8476H85.8803H92.6659C92.8952 22.7247 93.0592 22.528 93.0592 22.3313V20.4628C93.0592 20.2333 92.8626 20.0694 92.6659 20.0694H86.1754V16.9553H91.9775C92.2069 16.9553 92.3709 16.7586 92.3709 16.5619V14.7918C92.3709 14.5623 92.1742 14.3984 91.9775 14.3984H86.1754V11.5138H92.5676C92.797 11.5138 92.9608 11.3171 92.9608 11.1204V9.28472C92.9608 9.05525 92.7643 8.89136 92.5676 8.89136H85.8803H85.8476H85.8147H83.5529C83.3235 8.89136 83.1597 9.08803 83.1597 9.28472V22.3313Z" fill="white"/>
<path fill-rule="evenodd" clip-rule="evenodd" d="M97.3865 22.3314V17.0209H97.7799C97.7799 17.0865 97.8128 17.1848 97.8455 17.2504L101.714 22.5937C101.779 22.6919 101.91 22.7575 102.041 22.7575H104.664C104.992 22.7575 105.188 22.3641 104.992 22.1019L101.058 16.9226C101.517 16.8243 101.976 16.6931 102.369 16.4965C103.09 16.1687 103.615 15.6769 104.008 15.0869C104.401 14.4641 104.598 13.7429 104.598 12.9562C104.598 12.1694 104.401 11.4483 104.008 10.8255C103.615 10.2026 103.058 9.7437 102.369 9.38312C101.681 9.02253 100.861 8.85864 99.9433 8.85864H97.0587H97.026H96.9931H94.7313C94.5019 8.85864 94.3379 9.05532 94.3379 9.25201V22.3314C94.3379 22.5608 94.5346 22.7246 94.7313 22.7246H96.9931C97.1898 22.7575 97.3865 22.5608 97.3865 22.3314ZM99.5828 14.7263H97.3865V11.2516H99.6157C100.238 11.2516 100.697 11.4155 101.025 11.7433C101.353 12.0711 101.517 12.4972 101.517 12.989C101.517 13.5134 101.353 13.9396 100.992 14.2674C100.665 14.5952 100.206 14.7263 99.5828 14.7263Z" fill="white"/>
<path d="M109.482 22.3969C110.367 22.7574 111.318 22.9541 112.334 22.9541C113.711 22.9541 114.924 22.6592 115.973 22.1018C117.022 21.5117 117.874 20.6596 118.464 19.545C119.054 18.3977 119.382 16.9881 119.382 15.3491V15.3163C119.382 15.0869 119.186 14.923 118.989 14.923H112.498C112.269 14.923 112.105 15.1197 112.105 15.3163V17.1193C112.105 17.3487 112.269 17.5126 112.498 17.5126L116.071 17.5782C116.006 17.8732 115.875 18.1354 115.776 18.3649C115.481 18.9549 115.022 19.3811 114.465 19.7089C113.908 20.0039 113.219 20.1678 112.4 20.1678C111.613 20.1678 110.892 19.9711 110.269 19.6106C109.646 19.25 109.155 18.7255 108.827 18.0699C108.466 17.4143 108.302 16.6603 108.302 15.7753C108.302 14.8902 108.466 14.169 108.827 13.5134C109.187 12.8578 109.712 12.3661 110.335 12.0055C110.99 11.6449 111.711 11.4483 112.531 11.4483C113.285 11.4483 113.973 11.5794 114.563 11.8744C115.022 12.1039 115.448 12.4317 115.842 12.825C116.006 12.9889 116.301 13.0217 116.465 12.8578L117.972 11.3499C118.136 11.186 118.136 10.9566 117.972 10.7927C117.382 10.1698 116.629 9.64533 115.776 9.28475C114.793 8.8586 113.711 8.62915 112.531 8.62915C111.482 8.62915 110.531 8.82584 109.614 9.18642C108.696 9.54701 107.909 10.0387 107.221 10.6943C106.565 11.3499 106.04 12.1039 105.647 12.9562C105.254 13.8084 105.09 14.7591 105.09 15.7753C105.09 16.7915 105.287 17.7421 105.647 18.5944C106.04 19.4467 106.532 20.2333 107.188 20.889C107.844 21.5446 108.63 22.0362 109.482 22.3969Z" fill="white"/>
<path d="M2.48736 3.90881C0.75 6.13787 0.75 9.35034 0.75 15.8408C0.75 22.2985 0.75 25.5438 2.48736 27.773C2.88071 28.2646 3.33964 28.7236 3.86413 29.1496C4.0608 29.3136 4.2575 29.4448 4.48695 29.5759L13.0426 10.6616C13.4032 9.84205 14.3538 9.44869 15.2061 9.74371L20.6476 11.7433C21.1721 11.94 21.5655 12.3661 21.6966 12.8906L26.6793 29.8053C27.0398 29.6086 27.4003 29.4119 27.6954 29.1496C28.1871 28.7562 28.646 28.2973 29.0723 27.773C30.8096 25.5767 30.8096 22.3314 30.8096 15.8408C30.8096 9.38313 30.8096 6.13787 29.0723 3.90881C28.6789 3.4171 28.2199 2.95817 27.6954 2.53203C25.4991 0.794678 22.2538 0.794678 15.7634 0.794678C9.30565 0.794678 6.06041 0.794678 3.83135 2.53203C3.33964 2.95817 2.88071 3.4171 2.48736 3.90881Z" fill="white"/>
</g>
</g>
</g>
<defs>
<clipPath id="clip0_2_338">
<rect width="118.75" height="30" fill="white" transform="translate(0.75 0.300049)"/>
</clipPath>
<clipPath id="clip1_2_338">
<rect width="118.75" height="30" fill="white" transform="translate(0.75 0.300049)"/>
</clipPath>
<clipPath id="clip2_2_338">
<rect width="118.75" height="29.0106" fill="white" transform="translate(0.75 0.794678)"/>
</clipPath>
</defs>
</svg>
