<svg width="115" height="31" viewBox="0 0 115 31" fill="none" xmlns="http://www.w3.org/2000/svg">
<g clip-path="url(#clip0_2_349)">
<g clip-path="url(#clip1_2_349)">
<path d="M39.4168 21.9035C38.907 21.9312 38.4028 21.7862 37.9855 21.4921C37.8112 21.3629 37.6708 21.1931 37.5767 20.9975C37.4826 20.8018 37.4376 20.5862 37.4455 20.3693V12.424C37.4414 12.3905 37.4449 12.3562 37.456 12.3242C37.4669 12.2921 37.4851 12.263 37.5091 12.239C37.5331 12.215 37.5622 12.1969 37.5942 12.1859C37.6263 12.1749 37.6604 12.1714 37.6941 12.1755H39.134C39.2968 12.1755 39.374 12.2612 39.374 12.424V19.7522C39.374 20.0779 39.5197 20.2408 39.8197 20.2408C39.9469 20.2459 40.074 20.2316 40.1968 20.1979C40.3682 20.1979 40.4625 20.2493 40.471 20.4036L40.5996 21.475C40.6058 21.5062 40.6052 21.5384 40.5979 21.5694C40.5906 21.6003 40.5767 21.6295 40.5572 21.6546C40.5377 21.6798 40.513 21.7005 40.4849 21.7154C40.4567 21.7302 40.4257 21.7389 40.3939 21.7407C40.0785 21.8449 39.749 21.8999 39.4168 21.9035Z" fill="white"/>
<path d="M47.5173 20.9864C46.7938 21.5843 45.8846 21.9113 44.946 21.9113C44.0075 21.9113 43.0983 21.5843 42.3748 20.9864C41.7389 20.3445 41.3821 19.4773 41.3821 18.5738C41.3821 17.6701 41.7389 16.8029 42.3748 16.161C43.0996 15.5663 44.0084 15.2412 44.946 15.2412C45.8836 15.2412 46.7923 15.5663 47.5173 16.161C48.1386 16.8089 48.4855 17.6718 48.4855 18.5695C48.4855 19.4671 48.1386 20.33 47.5173 20.9779V20.9864ZM43.729 19.855C44.0648 20.1593 44.5015 20.3277 44.9546 20.3277C45.4077 20.3277 45.8445 20.1593 46.1803 19.855C46.4842 19.5057 46.6514 19.0583 46.6514 18.5951C46.6514 18.1321 46.4842 17.6846 46.1803 17.3352C45.8445 17.0311 45.4077 16.8626 44.9546 16.8626C44.5015 16.8626 44.0648 17.0311 43.729 17.3352C43.4251 17.6846 43.2577 18.1321 43.2577 18.5951C43.2577 19.0583 43.4251 19.5057 43.729 19.855Z" fill="white"/>
<path d="M56.4136 15.4583C56.5765 15.4583 56.6536 15.544 56.6536 15.7069V21.8522C56.6686 22.267 56.591 22.6799 56.4264 23.0609C56.2618 23.442 56.0145 23.7815 55.7022 24.0549C55.0093 24.6459 54.118 24.9522 53.2081 24.9121C52.3863 24.9409 51.5754 24.7165 50.8854 24.2692C50.5907 24.0758 50.339 23.8237 50.1459 23.5289C49.9527 23.234 49.8223 22.9025 49.7625 22.555C49.7625 22.3836 49.7625 22.3065 49.994 22.3065H51.4339C51.495 22.3085 51.5544 22.3283 51.6044 22.3633C51.6547 22.3983 51.6937 22.4469 51.7168 22.5036C51.8102 22.7639 51.9963 22.9806 52.2396 23.1122C52.536 23.2652 52.866 23.3418 53.1995 23.335C53.4008 23.3461 53.6022 23.3168 53.792 23.2491C53.9819 23.1814 54.1563 23.0765 54.3052 22.9407C54.4412 22.7986 54.547 22.6304 54.6162 22.4463C54.6855 22.2621 54.7167 22.0659 54.708 21.8693V21.3294C54.1925 21.7085 53.565 21.9047 52.9253 21.8865C52.4775 21.9028 52.0311 21.8285 51.6128 21.668C51.1946 21.5074 50.813 21.264 50.4911 20.9523C49.8733 20.3131 49.5278 19.4586 49.5278 18.5695C49.5278 17.6805 49.8733 16.8262 50.4911 16.1868C50.8146 15.8779 51.1966 15.6369 51.6146 15.4779C52.0327 15.3189 52.4783 15.2452 52.9253 15.2612C53.5835 15.2438 54.2278 15.4525 54.7509 15.8526V15.7154C54.7469 15.6826 54.7504 15.6492 54.7609 15.6179C54.7714 15.5866 54.7888 15.558 54.8118 15.5341C54.8348 15.5103 54.8628 15.492 54.8937 15.4803C54.9248 15.4687 54.958 15.4641 54.9909 15.4669L56.4136 15.4583ZM53.0881 20.3609C53.3089 20.3677 53.5286 20.326 53.7314 20.2386C53.9343 20.1512 54.1156 20.0203 54.2623 19.8552C54.5473 19.4872 54.7019 19.0349 54.7019 18.5695C54.7019 18.1042 54.5473 17.6519 54.2623 17.2839C54.1161 17.1211 53.9359 16.9921 53.7346 16.9062C53.5332 16.8202 53.3155 16.7796 53.0967 16.7868C52.8733 16.7798 52.6512 16.8213 52.4455 16.9087C52.2398 16.996 52.0555 17.127 51.9053 17.2925C51.5896 17.6445 51.4236 18.1057 51.4424 18.5782C51.4271 19.0459 51.5894 19.5022 51.8968 19.8552C52.0472 20.0203 52.2316 20.151 52.4372 20.2382C52.6428 20.3255 52.8648 20.3673 53.0881 20.3609Z" fill="white"/>
<path d="M64.0498 20.9864C63.3248 21.5811 62.4162 21.9061 61.4785 21.9061C60.5408 21.9061 59.6321 21.5811 58.9072 20.9864C58.2854 20.3371 57.9382 19.4728 57.9382 18.5736C57.9382 17.6747 58.2854 16.8103 58.9072 16.161C59.6329 15.5677 60.5413 15.2437 61.4785 15.2437C62.4157 15.2437 63.3242 15.5677 64.0498 16.161C64.6711 16.8088 65.0179 17.6718 65.0179 18.5694C65.0179 19.4671 64.6711 20.3299 64.0498 20.9778V20.9864ZM60.2528 19.855C60.4172 20.0114 60.6109 20.1335 60.8227 20.2144C61.0346 20.2953 61.2604 20.3335 61.487 20.3265C61.7123 20.3323 61.9366 20.2936 62.1469 20.2127C62.3572 20.1318 62.5494 20.0103 62.7127 19.855C63.0117 19.5032 63.1758 19.0567 63.1758 18.5951C63.1758 18.1335 63.0117 17.6869 62.7127 17.3352C62.5494 17.1799 62.3572 17.0583 62.1469 16.9775C61.9366 16.8966 61.7123 16.8579 61.487 16.8637C61.2604 16.8568 61.0346 16.8948 60.8227 16.9758C60.6109 17.0567 60.4172 17.1789 60.2528 17.3352C59.954 17.6869 59.7899 18.1335 59.7899 18.5951C59.7899 19.0567 59.954 19.5032 60.2528 19.855Z" fill="white"/>
<path d="M68.1122 14.0013C67.8856 14.1996 67.5947 14.3089 67.2937 14.3089C66.9926 14.3089 66.7018 14.1996 66.4752 14.0013C66.3724 13.9044 66.2906 13.7874 66.2346 13.6577C66.1787 13.528 66.1499 13.3883 66.1499 13.247C66.1499 13.1058 66.1787 12.966 66.2346 12.8363C66.2906 12.7066 66.3724 12.5897 66.4752 12.4928C66.704 12.2994 66.994 12.1934 67.2937 12.1934C67.5933 12.1934 67.8833 12.2994 68.1122 12.4928C68.215 12.5897 68.2968 12.7066 68.3527 12.8363C68.4087 12.966 68.4374 13.1058 68.4374 13.247C68.4374 13.3883 68.4087 13.528 68.3527 13.6577C68.2968 13.7874 68.215 13.9044 68.1122 14.0013ZM68.2921 21.9036C67.7827 21.9287 67.2793 21.784 66.8608 21.4923C66.6891 21.3611 66.5512 21.1908 66.4588 20.9954C66.3663 20.8001 66.322 20.5854 66.3294 20.3694V15.7069C66.3253 15.6733 66.3288 15.6391 66.3399 15.607C66.3509 15.575 66.369 15.5459 66.393 15.5219C66.417 15.4979 66.4461 15.4797 66.4782 15.4687C66.5102 15.4577 66.5443 15.4542 66.578 15.4583H68.0179C68.1807 15.4583 68.2579 15.544 68.2579 15.7069V19.7524C68.2579 20.078 68.4036 20.2409 68.695 20.2409C68.825 20.2456 68.9549 20.2311 69.0807 20.198C69.2521 20.198 69.3464 20.2495 69.355 20.4037L69.4835 21.4751C69.4897 21.5064 69.4891 21.5386 69.4818 21.5696C69.4745 21.6005 69.4606 21.6296 69.4411 21.6547C69.4216 21.6799 69.397 21.7007 69.3688 21.7156C69.3406 21.7304 69.3096 21.739 69.2778 21.7408C68.9596 21.8456 68.6272 21.9005 68.2921 21.9036Z" fill="white"/>
<path d="M74.7801 15.2525C75.2299 15.2348 75.6786 15.3076 76.0997 15.4666C76.5208 15.6257 76.9057 15.8676 77.2314 16.1782C77.8375 16.8288 78.1745 17.6847 78.1745 18.5738C78.1745 19.4628 77.8375 20.3189 77.2314 20.9694C76.9072 21.2828 76.5228 21.5272 76.1014 21.6877C75.6801 21.8483 75.2307 21.9218 74.7801 21.9036C74.1383 21.9179 73.5093 21.7223 72.9888 21.3465V24.4406C72.9888 24.6034 72.9031 24.6806 72.7402 24.6806H71.3003C71.2674 24.6868 71.2336 24.6848 71.2016 24.6749C71.1697 24.665 71.1407 24.6475 71.1171 24.6238C71.0935 24.6002 71.0759 24.5713 71.0661 24.5393C71.0561 24.5073 71.0542 24.4735 71.0603 24.4406V17.4124C71.0705 17.3437 71.0643 17.2736 71.0425 17.2076C71.0206 17.1417 70.9836 17.0817 70.9345 17.0326C70.8854 16.9834 70.8255 16.9465 70.7595 16.9247C70.6936 16.9028 70.6234 16.8967 70.5547 16.9068H70.2718C70.0832 16.9068 69.989 16.8381 69.989 16.7011V15.6897C69.9845 15.6271 70.0016 15.5649 70.0375 15.5134C70.0733 15.4619 70.1258 15.4243 70.1861 15.4069C70.4826 15.299 70.7963 15.2468 71.1117 15.2525C71.4263 15.2247 71.742 15.2914 72.0184 15.4441C72.2947 15.5968 72.5193 15.8286 72.6631 16.1096C72.9392 15.8304 73.2693 15.6104 73.6333 15.4629C73.9973 15.3156 74.3875 15.244 74.7801 15.2525ZM73.4431 19.8552C73.5959 20.0149 73.7795 20.142 73.9828 20.2289C74.186 20.3157 74.4048 20.3604 74.6258 20.3604C74.8469 20.3604 75.0657 20.3157 75.269 20.2289C75.4722 20.142 75.6558 20.0149 75.8086 19.8552C76.1305 19.4961 76.2996 19.0257 76.28 18.5438C76.3024 18.0616 76.1329 17.59 75.8086 17.2324C75.6558 17.0728 75.4722 16.9457 75.269 16.8588C75.0657 16.7719 74.8469 16.7271 74.6258 16.7271C74.4048 16.7271 74.186 16.7719 73.9828 16.8588C73.7795 16.9457 73.5959 17.0728 73.4431 17.2324C73.1313 17.5964 72.9689 18.0649 72.9888 18.5438C72.9714 19.0223 73.1334 19.49 73.4431 19.8552Z" fill="white"/>
<path d="M82.2206 21.9036C81.4512 21.9353 80.6883 21.7513 80.0179 21.3723C79.7489 21.2103 79.5199 20.9898 79.3478 20.7272C79.1756 20.4645 79.0649 20.1666 79.0237 19.8552C79.0237 19.6838 79.0837 19.598 79.2722 19.598H80.5321C80.592 19.6005 80.6502 19.6192 80.7001 19.6526C80.75 19.6859 80.7898 19.7322 80.8149 19.7867C80.9949 20.2495 81.4664 20.4809 82.2206 20.4809C82.4838 20.493 82.7457 20.4399 82.9835 20.3266C83.0655 20.2895 83.1359 20.231 83.1873 20.157C83.2385 20.083 83.2688 19.9965 83.2748 19.9067C83.2748 19.6838 83.1377 19.5295 82.8635 19.4267C82.5381 19.3184 82.2019 19.2465 81.8606 19.2124C81.4565 19.1666 81.0558 19.0951 80.6607 18.9981C80.2765 18.9112 79.9273 18.7112 79.6579 18.4238C79.4992 18.2287 79.3825 18.0028 79.3148 17.7605C79.2472 17.5182 79.2301 17.2644 79.2647 17.0153C79.2993 16.7661 79.3848 16.5266 79.5158 16.3119C79.6468 16.0971 79.8206 15.9116 80.0264 15.7669C80.6442 15.3734 81.3691 15.1817 82.1006 15.2183C82.8089 15.1944 83.5097 15.3696 84.1234 15.724C84.3707 15.8642 84.5836 16.0576 84.7467 16.2904C84.9098 16.5232 85.0189 16.7894 85.0662 17.0696C85.0662 17.2411 84.989 17.3268 84.8347 17.3268H83.5662C83.5129 17.33 83.4597 17.3169 83.4139 17.2894C83.368 17.2619 83.3315 17.2211 83.3091 17.1725C83.2244 16.9696 83.0647 16.8068 82.8635 16.7182C82.6363 16.5995 82.3826 16.5404 82.1263 16.5468C81.8752 16.5332 81.6245 16.5833 81.3978 16.6926C81.3179 16.7234 81.2492 16.7774 81.2002 16.8477C81.1514 16.9179 81.1247 17.0013 81.1236 17.0868C81.129 17.2041 81.1719 17.3164 81.246 17.4074C81.3201 17.4984 81.4213 17.5632 81.5349 17.5925C81.8641 17.7166 82.2063 17.8028 82.5549 17.8496C82.9557 17.9024 83.3534 17.9768 83.7462 18.0725C84.1304 18.1595 84.4797 18.3594 84.749 18.6467C84.8932 18.805 85.0044 18.9903 85.0765 19.1918C85.1486 19.3933 85.1801 19.6071 85.169 19.8209C85.1764 20.1172 85.1069 20.4104 84.9672 20.6718C84.8274 20.9331 84.6224 21.1538 84.3719 21.3123C83.7316 21.7235 82.9812 21.9296 82.2206 21.9036Z" fill="white"/>
<path d="M94.2276 21.4751C94.2321 21.5055 94.2312 21.5365 94.2239 21.5665C94.2157 21.5965 94.203 21.6246 94.1848 21.6494C94.1667 21.6742 94.143 21.695 94.1167 21.7106C94.0903 21.7264 94.0612 21.7365 94.0303 21.7407C93.7176 21.8429 93.3903 21.8979 93.0613 21.9036C92.7358 21.9373 92.4068 21.8864 92.1068 21.7558C91.8059 21.6252 91.545 21.4193 91.3474 21.1579C90.7424 21.6784 89.959 21.9455 89.1618 21.9036C88.7916 21.9206 88.4222 21.8601 88.0768 21.7257C87.7314 21.5915 87.4177 21.3864 87.1563 21.1237C86.8966 20.8484 86.6953 20.5236 86.5642 20.1686C86.4332 19.8137 86.3751 19.436 86.3935 19.058V15.7068C86.3935 15.544 86.4706 15.4583 86.6334 15.4583H88.0734C88.2363 15.4583 88.3133 15.544 88.3133 15.7068V18.8009C88.2979 19.1864 88.4291 19.5634 88.6819 19.8552C88.8079 19.9888 88.9613 20.0939 89.131 20.1634C89.3007 20.233 89.4842 20.2652 89.6675 20.258C89.8553 20.2662 90.043 20.2372 90.2195 20.1724C90.3961 20.1076 90.5581 20.0085 90.6961 19.8808C90.8264 19.7463 90.9284 19.5864 90.9944 19.4109C91.0612 19.2355 91.0904 19.0482 91.0817 18.8609V15.7068C91.0817 15.544 91.1589 15.4583 91.3217 15.4583H92.7786C92.9413 15.4583 93.0185 15.544 93.0185 15.7068V19.7437C93.0185 20.078 93.1649 20.2408 93.4476 20.2408C93.5803 20.246 93.713 20.2316 93.8412 20.198C93.8739 20.1889 93.9085 20.1873 93.9412 20.1933C93.9748 20.1992 94.0058 20.2125 94.033 20.2323C94.0603 20.2522 94.0821 20.2779 94.0985 20.3075C94.1139 20.3372 94.123 20.3701 94.1248 20.4037L94.2276 21.4751Z" fill="white"/>
<path d="M107.847 21.475C107.855 21.5056 107.856 21.5377 107.85 21.5687C107.843 21.5997 107.83 21.629 107.811 21.6543C107.792 21.6797 107.769 21.7006 107.74 21.7155C107.712 21.7305 107.681 21.7392 107.65 21.7407C107.331 21.8443 107 21.8992 106.664 21.9035C106.154 21.9299 105.651 21.7851 105.233 21.4921C105.052 21.3666 104.905 21.1985 104.805 21.0027C104.705 20.8068 104.654 20.5892 104.659 20.3693V18.3552C104.677 17.9708 104.548 17.5939 104.299 17.3009C104.179 17.167 104.03 17.0613 103.864 16.9917C103.698 16.9221 103.519 16.8902 103.339 16.8981C103.177 16.892 103.015 16.9228 102.866 16.9881C102.718 17.0534 102.587 17.1516 102.482 17.2752C102.255 17.5624 102.14 17.9214 102.156 18.2866V21.4493C102.156 21.6121 102.079 21.6978 101.916 21.6978H100.467C100.434 21.702 100.4 21.6984 100.368 21.6874C100.335 21.6764 100.306 21.6582 100.283 21.6342C100.258 21.6103 100.24 21.5812 100.229 21.5491C100.218 21.5171 100.214 21.4829 100.219 21.4493V18.3552C100.238 17.975 100.119 17.6008 99.8845 17.3009C99.78 17.175 99.649 17.0735 99.5009 17.004C99.3536 16.9343 99.1909 16.8981 99.0273 16.8981C98.8527 16.8911 98.6791 16.921 98.5155 16.9861C98.3528 17.051 98.2064 17.1496 98.0846 17.2752C97.8391 17.5532 97.7137 17.9165 97.7337 18.2866V21.4493C97.7373 21.4829 97.7337 21.5171 97.7228 21.5491C97.7119 21.5812 97.6937 21.6103 97.6701 21.6342C97.6455 21.6582 97.6164 21.6764 97.5846 21.6874C97.5528 21.6984 97.5183 21.702 97.4846 21.6978H96.0874C95.9247 21.6978 95.8474 21.6121 95.8474 21.4493V17.4123C95.8584 17.3436 95.852 17.2735 95.8293 17.2075C95.8084 17.1416 95.7711 17.0816 95.722 17.0325C95.6729 16.9833 95.6129 16.9464 95.5466 16.9246C95.4811 16.9027 95.4102 16.8966 95.342 16.9067H95.0593C94.8702 16.9067 94.7766 16.8381 94.7766 16.701V15.6896C94.772 15.627 94.7893 15.5648 94.8248 15.5133C94.8611 15.4619 94.9139 15.4242 94.9739 15.4068C95.2702 15.299 95.5838 15.2467 95.8993 15.2524C96.202 15.2267 96.5056 15.287 96.7756 15.4265C97.0456 15.566 97.2701 15.779 97.4246 16.041C97.7137 15.7669 98.0564 15.5554 98.4309 15.4198C98.8055 15.2841 99.2036 15.2272 99.6018 15.2524C99.9881 15.2336 100.374 15.3061 100.726 15.4639C101.079 15.6218 101.39 15.8606 101.633 16.161C101.917 15.8527 102.265 15.6113 102.653 15.4541C103.042 15.2971 103.461 15.2282 103.879 15.2524C104.252 15.235 104.626 15.2952 104.976 15.4295C105.325 15.5638 105.643 15.769 105.91 16.0324C106.171 16.3071 106.372 16.6319 106.503 16.987C106.634 17.3419 106.692 17.72 106.673 18.098V19.7522C106.673 20.0779 106.819 20.2408 107.093 20.2408C107.226 20.247 107.359 20.2325 107.487 20.1979C107.664 20.1979 107.759 20.2665 107.77 20.4036L107.847 21.475Z" fill="white"/>
<path d="M7.34433 14.344C7.97666 11.8025 9.44115 9.54549 11.5046 7.93257C13.568 6.3196 16.1118 5.44336 18.7308 5.44336C21.3499 5.44336 23.8936 6.3196 25.9571 7.93257C28.0206 9.54549 29.4849 11.8025 30.1174 14.344H29.0888C27.3538 14.3185 25.6543 14.837 24.2291 15.8268C24.1468 15.8864 24.0609 15.9408 23.972 15.9897H23.852C23.763 15.9408 23.6771 15.8864 23.5948 15.8268C22.157 14.8599 20.4635 14.3435 18.7308 14.3435C16.9981 14.3435 15.3047 14.8599 13.8668 15.8268C13.7846 15.8864 13.6987 15.9408 13.6097 15.9897H13.4897C13.4008 15.9408 13.3149 15.8864 13.2326 15.8268C11.8073 14.837 10.1079 14.3185 8.37284 14.344H7.34433ZM27.2375 19.718C27.7655 19.3069 28.4198 19.0918 29.0888 19.1095H30.4687V16.3582H29.0888C27.9105 16.344 26.7592 16.7107 25.8062 17.4039C25.2698 17.7992 24.6211 18.0126 23.9548 18.0126C23.2885 18.0126 22.6398 17.7992 22.1035 17.4039C21.1263 16.7236 19.9643 16.359 18.7736 16.359C17.5831 16.359 16.421 16.7236 15.4438 17.4039C14.9076 17.7992 14.2589 18.0126 13.5926 18.0126C12.9262 18.0126 12.2776 17.7992 11.7412 17.4039C10.7765 16.7018 9.60861 16.3347 8.41569 16.3582H6.99292V19.1095H8.37284C9.04181 19.0918 9.69615 19.3069 10.2241 19.718C11.1995 20.3987 12.3603 20.7637 13.5497 20.7637C14.739 20.7637 15.8998 20.3987 16.8752 19.718C17.4039 19.3081 18.0578 19.0932 18.7266 19.1095C19.3958 19.0903 20.0506 19.3056 20.5779 19.718C21.555 20.3983 22.7171 20.7629 23.9077 20.7629C25.0983 20.7629 26.2603 20.3983 27.2375 19.718ZM27.2375 24.6377C27.7655 24.2266 28.4198 24.0115 29.0888 24.0292H30.4687V21.2779H29.0888C27.9105 21.2637 26.7592 21.6305 25.8062 22.3236C25.2698 22.7189 24.6211 22.9323 23.9548 22.9323C23.2885 22.9323 22.6398 22.7189 22.1035 22.3236C21.1263 21.6434 19.9643 21.2788 18.7736 21.2788C17.5831 21.2788 16.421 21.6434 15.4438 22.3236C14.9076 22.7189 14.2589 22.9323 13.5926 22.9323C12.9262 22.9323 12.2776 22.7189 11.7412 22.3236C10.7765 21.6216 9.60861 21.2544 8.41569 21.2779H6.99292V24.0292H8.37284C9.04181 24.0115 9.69615 24.2266 10.2241 24.6377C11.1995 25.3184 12.3603 25.6834 13.5497 25.6834C14.739 25.6834 15.8998 25.3184 16.8752 24.6377C17.4039 24.2279 18.0578 24.013 18.7266 24.0292C19.3958 24.01 20.0506 24.2253 20.5779 24.6377C21.555 25.3181 22.7171 25.6826 23.9077 25.6826C25.0983 25.6826 26.2603 25.3181 27.2375 24.6377Z" fill="white"/>
</g>
</g>
<defs>
<clipPath id="clip0_2_349">
<rect width="113.63" height="30" fill="white" transform="translate(0.5 0.300049)"/>
</clipPath>
<clipPath id="clip1_2_349">
<rect width="113.63" height="30" fill="white" transform="translate(0.5 0.300049)"/>
</clipPath>
</defs>
</svg>
