<svg width="118" height="31" viewBox="0 0 118 31" fill="none" xmlns="http://www.w3.org/2000/svg">
<g clip-path="url(#clip0_2_362)">
<g clip-path="url(#clip1_2_362)">
<g clip-path="url(#clip2_2_362)">
<path d="M18.6355 6.10724C18.6355 2.91395 21.2482 0.30127 24.4415 0.30127C27.6348 0.30127 30.2474 2.91395 30.2474 6.10724C30.2474 9.3005 27.6348 11.9132 24.4415 11.9132C21.2482 11.9132 18.6355 9.3005 18.6355 6.10724Z" fill="white"/>
<path d="M24.7963 14.4935V18.6867C24.7963 20.5253 24.7963 21.8477 24.6995 22.8799C24.6027 23.8798 24.4415 24.4927 24.2158 24.9765C23.732 25.912 22.9579 26.6861 22.0223 27.1699C21.5386 27.4279 20.9256 27.5893 19.9258 27.6537C18.8936 27.7504 17.6034 27.7504 15.7326 27.7504H11.8619C10.0234 27.7504 8.70092 27.7504 7.66875 27.6537C6.66881 27.5569 6.05597 27.3957 5.57215 27.1699C4.63673 26.6861 3.86261 25.912 3.37877 24.9765C3.12074 24.4927 2.95945 23.8798 2.89493 22.8799C2.79818 21.8477 2.79818 20.5575 2.79818 18.6867V14.8161C2.79818 12.9775 2.79818 11.655 2.89493 10.6229C2.99171 9.62295 3.15299 9.0101 3.37877 8.52628C3.86261 7.59086 4.63673 6.81675 5.57215 6.33291C6.05597 6.07487 6.66881 5.91358 7.66875 5.84907C8.70092 5.75232 9.99113 5.75232 11.8619 5.75232H16.0551C16.0874 4.84915 16.2809 3.97827 16.5712 3.17188H11.8297C10.0556 3.17188 8.63641 3.17188 7.47521 3.26865C6.314 3.36542 5.31409 3.55894 4.41095 4.04278C2.99171 4.78466 1.86277 5.91358 1.1209 7.33282C0.637065 8.23596 0.443532 9.2359 0.346766 10.3971C0.25 11.526 0.25 12.9453 0.25 14.7516V18.719C0.25 20.4931 0.25 21.9123 0.346766 23.0734C0.443532 24.2345 0.637065 25.2345 1.1209 26.1378C1.86277 27.5569 2.99171 28.686 4.41095 29.4277C5.31409 29.9117 6.314 30.105 7.47521 30.2018C8.60415 30.2986 10.0234 30.2986 11.8297 30.2986H15.7971C17.5711 30.2986 18.9904 30.2986 20.1516 30.2018C21.3128 30.105 22.3127 29.9117 23.2158 29.4277C24.6351 28.686 25.764 27.5569 26.506 26.1378C26.9897 25.2345 27.1833 24.2345 27.2801 23.0734C27.3767 21.9445 27.3767 20.5253 27.3767 18.719V13.9774C26.5704 14.2677 25.6994 14.4613 24.7963 14.4935Z" fill="white"/>
<path d="M46.8591 14.268C46.8591 15.0744 46.6656 15.8163 46.2784 16.4936C45.9236 17.171 45.3109 17.7516 44.5043 18.1709C43.698 18.5902 42.6981 18.816 41.5046 18.816H39.021V24.4929H36.0535V9.68774H41.5046C42.6659 9.68774 43.6336 9.88127 44.44 10.2683C45.2463 10.6554 45.8592 11.2037 46.2462 11.9134C46.6334 12.5907 46.8591 13.3971 46.8591 14.268ZM41.3756 16.3969C42.1819 16.3969 42.7949 16.2033 43.2143 15.8485C43.6012 15.4615 43.7948 14.9454 43.7948 14.268C43.7948 12.8165 42.9885 12.1069 41.3756 12.1069H39.021V16.4291H41.3756V16.3969Z" fill="white"/>
<path d="M51.0845 14.5581C51.4717 13.9453 51.9554 13.4615 52.5684 13.1067C53.1811 12.7519 53.8909 12.5906 54.6972 12.5906V15.7193H53.9231C52.9875 15.7193 52.278 15.9451 51.7942 16.3645C51.3427 16.816 51.0845 17.5579 51.0845 18.6546V24.4928H48.1169V12.7519H51.0845V14.5581Z" fill="white"/>
<path d="M61.0513 24.6863C59.9224 24.6863 58.8903 24.4283 57.9871 23.9446C57.0838 23.4284 56.3743 22.7189 55.8581 21.8158C55.3422 20.8802 55.084 19.8481 55.084 18.6224C55.084 17.3967 55.3422 16.3645 55.8581 15.4291C56.4065 14.4937 57.1162 13.8163 58.0515 13.3003C58.9871 12.7842 59.987 12.5261 61.1159 12.5261C62.2448 12.5261 63.2769 12.7842 64.18 13.3003C65.0831 13.7841 65.8251 14.4937 66.3412 15.4291C66.8896 16.3645 67.1476 17.3967 67.1476 18.6224C67.1476 19.8481 66.8572 20.8802 66.309 21.8158C65.7607 22.7511 65.0509 23.4606 64.1156 23.9446C63.2447 24.4283 62.2126 24.6863 61.0513 24.6863ZM61.0513 22.1059C61.5996 22.1059 62.0834 21.9769 62.5674 21.719C63.0511 21.4608 63.4383 21.0416 63.7285 20.5255C64.0188 20.0094 64.1478 19.3643 64.1478 18.6224C64.1478 17.4934 63.8574 16.6548 63.2447 16.042C62.6641 15.4291 61.9544 15.1388 61.1159 15.1388C60.2771 15.1388 59.5676 15.4291 58.9871 16.042C58.4063 16.6226 58.1483 17.4934 58.1483 18.6224C58.1483 19.7513 58.4387 20.5901 58.9871 21.2028C59.503 21.7834 60.2128 22.1059 61.0513 22.1059Z" fill="white"/>
<path d="M67.7607 18.5578C67.7607 17.3644 67.9865 16.2999 68.4703 15.3968C68.9542 14.4614 69.5994 13.784 70.4379 13.2679C71.2442 12.7841 72.1798 12.526 73.1797 12.526C73.9538 12.526 74.6634 12.6873 75.3731 13.0421C76.0504 13.3647 76.631 13.8163 77.018 14.3646V8.78442H80.0177V24.4928H77.018V22.751C76.6632 23.3315 76.1472 23.7833 75.4699 24.138C74.7923 24.4928 74.0182 24.654 73.1475 24.654C72.1476 24.654 71.2442 24.396 70.4379 23.8799C69.6316 23.3639 68.9542 22.6542 68.4703 21.751C67.9865 20.8479 67.7607 19.7835 67.7607 18.5578ZM77.018 18.6223C77.018 17.9127 76.889 17.2998 76.5988 16.7838C76.3084 16.2677 75.9214 15.8484 75.4375 15.5903C74.9537 15.3 74.4376 15.171 73.8892 15.171C73.3409 15.171 72.8249 15.3 72.3734 15.558C71.9218 15.8161 71.5346 16.2354 71.212 16.7515C70.9219 17.2676 70.7927 17.8804 70.7927 18.59C70.7927 19.2997 70.9219 19.9125 71.212 20.461C71.5024 20.9769 71.8894 21.3963 72.3734 21.6542C72.8571 21.9446 73.3733 22.0736 73.8892 22.0736C74.4376 22.0736 74.9537 21.9446 75.4375 21.6866C75.9214 21.3963 76.3084 21.0093 76.5988 20.4931C76.8568 19.9448 77.018 19.3319 77.018 18.6223Z" fill="white"/>
<path d="M93.1453 12.752V24.4929H90.1455V23.0092C89.7583 23.5252 89.2746 23.9123 88.6294 24.2349C88.0167 24.5251 87.3715 24.6541 86.6296 24.6541C85.6943 24.6541 84.8878 24.4607 84.1782 24.0735C83.4687 23.6866 82.9203 23.106 82.501 22.3641C82.1138 21.5899 81.9204 20.6868 81.9204 19.6546V12.752H84.8878V19.2353C84.8878 20.1707 85.1135 20.8804 85.5975 21.3964C86.0491 21.8803 86.6942 22.1383 87.5005 22.1383C88.3069 22.1383 88.952 21.8803 89.4358 21.3964C89.8873 20.8804 90.1455 20.1707 90.1455 19.2353V12.752H93.1453Z" fill="white"/>
<path d="M94.4678 18.6224C94.4678 17.3967 94.7257 16.3323 95.2097 15.4291C95.6935 14.4937 96.403 13.8163 97.2739 13.3003C98.1449 12.7842 99.1448 12.5261 100.274 12.5261C101.725 12.5261 102.919 12.8809 103.886 13.6228C104.854 14.3324 105.499 15.3646 105.822 16.6871H102.628C102.467 16.171 102.177 15.7839 101.758 15.4936C101.37 15.2033 100.854 15.042 100.274 15.042C99.4352 15.042 98.7578 15.3646 98.2739 15.9775C97.7901 16.5903 97.5321 17.4612 97.5321 18.5901C97.5321 19.7191 97.7901 20.5901 98.2739 21.2028C98.7578 21.8158 99.4352 22.1059 100.274 22.1059C101.467 22.1059 102.274 21.5576 102.628 20.4933H105.822C105.499 21.7512 104.854 22.7833 103.886 23.5252C102.919 24.2671 101.725 24.6541 100.274 24.6541C99.1448 24.6541 98.1449 24.3961 97.2739 23.9122C96.403 23.3962 95.7257 22.6865 95.2097 21.7834C94.7257 20.9124 94.4678 19.8158 94.4678 18.6224Z" fill="white"/>
<path d="M110.596 15.171V20.848C110.596 21.2351 110.692 21.5253 110.886 21.7189C111.08 21.8801 111.402 21.9769 111.854 21.9769H113.241V24.4928H111.37C108.854 24.4928 107.628 23.2671 107.628 20.848V15.171H106.209V12.7196H107.596V9.81665H110.596V12.7196H113.241V15.171H110.596Z" fill="white"/>
<path d="M115.853 24.6539C115.305 24.6539 114.885 24.4927 114.531 24.1702C114.176 23.8154 114.014 23.4282 114.014 22.9123C114.014 22.4283 114.176 22.0091 114.531 21.6866C114.885 21.3316 115.337 21.1704 115.853 21.1704C116.369 21.1704 116.821 21.3316 117.143 21.6866C117.498 22.0091 117.659 22.4283 117.659 22.9123C117.659 23.396 117.498 23.8154 117.143 24.1702C116.788 24.4927 116.369 24.6539 115.853 24.6539Z" fill="white"/>
</g>
</g>
</g>
<defs>
<clipPath id="clip0_2_362">
<rect width="117.59" height="30" fill="white" transform="translate(0.25 0.300049)"/>
</clipPath>
<clipPath id="clip1_2_362">
<rect width="117.59" height="30" fill="white" transform="translate(0.25 0.300049)"/>
</clipPath>
<clipPath id="clip2_2_362">
<rect width="117.59" height="29.9974" fill="white" transform="translate(0.25 0.30127)"/>
</clipPath>
</defs>
</svg>
