<svg width="30" height="30" viewBox="0 0 30 30" fill="none" xmlns="http://www.w3.org/2000/svg">
<path d="M24.4436 20.0053L21.4068 17.8836C21.0097 17.6066 20.5455 17.4606 20.0642 17.4606C19.2988 17.4606 18.5803 17.836 18.1427 18.464L17.4377 19.4743C16.2563 18.6819 14.9379 17.5755 13.6811 16.3189C12.4245 15.0624 11.3184 13.744 10.5262 12.5625L11.536 11.8576C12.0508 11.4991 12.3946 10.9622 12.5037 10.346C12.6127 9.73035 12.4754 9.10825 12.1165 8.59326L9.9952 5.55646C9.55162 4.922 8.83591 4.54297 8.08037 4.54297C7.81853 4.54297 7.56172 4.5892 7.31728 4.67938C7.03964 4.78192 6.78101 4.90781 6.52741 5.06711L6.1081 5.36237C6.00327 5.44385 5.90576 5.53311 5.81238 5.6265C5.30083 6.13782 4.93782 6.7851 4.73297 7.55048C3.85887 10.8271 6.02432 15.782 10.1213 19.879C13.5619 23.3195 17.6952 25.4568 20.9081 25.4573C21.4583 25.4573 21.9772 25.3932 22.45 25.2668C23.2154 25.0622 23.8627 24.6992 24.3745 24.1874C24.4674 24.0945 24.5562 23.997 24.6514 23.8739L24.9469 23.4523C25.0913 23.2216 25.217 22.9629 25.3209 22.6832C25.6782 21.7173 25.3175 20.616 24.4436 20.0053Z" fill="white"/>
</svg>
