<svg width="22" height="22" viewBox="0 0 22 22" fill="none" xmlns="http://www.w3.org/2000/svg">
<path d="M20.6238 16.0053L17.587 13.8836C17.1899 13.6066 16.7257 13.4606 16.2444 13.4606C15.479 13.4606 14.7605 13.836 14.3229 14.464L13.6179 15.4743C12.4365 14.6819 11.1181 13.5755 9.86128 12.3189C8.60468 11.0624 7.49858 9.744 6.70638 8.5625L7.71618 7.8576C8.23098 7.4991 8.57478 6.9622 8.68388 6.346C8.79288 5.73035 8.65558 5.10825 8.29668 4.59326L6.17538 1.55646C5.7318 0.921999 5.01609 0.542969 4.26055 0.542969C3.99871 0.542969 3.7419 0.589199 3.49746 0.679379C3.21982 0.781919 2.96119 0.907809 2.70759 1.06711L2.28828 1.36237C2.18345 1.44385 2.08594 1.53311 1.99256 1.6265C1.48101 2.13782 1.118 2.7851 0.913149 3.55048C0.0390493 6.8271 2.2045 11.782 6.30148 15.879C9.74208 19.3195 13.8754 21.4568 17.0883 21.4573C17.6385 21.4573 18.1574 21.3932 18.6302 21.2668C19.3956 21.0622 20.0429 20.6992 20.5547 20.1874C20.6476 20.0945 20.7364 19.997 20.8316 19.8739L21.1271 19.4523C21.2715 19.2216 21.3972 18.9629 21.5011 18.6832C21.8584 17.7173 21.4977 16.616 20.6238 16.0053Z" fill="white"/>
</svg>
