<svg width="221" height="221" viewBox="0 0 221 221" fill="none" xmlns="http://www.w3.org/2000/svg">
<g clip-path="url(#clip0_5_1490)">
<g clip-path="url(#clip1_5_1490)">
<path d="M121.132 6.09692L123.328 6.44473L125.753 12.7997L125.891 12.8215L130.16 7.52681L132.356 7.87463L126.475 14.9215L125.679 19.9516L123.752 19.6464L124.548 14.6162L121.132 6.09692Z" fill="#003588"/>
<path d="M134.791 21.9056L138.8 9.56763L146.535 12.0809L146.014 13.6835L140.14 11.7749L138.919 15.5343L144.39 17.3116L143.87 18.9081L138.4 17.1307L137.173 20.908L143.119 22.84L142.598 24.4425L134.791 21.9056Z" fill="#003588"/>
<path d="M148.486 26.9041L146.635 25.9608L156.685 16.5212L158.7 17.5479L156.97 31.2264L155.119 30.2831L156.671 19.1587L156.58 19.1126L148.486 26.9041ZM151.104 22.5358L157.109 25.5955L156.361 27.063L150.356 24.0031L151.104 22.5358Z" fill="#003588"/>
<path d="M160.654 33.5812L168.278 23.0859L172.019 25.8039C172.833 26.3947 173.406 27.025 173.739 27.6948C174.075 28.3672 174.197 29.0478 174.103 29.7369C174.012 30.4224 173.732 31.0881 173.263 31.7338C172.796 32.3761 172.25 32.8434 171.625 33.1359C171.007 33.4274 170.329 33.5121 169.594 33.3898C168.861 33.27 168.088 32.9147 167.275 32.324L164.44 30.265L165.431 28.9018L168.122 30.8565C168.634 31.2288 169.104 31.4582 169.532 31.5446C169.963 31.6335 170.357 31.5925 170.71 31.4216C171.064 31.2506 171.383 30.9688 171.669 30.5758C171.957 30.1796 172.129 29.7804 172.187 29.3782C172.247 28.9786 172.171 28.5841 171.958 28.1945C171.752 27.804 171.386 27.4188 170.864 27.0391L168.875 25.5944L162.236 34.7318L160.654 33.5812ZM169.274 32.6104L168.427 39.2295L166.624 37.9189L167.522 31.3369L169.274 32.6104Z" fill="#003588"/>
<path d="M183.878 40.6754C184.253 40.2036 184.385 39.6781 184.272 39.0988C184.161 38.5165 183.843 37.9626 183.318 37.4371C182.941 37.0608 182.556 36.795 182.162 36.6397C181.771 36.4815 181.396 36.4292 181.038 36.483C180.686 36.5368 180.38 36.6935 180.12 36.9533C179.902 37.1713 179.764 37.4101 179.708 37.67C179.654 37.9328 179.657 38.2014 179.717 38.4762C179.782 38.7509 179.876 39.0212 179.999 39.287C180.124 39.5497 180.254 39.7931 180.389 40.017L181.052 41.1458C181.273 41.5101 181.476 41.9072 181.66 42.3372C181.845 42.7672 181.969 43.2137 182.033 43.6765C182.095 44.1393 182.059 44.5992 181.925 45.056C181.794 45.5159 181.521 45.9519 181.11 46.3639C180.59 46.8835 179.994 47.2105 179.322 47.3449C178.653 47.4823 177.949 47.4136 177.209 47.1389C176.47 46.8672 175.744 46.3729 175.027 45.6563C174.341 44.9694 173.855 44.2662 173.572 43.5465C173.287 42.8269 173.204 42.1252 173.32 41.4414C173.44 40.7546 173.761 40.12 174.283 39.5378L175.671 40.9263C175.367 41.2846 175.199 41.6683 175.166 42.0774C175.139 42.4865 175.22 42.8926 175.408 43.2957C175.602 43.6989 175.877 44.0781 176.231 44.4335C176.623 44.8246 177.032 45.1113 177.459 45.2935C177.892 45.4756 178.308 45.5443 178.704 45.4995C179.104 45.4517 179.454 45.2785 179.752 44.9799C180.024 44.7082 180.169 44.4081 180.186 44.0796C180.208 43.7541 180.144 43.4032 179.994 43.027C179.848 42.6538 179.654 42.2595 179.411 41.8445L178.624 40.465C178.089 39.5302 177.801 38.6538 177.759 37.8357C177.721 37.0205 178.02 36.2934 178.659 35.6544C179.189 35.1258 179.793 34.8078 180.474 34.7003C181.155 34.5927 181.848 34.6749 182.556 34.9466C183.267 35.2154 183.93 35.6574 184.545 36.2725C185.166 36.8936 185.605 37.5505 185.862 38.2432C186.121 38.939 186.198 39.6154 186.091 40.2723C185.986 40.9263 185.693 41.5056 185.213 42.0102L183.878 40.6754Z" fill="#003588"/>
<path d="M200.649 71.145C199.416 71.7739 198.239 72.0887 197.121 72.0897C196.008 72.0887 195.011 71.8168 194.133 71.2738C193.26 70.7328 192.569 69.9637 192.06 68.9665C191.551 67.9657 191.333 66.9512 191.406 65.9233C191.485 64.8972 191.853 63.9321 192.511 63.0281C193.169 62.1241 194.114 61.3587 195.344 60.7318C196.578 60.1029 197.753 59.7891 198.867 59.79C199.984 59.7891 200.98 60.0591 201.853 60.6002C202.731 61.1431 203.426 61.915 203.936 62.9159C204.444 63.9131 204.659 64.9247 204.58 65.9507C204.506 66.9788 204.141 67.9447 203.483 68.8487C202.829 69.7508 201.884 70.5162 200.649 71.145ZM199.77 69.418C200.711 68.9387 201.425 68.3827 201.913 67.7501C202.406 67.1193 202.685 66.4562 202.748 65.7607C202.817 65.0671 202.682 64.3891 202.344 63.7269C202.005 63.0609 201.534 62.5517 200.933 62.1993C200.335 61.8451 199.636 61.6804 198.833 61.7053C198.036 61.7322 197.168 61.9852 196.227 62.4645C195.286 62.9438 194.569 63.4988 194.075 64.1296C193.587 64.7622 193.309 65.4253 193.241 66.119C193.175 66.8107 193.313 67.4895 193.653 68.1556C193.99 68.8179 194.458 69.326 195.055 69.6804C195.659 70.0366 196.358 70.2012 197.155 70.1743C197.958 70.1494 198.829 69.8973 199.77 69.418Z" fill="#003588"/>
<path d="M196.548 78.4925L208.885 74.4836L211.371 82.1346L209.768 82.6554L207.888 76.8659L204.129 78.0873L205.831 83.3285L204.235 83.8473L202.532 78.6061L197.152 80.3541L196.548 78.4925Z" fill="#003588"/>
<path d="M202.301 106.774H215.274V114.908H213.59V108.732H209.637V114.483H207.958V108.732H203.986V114.984H202.301V106.774Z" fill="#003588"/>
<path d="M214.475 124.126L208.978 126.398L208.962 126.498L213.488 130.358L213.133 132.597L207.358 127.591L200.315 130.593L200.672 128.34L206.102 126.045L206.118 125.945L201.663 122.084L202.02 119.832L207.78 124.932L214.829 121.886L214.475 124.126Z" fill="#003588"/>
<path d="M199.188 134.979L211.525 138.989L210.096 143.386C209.784 144.346 209.351 145.084 208.797 145.601C208.243 146.119 207.612 146.435 206.903 146.551C206.199 146.669 205.469 146.605 204.714 146.36C203.955 146.113 203.324 145.732 202.82 145.218C202.32 144.709 201.996 144.08 201.849 143.33C201.705 142.586 201.788 141.737 202.098 140.78L203.081 137.756L204.659 138.269L203.731 141.124C203.534 141.731 203.478 142.257 203.565 142.703C203.655 143.149 203.854 143.52 204.162 143.816C204.47 144.111 204.857 144.335 205.324 144.486C205.789 144.637 206.231 144.684 206.651 144.624C207.069 144.565 207.443 144.378 207.771 144.062C208.099 143.751 208.364 143.286 208.564 142.668L209.324 140.331L198.583 136.841L199.188 134.979Z" fill="#003588"/>
<path d="M194.084 149.054L205.643 154.944L201.951 162.191L200.449 161.426L203.254 155.923L199.732 154.128L197.12 159.253L195.625 158.491L198.236 153.366L194.697 151.563L191.858 157.134L190.357 156.369L194.084 149.054Z" fill="#003588"/>
<path d="M187.357 161.314L197.853 168.94L195.134 172.681C194.544 173.494 193.914 174.067 193.244 174.399C192.571 174.736 191.891 174.857 191.201 174.764C190.516 174.673 189.85 174.393 189.204 173.924C188.562 173.457 188.094 172.911 187.802 172.287C187.511 171.667 187.427 170.99 187.548 170.254C187.668 169.522 188.024 168.749 188.615 167.936L190.673 165.102L192.037 166.092L190.082 168.783C189.71 169.295 189.48 169.766 189.394 170.194C189.304 170.625 189.346 171.017 189.517 171.371C189.688 171.725 189.969 172.045 190.363 172.33C190.759 172.618 191.158 172.79 191.56 172.848C191.959 172.908 192.355 172.833 192.744 172.62C193.135 172.413 193.519 172.048 193.9 171.525L195.344 169.537L186.207 162.898L187.357 161.314ZM188.328 169.936L181.708 169.089L183.02 167.285L189.602 168.183L188.328 169.936Z" fill="#003588"/>
<path d="M183.841 185.779L174.667 176.606L176.052 175.222L185.225 184.395L183.841 185.779Z" fill="#003588"/>
<path d="M167.568 182.993L175.193 193.488L168.613 198.269L167.623 196.906L172.619 193.276L170.296 190.078L165.643 193.459L164.656 192.101L169.309 188.72L166.975 185.507L161.917 189.181L160.927 187.819L167.568 182.993Z" fill="#003588"/>
<path d="M153.451 206.726L147.562 195.167L149.164 194.35L159.36 199.834L159.467 199.78L155.147 191.302L156.891 190.413L162.781 201.973L161.166 202.796L150.96 197.303L150.853 197.358L155.179 205.846L153.451 206.726Z" fill="#003588"/>
<path d="M136.318 208.406L138.198 207.795C138.401 208.173 138.65 208.483 138.946 208.724C139.243 208.965 139.568 209.146 139.921 209.267C140.276 209.387 140.648 209.443 141.036 209.437C141.421 209.432 141.81 209.366 142.204 209.238C142.914 209.006 143.493 208.621 143.939 208.081C144.381 207.542 144.652 206.875 144.753 206.078C144.851 205.283 144.738 204.387 144.414 203.391C144.088 202.387 143.651 201.592 143.105 201.005C142.555 200.42 141.942 200.043 141.265 199.871C140.588 199.701 139.898 199.729 139.195 199.958C138.806 200.084 138.453 200.257 138.138 200.475C137.819 200.698 137.552 200.96 137.334 201.262C137.117 201.564 136.959 201.897 136.86 202.261C136.758 202.632 136.733 203.026 136.785 203.446L134.903 204.05C134.807 203.411 134.82 202.79 134.944 202.185C135.065 201.587 135.289 201.03 135.619 200.513C135.947 200.003 136.365 199.554 136.873 199.168C137.382 198.78 137.976 198.476 138.655 198.255C139.723 197.908 140.758 197.852 141.758 198.086C142.759 198.325 143.654 198.84 144.444 199.631C145.23 200.424 145.837 201.477 146.263 202.79C146.691 204.108 146.818 205.317 146.642 206.417C146.468 207.521 146.046 208.462 145.375 209.24C144.705 210.021 143.838 210.585 142.773 210.931C142.119 211.144 141.478 211.247 140.85 211.243C140.22 211.243 139.619 211.137 139.048 210.923C138.478 210.713 137.96 210.396 137.494 209.975C137.031 209.557 136.638 209.034 136.318 208.406Z" fill="#003588"/>
<path d="M128.533 201.198L130.561 214.012L122.528 215.284L122.265 213.619L128.365 212.653L127.747 208.75L122.066 209.649L121.803 207.991L127.484 207.092L126.863 203.168L120.687 204.146L120.424 202.483L128.533 201.198Z" fill="#003588"/>
<path d="M99.146 215.503L96.95 215.155L94.5253 208.8L94.3877 208.778L90.1179 214.073L87.9219 213.725L93.8031 206.678L94.5999 201.648L96.5268 201.953L95.7302 206.983L99.146 215.503Z" fill="#003588"/>
<path d="M85.4878 199.694L81.4789 212.032L73.7437 209.518L74.2643 207.916L80.1381 209.825L81.3595 206.066L75.8894 204.288L76.4081 202.691L81.8783 204.469L83.1056 200.692L77.1595 198.759L77.6802 197.157L85.4878 199.694Z" fill="#003588"/>
<path d="M71.7913 194.695L73.6426 195.639L63.5933 205.079L61.5784 204.052L63.3083 190.374L65.1596 191.317L63.6077 202.441L63.698 202.487L71.7913 194.695ZM69.1745 199.065L63.1693 196.004L63.917 194.537L69.9222 197.597L69.1745 199.065Z" fill="#003588"/>
<path d="M59.6248 188.018L51.9994 198.513L48.2584 195.796C47.4453 195.204 46.8723 194.574 46.5395 193.904C46.2032 193.232 46.0818 192.552 46.1753 191.863C46.2662 191.177 46.5463 190.511 47.0154 189.866C47.4821 189.224 48.0278 188.756 48.6526 188.464C49.2716 188.172 49.9491 188.087 50.685 188.21C51.4174 188.33 52.1902 188.685 53.0033 189.275L55.8372 191.335L54.8468 192.698L52.1564 190.743C51.6439 190.37 51.1737 190.141 50.7459 190.055C50.3146 189.966 49.922 190.007 49.5681 190.178C49.2142 190.349 48.8946 190.631 48.6091 191.023C48.3213 191.42 48.1486 191.819 48.0913 192.222C48.0307 192.621 48.1068 193.015 48.3197 193.405C48.5267 193.795 48.8915 194.181 49.4142 194.56L51.4026 196.005L58.0413 186.868L59.6248 188.018ZM51.0034 188.989L51.8507 182.37L53.6546 183.68L52.756 190.262L51.0034 188.989Z" fill="#003588"/>
<path d="M36.4008 180.924C36.0245 181.396 35.8932 181.921 36.0066 182.501C36.117 183.083 36.4351 183.637 36.9607 184.163C37.3368 184.538 37.7221 184.805 38.1163 184.96C38.5074 185.118 38.8822 185.171 39.2405 185.116C39.5929 185.063 39.899 184.906 40.1588 184.646C40.3767 184.428 40.5141 184.19 40.5708 183.93C40.6246 183.667 40.6216 183.398 40.5618 183.123C40.4962 182.849 40.4021 182.578 40.2797 182.313C40.1542 182.05 40.0244 181.806 39.89 181.582L39.2271 180.453C39.0062 180.09 38.8031 179.692 38.6179 179.262C38.4328 178.832 38.3089 178.386 38.2462 177.923C38.1834 177.461 38.2193 177 38.3537 176.543C38.485 176.083 38.7568 175.647 39.1689 175.236C39.6885 174.716 40.2842 174.389 40.956 174.255C41.625 174.117 42.3297 174.186 43.0702 174.461C43.8077 174.732 44.5349 175.227 45.2515 175.943C45.9383 176.63 46.4235 177.333 46.7073 178.053C46.991 178.773 47.0745 179.474 46.9581 180.158C46.8387 180.845 46.5177 181.479 45.995 182.062L44.6066 180.673C44.9111 180.315 45.0799 179.931 45.1127 179.522C45.1395 179.113 45.0589 178.707 44.8709 178.304C44.6767 177.901 44.402 177.521 44.0466 177.166C43.6555 176.775 43.2464 176.489 42.8194 176.306C42.3863 176.124 41.9713 176.055 41.5741 176.1C41.1741 176.148 40.8246 176.321 40.5261 176.619C40.2543 176.892 40.1094 177.191 40.0916 177.52C40.0707 177.845 40.1349 178.196 40.2841 178.573C40.4305 178.946 40.6246 179.34 40.8665 179.755L41.6548 181.134C42.1893 182.069 42.4774 182.946 42.5192 183.763C42.5581 184.579 42.258 185.306 41.6189 185.946C41.0904 186.474 40.4857 186.792 39.8049 186.899C39.1241 187.007 38.4298 186.925 37.7221 186.653C37.0114 186.385 36.3485 185.943 35.7333 185.327C35.1123 184.706 34.6733 184.049 34.4165 183.356C34.1568 182.66 34.0805 181.985 34.1881 181.328C34.2926 180.673 34.5853 180.094 35.066 179.589L36.4008 180.924Z" fill="#003588"/>
<path d="M19.6291 150.454C20.8633 149.826 22.0394 149.511 23.1574 149.51C24.2717 149.511 25.2681 149.782 26.1467 150.325C27.0196 150.866 27.71 151.635 28.2181 152.632C28.7281 153.633 28.9464 154.648 28.8729 155.676C28.7939 156.702 28.4253 157.668 27.7674 158.571C27.1095 159.475 26.1653 160.24 24.9348 160.868C23.7008 161.497 22.5265 161.81 21.4122 161.809C20.2941 161.81 19.2987 161.54 18.4258 160.999C17.5472 160.456 16.853 159.684 16.3431 158.683C15.835 157.686 15.6204 156.675 15.6996 155.649C15.7729 154.62 16.1386 153.655 16.7965 152.75C17.4508 151.849 18.3949 151.083 19.6291 150.454ZM20.5091 152.181C19.5684 152.661 18.854 153.217 18.3659 153.849C17.8721 154.48 17.5938 155.144 17.5311 155.838C17.4627 156.532 17.5972 157.211 17.9346 157.873C18.274 158.539 18.7443 159.048 19.3457 159.4C19.9433 159.755 20.6434 159.919 21.4459 159.894C22.2426 159.868 23.1113 159.614 24.0521 159.135C24.9927 158.656 25.7099 158.101 26.2037 157.469C26.6919 156.837 26.9701 156.174 27.0385 155.48C27.1031 154.789 26.9658 154.11 26.6265 153.444C26.289 152.782 25.8215 152.274 25.2239 151.919C24.6206 151.563 23.9206 151.399 23.1238 151.425C22.3213 151.45 21.4497 151.702 20.5091 152.181Z" fill="#003588"/>
<path d="M23.7322 143.107L11.3942 147.116L8.9082 139.465L10.5107 138.944L12.3918 144.734L16.151 143.513L14.4481 138.271L16.0446 137.753L17.7475 142.994L23.1273 141.246L23.7322 143.107Z" fill="#003588"/>
<path d="M17.9769 114.825H5.00392L5.00391 106.691H6.68888V112.868H10.6416V107.116H12.3202V112.868H16.2919V106.616H17.9769V114.825Z" fill="#003588"/>
<path d="M5.80446 97.4735L11.3014 95.2015L11.3173 95.1014L6.79142 91.242L7.14617 89.0022L12.9206 94.0086L19.9634 91.0066L19.6066 93.2589L14.1765 95.5542L14.1606 95.6544L18.6157 99.5154L18.259 101.768L12.4994 96.6675L5.44971 99.7133L5.80446 97.4735Z" fill="#003588"/>
<path d="M21.0908 86.6202L8.75269 82.6113L10.1816 78.2135C10.4935 77.2537 10.9267 76.5152 11.4809 75.9982C12.0352 75.4812 12.6664 75.1645 13.3747 75.0483C14.079 74.9308 14.8086 74.9947 15.5637 75.2401C16.3227 75.4866 16.954 75.8672 17.4573 76.3815C17.958 76.8905 18.2819 77.5197 18.4291 78.2691C18.5737 79.0133 18.4907 79.8632 18.1801 80.819L17.1974 83.8434L15.6191 83.3305L16.5469 80.4749C16.744 79.8685 16.7994 79.3426 16.7132 78.8971C16.623 78.4505 16.4239 78.0794 16.1158 77.7838C15.8078 77.4884 15.4208 77.265 14.9549 77.1136C14.489 76.9622 14.0466 76.9162 13.6277 76.9755C13.2088 77.0348 12.835 77.2218 12.5062 77.5369C12.1787 77.8479 11.9145 78.3125 11.7135 78.9311L10.954 81.2686L21.6956 84.7587L21.0908 86.6202Z" fill="#003588"/>
<path d="M26.195 72.5458L14.636 66.6561L18.3285 59.4092L19.8299 60.1741L17.026 65.6771L20.5478 67.4716L23.159 62.3468L24.6547 63.1088L22.0435 68.2337L25.5823 70.0368L28.4207 64.4661L29.922 65.2311L26.195 72.5458Z" fill="#003588"/>
<path d="M32.9217 60.2849L22.4263 52.6596L25.1444 48.9186C25.7351 48.1055 26.3654 47.5325 27.0353 47.1996C27.7076 46.8634 28.3883 46.742 29.0773 46.8354C29.7629 46.9264 30.4285 47.2064 31.0742 47.6756C31.7165 48.1422 32.1839 48.688 32.4763 49.3128C32.7679 49.9318 32.8525 50.6092 32.7302 51.3451C32.6104 52.0776 32.2551 52.8503 31.6643 53.6634L29.6053 56.4974L28.2422 55.507L30.1969 52.8165C30.5692 52.3041 30.7987 51.8339 30.8851 51.4061C30.974 50.9748 30.9329 50.5822 30.762 50.2283C30.591 49.8744 30.3091 49.5548 29.9163 49.2693C29.52 48.9814 29.1207 48.8088 28.7187 48.7515C28.319 48.6908 27.9245 48.767 27.5349 48.9798C27.1444 49.1868 26.7593 49.5516 26.3795 50.0744L24.9349 52.0628L34.0722 58.7014L32.9217 60.2849ZM31.9507 51.6635L38.5699 52.5108L37.2593 54.3146L30.6774 53.4162L31.9507 51.6635Z" fill="#003588"/>
<path d="M36.4377 35.8164L45.611 44.9897L44.2269 46.3737L35.0537 37.2004L36.4377 35.8164Z" fill="#003588"/>
<path d="M52.7115 38.6027L45.0862 28.1074L51.6663 23.3267L52.6567 24.6898L47.6601 28.3201L49.9835 31.5178L54.6367 28.1371L55.6233 29.4951L50.9701 32.8758L53.3046 36.089L58.3627 32.4141L59.3531 33.7774L52.7115 38.6027Z" fill="#003588"/>
<path d="M66.8276 14.8733L72.7172 26.4323L71.1143 27.2491L60.9194 21.7654L60.8122 21.82L65.1316 30.2974L63.3876 31.186L57.498 19.627L59.1122 18.8046L69.3185 24.2966L69.4257 24.242L65.1005 15.7533L66.8276 14.8733Z" fill="#003588"/>
<path d="M83.9602 13.1942L82.0805 13.805C81.8778 13.4268 81.6284 13.1171 81.3324 12.8758C81.0364 12.6345 80.7113 12.4537 80.357 12.3335C80.0026 12.2133 79.6311 12.1564 79.2424 12.1628C78.8578 12.1679 78.4687 12.2344 78.0752 12.3623C77.3642 12.5933 76.7857 12.9788 76.3396 13.519C75.8975 14.0578 75.626 14.7255 75.5251 15.5219C75.4282 16.3172 75.5417 17.2128 75.8652 18.2088C76.1915 19.2129 76.6275 20.0082 77.1733 20.5945C77.7231 21.1796 78.3365 21.5576 79.0136 21.7283C79.6908 21.8991 80.3807 21.8702 81.0836 21.6418C81.4732 21.5153 81.8257 21.343 82.1412 21.125C82.4594 20.9017 82.7272 20.6394 82.9444 20.3379C83.1617 20.0364 83.3198 19.703 83.4188 19.3379C83.5204 18.9674 83.5454 18.573 83.4938 18.1546L85.3754 17.5499C85.4721 18.189 85.4586 18.8105 85.3353 19.4146C85.2145 20.0132 84.9892 20.5704 84.6595 21.0861C84.3324 21.5964 83.9144 22.0452 83.4053 22.4327C82.8962 22.8201 82.3022 23.1241 81.6235 23.3446C80.5552 23.6918 79.5211 23.7481 78.5213 23.5134C77.5202 23.2748 76.6246 22.7598 75.8347 21.9685C75.0489 21.176 74.4425 20.1231 74.0158 18.8098C73.5878 17.4924 73.4614 16.2835 73.6367 15.1831C73.8106 14.0787 74.2331 13.1377 74.9041 12.3602C75.5737 11.5787 76.4407 11.0151 77.505 10.6692C78.1597 10.4565 78.8009 10.3526 79.4285 10.3573C80.0588 10.3568 80.6597 10.4635 81.2309 10.6775C81.8009 10.8875 82.3187 11.2033 82.7842 11.6248C83.2484 12.0423 83.6405 12.5654 83.9602 13.1942Z" fill="#003588"/>
<path d="M91.7467 20.4015L89.7173 7.58825L97.7507 6.31592L98.0143 7.98014L91.9142 8.94629L92.5325 12.8503L98.2133 11.9506L98.476 13.6085L92.7951 14.5083L93.4164 18.431L99.592 17.453L99.8546 19.1173L91.7467 20.4015Z" fill="#003588"/>
</g>
</g>
<defs>
<clipPath id="clip0_5_1490">
<rect width="220" height="220" fill="white" transform="translate(0.13916 0.799805)"/>
</clipPath>
<clipPath id="clip1_5_1490">
<rect width="220" height="220" fill="white" transform="translate(0.13916 0.799805)"/>
</clipPath>
</defs>
</svg>
