<svg width="41" height="42" viewBox="0 0 41 42" fill="none" xmlns="http://www.w3.org/2000/svg">
<path d="M20.275 41.1231C12.55 41.1239 5.4265 36.6973 2.01482 29.7301C-1.43752 22.6778 -0.392214 13.8825 4.6172 7.84415C9.6211 1.81211 17.7562 -0.819927 25.3406 1.13867C26.1758 1.35429 26.6781 2.20664 26.4633 3.04257C26.2476 3.87851 25.3945 4.38007 24.5594 4.16523C18.1437 2.5082 11.2578 4.73476 7.0226 9.84025C2.78513 14.9489 1.90076 22.3903 4.8219 28.3575C7.732 34.3012 14.1515 38.1731 20.7406 37.9934C27.3289 37.8137 33.3078 33.8067 35.9726 27.7856C37.5375 24.2497 37.8687 20.2457 36.9039 16.5106C36.6883 15.6754 37.1906 14.8231 38.0265 14.6067C38.8601 14.3903 39.714 14.8934 39.9304 15.7293C41.0695 20.1426 40.6797 24.8739 38.8312 29.0504C35.6812 36.1676 28.6133 40.9043 20.8265 41.1168C20.6422 41.1207 20.4578 41.1231 20.275 41.1231Z" fill="#60FFD2"/>
<path d="M20.2615 25.6832C19.8615 25.6832 19.4615 25.5308 19.1568 25.2253C18.5467 24.6152 18.5467 23.6261 19.1568 23.016L37.9068 4.26596C38.5162 3.65581 39.5068 3.65581 40.1162 4.26596C40.7264 4.87612 40.7264 5.86519 40.1162 6.47529L21.3662 25.2253C21.0615 25.53 20.6615 25.6832 20.2615 25.6832Z" fill="#60FFD2"/>
<path d="M20.2654 25.6832C19.8654 25.6832 19.4654 25.5308 19.1607 25.2253L12.5318 18.5964C11.9217 17.9863 11.9217 16.9972 12.5318 16.3871C13.1412 15.7769 14.1318 15.7769 14.7412 16.3871L21.3701 23.016C21.9803 23.6261 21.9803 24.6152 21.3701 25.2253C21.0654 25.53 20.6654 25.6832 20.2654 25.6832Z" fill="#60FFD2"/>
</svg>
