<svg width="111" height="111" viewBox="0 0 111 111" fill="none" xmlns="http://www.w3.org/2000/svg">
<path d="M15.7309 2.78814C12.1516 -0.791188 6.33878 -0.791188 2.75945 2.78814C-0.819882 6.36747 -0.819882 12.1803 2.75945 15.7596L42.1035 55.075L2.78808 94.419C-0.79125 97.9983 -0.79125 103.811 2.78808 107.391C6.36741 110.97 12.1802 110.97 15.7596 107.391L55.0749 68.0465L94.4189 107.362C97.9983 110.941 103.811 110.941 107.39 107.362C110.97 103.783 110.97 97.9697 107.39 94.3904L68.0464 55.075L107.362 15.731C110.941 12.1517 110.941 6.33884 107.362 2.75951C103.782 -0.81982 97.9696 -0.81982 94.3903 2.75951L55.0749 42.1035L15.7309 2.78814Z" fill="white"/>
</svg>
