<svg width="30" height="30" viewBox="0 0 30 30" fill="none" xmlns="http://www.w3.org/2000/svg">
<path d="M15 16.875C15.5625 16.875 15.9375 16.5 15.9375 15.9375C15.9375 15.375 15.5625 15 15 15C11.9062 15 9.375 12.4688 9.375 9.375C9.375 6.28125 11.9062 3.75 15 3.75C18.0938 3.75 20.625 6.28125 20.625 9.375V11.25C20.625 11.8125 20.25 12.1875 19.6875 12.1875C19.125 12.1875 18.75 11.8125 18.75 11.25V9.375C18.75 7.3125 17.0625 5.625 15 5.625C12.9375 5.625 11.25 7.3125 11.25 9.375C11.25 11.4375 12.9375 13.125 15 13.125C15.8438 13.125 16.5 12.8438 17.1562 12.4688C17.625 13.4062 18.5625 14.0625 19.6875 14.0625C21.2812 14.0625 22.5 12.8438 22.5 11.25V9.375C22.5 5.25 19.125 1.875 15 1.875C10.875 1.875 7.5 5.25 7.5 9.375C7.5 13.5 10.875 16.875 15 16.875ZM15 11.25C13.9688 11.25 13.125 10.4062 13.125 9.375C13.125 8.34375 13.9688 7.5 15 7.5C16.0312 7.5 16.875 8.34375 16.875 9.375C16.875 10.4062 16.0312 11.25 15 11.25Z" fill="white"/>
<path d="M27.75 12.375L24.375 9.75V12.1875L25.6875 13.125L15 21.2813L4.3125 13.125L5.625 12.1875V9.84375L2.25 12.4688C1.96875 12.5625 1.875 12.8438 1.875 13.125V25.3125C1.875 26.9063 3.09375 28.125 4.6875 28.125H25.3125C26.9062 28.125 28.125 26.9063 28.125 25.3125V13.125C28.125 12.8438 28.0312 12.5625 27.75 12.375Z" fill="white"/>
</svg>
