<svg width="31" height="30" viewBox="0 0 31 30" fill="none" xmlns="http://www.w3.org/2000/svg">
<g clip-path="url(#clip0_2_31)">
<path d="M15.1001 16.875C15.6626 16.875 16.0376 16.5 16.0376 15.9375C16.0376 15.375 15.6626 15 15.1001 15C12.0063 15 9.4751 12.4688 9.4751 9.375C9.4751 6.28125 12.0063 3.75 15.1001 3.75C18.1939 3.75 20.7251 6.28125 20.7251 9.375V11.25C20.7251 11.8125 20.3501 12.1875 19.7876 12.1875C19.2251 12.1875 18.8501 11.8125 18.8501 11.25V9.375C18.8501 7.3125 17.1626 5.625 15.1001 5.625C13.0376 5.625 11.3501 7.3125 11.3501 9.375C11.3501 11.4375 13.0376 13.125 15.1001 13.125C15.9439 13.125 16.6001 12.8438 17.2563 12.4688C17.7251 13.4062 18.6626 14.0625 19.7876 14.0625C21.3813 14.0625 22.6001 12.8438 22.6001 11.25V9.375C22.6001 5.25 19.2251 1.875 15.1001 1.875C10.9751 1.875 7.6001 5.25 7.6001 9.375C7.6001 13.5 10.9751 16.875 15.1001 16.875ZM15.1001 11.25C14.0689 11.25 13.2251 10.4062 13.2251 9.375C13.2251 8.34375 14.0689 7.5 15.1001 7.5C16.1313 7.5 16.9751 8.34375 16.9751 9.375C16.9751 10.4062 16.1313 11.25 15.1001 11.25Z" fill="white"/>
<path d="M27.8501 12.375L24.4751 9.75V12.1875L25.7876 13.125L15.1001 21.2813L4.4126 13.125L5.7251 12.1875V9.84375L2.3501 12.4688C2.06885 12.5625 1.9751 12.8438 1.9751 13.125V25.3125C1.9751 26.9063 3.19385 28.125 4.7876 28.125H25.4126C27.0063 28.125 28.2251 26.9063 28.2251 25.3125V13.125C28.2251 12.8438 28.1313 12.5625 27.8501 12.375Z" fill="white"/>
</g>
<defs>
<clipPath id="clip0_2_31">
<rect width="30" height="30" fill="white" transform="translate(0.100098)"/>
</clipPath>
</defs>
</svg>
