<svg width="19" height="12" viewBox="0 0 19 12" fill="none" xmlns="http://www.w3.org/2000/svg">
<path d="M18.848 1.66367C18.7026 1.31513 18.4576 1.01727 18.1436 0.807398C17.8297 0.597527 17.4608 0.484989 17.0831 0.483887H16.8625L10.4169 1.98978C10.0759 2.06652 9.72203 2.06652 9.38099 1.98978L2.93536 0.50307H2.71475C2.33711 0.504172 1.9682 0.616711 1.65425 0.826582C1.34029 1.03645 1.09527 1.33432 0.949877 1.68285C0.804171 2.03311 0.765586 2.41871 0.838999 2.79089C0.912412 3.16308 1.09453 3.50514 1.36232 3.77384L8.54651 10.958C8.90593 11.3153 9.39214 11.5159 9.89894 11.5159C10.4057 11.5159 10.8919 11.3153 11.2514 10.958L18.4356 3.77384C18.7072 3.50354 18.8917 3.15807 18.9652 2.78197C19.0387 2.40586 18.9979 2.01636 18.848 1.66367ZM9.89894 9.57682L2.75312 2.431L8.93977 3.87935C9.5702 4.03122 10.2277 4.03122 10.8581 3.87935L17.0544 2.44059L9.89894 9.57682Z" fill="#1D6CEF"/>
</svg>
