<svg width="31" height="30" viewBox="0 0 31 30" fill="none" xmlns="http://www.w3.org/2000/svg">
<g clip-path="url(#clip0_2_44)">
<g clip-path="url(#clip1_2_44)">
<path d="M15.6394 1.00001C14.1223 0.998168 12.6151 1.24338 11.1769 1.72601C11.0561 1.767 10.9552 1.85181 10.894 1.96365C10.8328 2.0755 10.8158 2.20624 10.8464 2.33001C10.8625 2.39577 10.8923 2.45739 10.9338 2.51088C10.9754 2.56438 11.0277 2.60854 11.0874 2.64051C11.1504 2.67488 11.2199 2.6957 11.2915 2.70164C11.363 2.70758 11.435 2.69851 11.5029 2.67501C14.1901 1.77127 17.0992 1.77107 19.7866 2.67443C22.4741 3.57779 24.7923 5.33516 26.3881 7.67863C27.9838 10.0221 28.7695 12.8231 28.6253 15.6546C28.4811 18.4861 27.4149 21.1928 25.5894 23.362C25.5447 23.415 25.4895 23.4582 25.4273 23.4888C25.365 23.5193 25.2971 23.5366 25.2279 23.5395C25.1586 23.5431 25.0893 23.5319 25.0247 23.5067C24.96 23.4816 24.9015 23.443 24.8529 23.3935L24.5379 23.0785L24.1554 25.486L26.5629 25.1035L26.2729 24.8135C26.1836 24.7242 26.1314 24.6043 26.1269 24.4781C26.1223 24.3518 26.1657 24.2286 26.2484 24.133C27.9978 22.1024 29.1275 19.6122 29.503 16.9583C29.8786 14.3044 29.4843 11.5985 28.367 9.1622C27.2497 6.72587 25.4563 4.66158 23.2001 3.21468C20.9439 1.76777 18.3197 0.999095 15.6394 1.00001Z" fill="white"/>
<path d="M15.6401 16C16.1924 16 16.6401 15.5523 16.6401 15C16.6401 14.4477 16.1924 14 15.6401 14C15.0878 14 14.6401 14.4477 14.6401 15C14.6401 15.5523 15.0878 16 15.6401 16Z" fill="white"/>
<path d="M15.6399 29.0001C17.157 29.002 18.6642 28.7568 20.1024 28.2741C20.2232 28.2331 20.3241 28.1483 20.3853 28.0365C20.4465 27.9246 20.4635 27.7939 20.4329 27.6701C20.4168 27.6044 20.387 27.5427 20.3454 27.4892C20.3039 27.4358 20.2516 27.3916 20.1919 27.3596C20.1289 27.3253 20.0594 27.3044 19.9878 27.2985C19.9163 27.2925 19.8443 27.3016 19.7764 27.3251C17.0892 28.2289 14.1801 28.2291 11.4926 27.3257C8.80528 26.4223 6.48698 24.665 4.89124 22.3215C3.29549 19.978 2.50983 17.177 2.65404 14.3455C2.79824 11.514 3.8644 8.80738 5.68998 6.63816C5.73463 6.58512 5.78983 6.54196 5.85206 6.5114C5.9143 6.48084 5.98221 6.46356 6.05147 6.46066C6.12063 6.4582 6.18955 6.46988 6.25403 6.49498C6.31851 6.52009 6.37719 6.55809 6.42647 6.60666L6.74148 6.92166L7.12398 4.51416L4.71647 4.89666L5.00647 5.18666C5.09576 5.27601 5.14792 5.39585 5.15247 5.52209C5.15701 5.64833 5.11361 5.77161 5.03097 5.86716C3.28151 7.89778 2.15185 10.388 1.77628 13.0418C1.40072 15.6957 1.79502 18.4016 2.91234 20.8379C4.02966 23.2743 5.82301 25.3385 8.07923 26.7855C10.3354 28.2324 12.9596 29.001 15.6399 29.0001Z" fill="white"/>
<path d="M7.0845 7.95292C6.92195 8.00633 6.74784 8.01396 6.58124 7.97498C6.41464 7.936 6.26198 7.8519 6.14 7.73192L6.1155 7.70742C4.3129 10.0519 3.44022 12.9798 3.66512 15.9286C3.89002 18.8774 5.19665 21.639 7.33395 23.683C9.47126 25.727 12.2885 26.9091 15.2443 27.0022C18.2002 27.0953 21.0863 26.0928 23.348 24.1874L23.571 22.7814C23.5979 22.6129 23.6707 22.4551 23.7814 22.3253C23.8922 22.1955 24.0366 22.0988 24.1987 22.0457C24.3609 21.9927 24.5345 21.9853 24.7006 22.0245C24.8666 22.0637 25.0187 22.1479 25.14 22.2679L25.1645 22.2924C26.9671 19.9479 27.8398 17.0201 27.6149 14.0713C27.3899 11.1225 26.0833 8.3608 23.946 6.31683C21.8087 4.27285 18.9915 3.09075 16.0356 2.99765C13.0797 2.90454 10.1937 3.907 7.932 5.81242L7.709 7.21892C7.68247 7.38686 7.61014 7.54423 7.49996 7.67373C7.38978 7.80323 7.24603 7.89983 7.0845 7.95292ZM6.14 15.4999H5.64C5.5074 15.4999 5.38022 15.4472 5.28645 15.3535C5.19268 15.2597 5.14 15.1325 5.14 14.9999C5.14 14.8673 5.19268 14.7401 5.28645 14.6464C5.38022 14.5526 5.5074 14.4999 5.64 14.4999H6.14C6.27261 14.4999 6.39979 14.5526 6.49356 14.6464C6.58733 14.7401 6.64 14.8673 6.64 14.9999C6.64 15.1325 6.58733 15.2597 6.49356 15.3535C6.39979 15.4472 6.27261 15.4999 6.14 15.4999ZM25.14 14.4999H25.64C25.7726 14.4999 25.8998 14.5526 25.9935 14.6464C26.0873 14.7401 26.14 14.8673 26.14 14.9999C26.14 15.1325 26.0873 15.2597 25.9935 15.3535C25.8998 15.4472 25.7726 15.4999 25.64 15.4999H25.14C25.0074 15.4999 24.8802 15.4472 24.7864 15.3535C24.6926 15.2597 24.64 15.1325 24.64 14.9999C24.64 14.8673 24.6926 14.7401 24.7864 14.6464C24.8802 14.5526 25.0074 14.4999 25.14 14.4999ZM22.004 7.92892L22.358 7.57492C22.4041 7.52716 22.4593 7.48907 22.5203 7.46287C22.5813 7.43666 22.6469 7.42287 22.7133 7.42229C22.7797 7.42172 22.8455 7.43437 22.9069 7.45951C22.9684 7.48465 23.0242 7.52178 23.0712 7.56872C23.1181 7.61567 23.1552 7.67149 23.1804 7.73294C23.2055 7.79439 23.2182 7.86023 23.2176 7.92662C23.217 7.99301 23.2032 8.05862 23.177 8.11962C23.1508 8.18062 23.1127 8.2358 23.065 8.28192L22.711 8.63592C22.6167 8.727 22.4904 8.7774 22.3593 8.77626C22.2282 8.77512 22.1028 8.72253 22.0101 8.62983C21.9174 8.53712 21.8648 8.41172 21.8636 8.28062C21.8625 8.14952 21.9129 8.02322 22.004 7.92892ZM22.004 21.3639C22.0977 21.2702 22.2249 21.2175 22.3575 21.2175C22.49 21.2175 22.6172 21.2702 22.711 21.3639L23.065 21.7179C23.1127 21.764 23.1508 21.8192 23.177 21.8802C23.2032 21.9412 23.217 22.0068 23.2176 22.0732C23.2182 22.1396 23.2055 22.2054 23.1804 22.2669C23.1552 22.3283 23.1181 22.3842 23.0712 22.4311C23.0242 22.4781 22.9684 22.5152 22.9069 22.5403C22.8455 22.5655 22.7797 22.5781 22.7133 22.5775C22.6469 22.577 22.5813 22.5632 22.5203 22.537C22.4593 22.5108 22.4041 22.4727 22.358 22.4249L22.004 22.0709C21.9102 21.9772 21.8576 21.85 21.8576 21.7174C21.8576 21.5848 21.9102 21.4577 22.004 21.3639ZM16.14 24.9999C16.14 25.1325 16.0873 25.2597 15.9935 25.3535C15.8998 25.4472 15.7726 25.4999 15.64 25.4999C15.5074 25.4999 15.3802 25.4472 15.2864 25.3535C15.1926 25.2597 15.14 25.1325 15.14 24.9999V24.4999C15.14 24.3673 15.1926 24.2401 15.2864 24.1464C15.3802 24.0526 15.5074 23.9999 15.64 23.9999C15.7726 23.9999 15.8998 24.0526 15.9935 24.1464C16.0873 24.2401 16.14 24.3673 16.14 24.4999V24.9999ZM15.14 4.99992C15.14 4.86731 15.1926 4.74013 15.2864 4.64637C15.3802 4.5526 15.5074 4.49992 15.64 4.49992C15.7726 4.49992 15.8998 4.5526 15.9935 4.64637C16.0873 4.74013 16.14 4.86731 16.14 4.99992V5.49992C16.14 5.63253 16.0873 5.7597 15.9935 5.85347C15.8998 5.94724 15.7726 5.99992 15.64 5.99992C15.5074 5.99992 15.3802 5.94724 15.2864 5.85347C15.1926 5.7597 15.14 5.63253 15.14 5.49992V4.99992ZM15.14 13.0709V7.99992C15.14 7.86731 15.1926 7.74013 15.2864 7.64637C15.3802 7.5526 15.5074 7.49992 15.64 7.49992C15.7726 7.49992 15.8998 7.5526 15.9935 7.64637C16.0873 7.74013 16.14 7.86731 16.14 7.99992V13.0709C16.6397 13.1967 17.0709 13.512 17.3423 13.95C17.6138 14.388 17.7042 14.9144 17.5945 15.4179L18.8635 16.0499C18.9822 16.1092 19.0724 16.2132 19.1144 16.339C19.1564 16.4649 19.1467 16.6022 19.0875 16.7209C19.0282 16.8396 18.9242 16.9299 18.7984 16.9719C18.6725 17.0139 18.5352 17.0042 18.4165 16.9449L17.14 16.3089C16.9351 16.5453 16.6774 16.7302 16.3878 16.8486C16.0982 16.967 15.7848 17.0157 15.473 16.9905C15.1611 16.9654 14.8596 16.8672 14.5927 16.704C14.3258 16.5408 14.1011 16.317 13.9367 16.0508C13.7723 15.7846 13.6728 15.4835 13.6463 15.1718C13.6198 14.86 13.667 14.5465 13.7842 14.2564C13.9013 13.9663 14.0851 13.7078 14.3206 13.5019C14.5561 13.2959 14.8368 13.1483 15.14 13.0709ZM8.215 7.57492C8.30877 7.48118 8.43592 7.42853 8.5685 7.42853C8.70109 7.42853 8.82824 7.48118 8.922 7.57492L9.276 7.92892C9.32376 7.97504 9.36185 8.03022 9.38806 8.09122C9.41426 8.15222 9.42805 8.21783 9.42863 8.28422C9.42921 8.35061 9.41656 8.41645 9.39142 8.4779C9.36627 8.53934 9.32915 8.59517 9.2822 8.64212C9.23526 8.68906 9.17943 8.72619 9.11798 8.75133C9.05653 8.77647 8.99069 8.78912 8.9243 8.78854C8.85791 8.78797 8.7923 8.77417 8.7313 8.74797C8.6703 8.72177 8.61513 8.68367 8.569 8.63592L8.215 8.28192C8.12127 8.18816 8.06861 8.061 8.06861 7.92842C8.06861 7.79584 8.12127 7.66868 8.215 7.57492ZM8.215 21.7179L8.569 21.3639C8.66331 21.2728 8.78961 21.2224 8.92071 21.2236C9.0518 21.2247 9.17721 21.2773 9.26991 21.37C9.36262 21.4627 9.4152 21.5881 9.41634 21.7192C9.41748 21.8503 9.36708 21.9766 9.276 22.0709L8.922 22.4249C8.87588 22.4727 8.82071 22.5108 8.75971 22.537C8.69871 22.5632 8.63309 22.577 8.56671 22.5775C8.50032 22.5781 8.43448 22.5655 8.37303 22.5403C8.31158 22.5152 8.25575 22.4781 8.20881 22.4311C8.16186 22.3842 8.12473 22.3283 8.09959 22.2669C8.07445 22.2054 8.0618 22.1396 8.06238 22.0732C8.06296 22.0068 8.07675 21.9412 8.10295 21.8802C8.12916 21.8192 8.16725 21.764 8.215 21.7179Z" fill="white"/>
</g>
</g>
<defs>
<clipPath id="clip0_2_44">
<rect width="30" height="30" fill="white" transform="translate(0.640137)"/>
</clipPath>
<clipPath id="clip1_2_44">
<rect width="30" height="30" fill="white" transform="translate(0.640137)"/>
</clipPath>
</defs>
</svg>
