<svg width="92" height="81" viewBox="0 0 92 81" fill="none" xmlns="http://www.w3.org/2000/svg">
<path d="M1 6.95117C1 4.74203 2.79086 2.95117 5 2.95117H67.2C69.4092 2.95117 71.2 4.74203 71.2 6.95117V35.5115C71.2 47.9413 65.275 59.6267 55.248 66.9724L38.4639 79.2682C37.0566 80.2992 35.1434 80.2992 33.7361 79.2682L16.9521 66.9724C6.92499 59.6267 1 47.9413 1 35.5115V6.95117Z" fill="#270F3A" stroke="#270F3A" stroke-width="1.5"/>
<path d="M1 5C1 2.79086 2.79086 1 5 1H67.2C69.4092 1 71.2 2.79086 71.2 5V33.5603C71.2 45.9901 65.275 57.6755 55.248 65.0213L38.4639 77.3171C37.0566 78.348 35.1434 78.348 33.7361 77.3171L16.9521 65.0212C6.92499 57.6755 1 45.9901 1 33.5603V5Z" fill="#9453C8" stroke="#270F3A" stroke-width="1.5"/>
<path d="M7.15723 11.8457C7.15723 9.63656 8.94809 7.8457 11.1572 7.8457H61.0427C63.2518 7.8457 65.0427 9.63656 65.0427 11.8457V31.2253C65.0427 43.6552 59.1177 55.3406 49.0906 62.6863L38.4639 70.4714C37.0565 71.5023 35.1434 71.5023 33.7361 70.4714L23.1093 62.6863C13.0822 55.3406 7.15723 43.6552 7.15723 31.2253V11.8457Z" fill="white" stroke="#270F3A" stroke-width="1.5"/>
<mask id="path-4-inside-1_25_22828" fill="white">
<path fill-rule="evenodd" clip-rule="evenodd" d="M33.1962 18.7207C31.5393 18.7207 30.1962 20.0638 30.1962 21.7207V28.5822H23.335C21.6781 28.5822 20.335 29.9253 20.335 31.5822V37.3897C20.335 39.0466 21.6781 40.3897 23.335 40.3897H30.1962V47.2506C30.1962 48.9075 31.5393 50.2506 33.1962 50.2506H39.0038C40.6606 50.2506 42.0038 48.9075 42.0038 47.2506V40.3897H48.8649C50.5217 40.3897 51.8649 39.0466 51.8649 37.3897V31.5822C51.8649 29.9253 50.5217 28.5822 48.8649 28.5822H42.0038V21.7207C42.0038 20.0638 40.6606 18.7207 39.0038 18.7207H33.1962Z"/>
</mask>
<path fill-rule="evenodd" clip-rule="evenodd" d="M33.1962 18.7207C31.5393 18.7207 30.1962 20.0638 30.1962 21.7207V28.5822H23.335C21.6781 28.5822 20.335 29.9253 20.335 31.5822V37.3897C20.335 39.0466 21.6781 40.3897 23.335 40.3897H30.1962V47.2506C30.1962 48.9075 31.5393 50.2506 33.1962 50.2506H39.0038C40.6606 50.2506 42.0038 48.9075 42.0038 47.2506V40.3897H48.8649C50.5217 40.3897 51.8649 39.0466 51.8649 37.3897V31.5822C51.8649 29.9253 50.5217 28.5822 48.8649 28.5822H42.0038V21.7207C42.0038 20.0638 40.6606 18.7207 39.0038 18.7207H33.1962Z" fill="#9453C8"/>
<path d="M30.1962 28.5822V30.0822H31.6962V28.5822H30.1962ZM30.1962 40.3897H31.6962V38.8897H30.1962V40.3897ZM42.0038 40.3897V38.8897H40.5038V40.3897H42.0038ZM42.0038 28.5822H40.5038V30.0822H42.0038V28.5822ZM31.6962 21.7207C31.6962 20.8923 32.3677 20.2207 33.1962 20.2207V17.2207C30.7109 17.2207 28.6962 19.2354 28.6962 21.7207H31.6962ZM31.6962 28.5822V21.7207H28.6962V28.5822H31.6962ZM23.335 30.0822H30.1962V27.0822H23.335V30.0822ZM21.835 31.5822C21.835 30.7537 22.5065 30.0822 23.335 30.0822V27.0822C20.8497 27.0822 18.835 29.0969 18.835 31.5822H21.835ZM21.835 37.3897V31.5822H18.835V37.3897H21.835ZM23.335 38.8897C22.5065 38.8897 21.835 38.2182 21.835 37.3897H18.835C18.835 39.875 20.8497 41.8897 23.335 41.8897V38.8897ZM30.1962 38.8897H23.335V41.8897H30.1962V38.8897ZM31.6962 47.2506V40.3897H28.6962V47.2506H31.6962ZM33.1962 48.7506C32.3677 48.7506 31.6962 48.079 31.6962 47.2506H28.6962C28.6962 49.7359 30.7109 51.7506 33.1962 51.7506V48.7506ZM39.0038 48.7506H33.1962V51.7506H39.0038V48.7506ZM40.5038 47.2506C40.5038 48.079 39.8322 48.7506 39.0038 48.7506V51.7506C41.489 51.7506 43.5038 49.7359 43.5038 47.2506H40.5038ZM40.5038 40.3897V47.2506H43.5038V40.3897H40.5038ZM48.8649 38.8897H42.0038V41.8897H48.8649V38.8897ZM50.3649 37.3897C50.3649 38.2182 49.6933 38.8897 48.8649 38.8897V41.8897C51.3501 41.8897 53.3649 39.875 53.3649 37.3897H50.3649ZM50.3649 31.5822V37.3897H53.3649V31.5822H50.3649ZM48.8649 30.0822C49.6933 30.0822 50.3649 30.7537 50.3649 31.5822H53.3649C53.3649 29.0969 51.3502 27.0822 48.8649 27.0822V30.0822ZM42.0038 30.0822H48.8649V27.0822H42.0038V30.0822ZM40.5038 21.7207V28.5822H43.5038V21.7207H40.5038ZM39.0038 20.2207C39.8322 20.2207 40.5038 20.8923 40.5038 21.7207H43.5038C43.5038 19.2354 41.489 17.2207 39.0038 17.2207V20.2207ZM33.1962 20.2207H39.0038V17.2207H33.1962V20.2207Z" fill="#270F3A" mask="url(#path-4-inside-1_25_22828)"/>
<path d="M91.2361 49.7777C91.2422 47.1915 90.3115 44.6907 88.6162 42.7377C86.9209 40.7848 84.5757 39.5118 82.0144 39.1544C79.453 38.7969 76.8489 39.3791 74.6837 40.7933C72.5185 42.2075 70.9387 44.3579 70.2364 46.8469C69.5883 44.5428 68.186 42.5227 66.2538 41.11C64.3216 39.6973 61.9713 38.9737 59.5792 39.055C53.7661 39.2536 49.2247 44.1899 49.2247 50.0102C49.2214 51.1112 49.3923 52.2058 49.7309 53.2534C51.0243 57.2014 55.4664 66.7373 70.2243 79.0488C70.2243 79.0488 88.4361 64.274 90.9236 52.207C90.96 52.0496 90.9963 51.897 91.0278 51.7396C91.0593 51.5821 91.2361 50.296 91.2361 49.7777Z" fill="#FF8C66" stroke="#270F3A" stroke-width="1.5" stroke-linecap="round" stroke-linejoin="round"/>
<path d="M91.2361 49.7777C91.2422 47.1915 90.3115 44.6907 88.6162 42.7377C86.9209 40.7848 84.5757 39.5118 82.0144 39.1544C79.453 38.7969 76.8489 39.3791 74.6837 40.7933C72.5185 42.2075 70.9387 44.3579 70.2364 46.8469C69.5883 44.5428 68.186 42.5227 66.2538 41.11C64.3216 39.6973 61.9713 38.9737 59.5792 39.055C53.7661 39.2536 49.2247 44.1899 49.2247 50.0102C49.2214 51.1112 49.3923 52.2058 49.7309 53.2534C51.0243 57.2014 55.4664 66.7373 70.2243 79.0488C70.2243 79.0488 88.4361 64.274 90.9236 52.207C90.96 52.0496 90.9963 51.897 91.0278 51.7396C91.0593 51.5821 91.2361 50.296 91.2361 49.7777Z" fill="#FF8C66" stroke="#270F3A" stroke-width="1.5" stroke-linecap="round" stroke-linejoin="round"/>
</svg>
