<svg width="80" height="80" viewBox="0 0 80 80" fill="none" xmlns="http://www.w3.org/2000/svg">
<g clip-path="url(#clip0_25_22761)">
<path d="M58.6934 25.391C57.4536 30.2271 54.9447 39.973 54.8269 40.2676L48.2724 39.8993L44.9214 34.2654L46.9099 27.8949C47.6709 26.6798 49.2592 24.1979 49.5244 23.9917C49.7895 23.7855 50.9114 23.2184 51.4392 22.9606L53.5749 21.4509L56.7785 22.3714L58.6934 25.391Z" fill="white"/>
<path d="M45.9272 30.8075C39.7562 35.3709 35.7497 54.8685 35.7497 54.8685C35.7497 54.8685 22.1099 57.8335 23.0525 62.3036C23.995 66.7738 32.6442 64.6949 37.4806 64.5345L44.8596 71.9135L65.9464 50.8267L59.952 44.8323C60.4958 40.9897 60.0369 30.5155 59.8116 26.6237C59.7793 26.0585 59.5739 25.5179 59.2233 25.0751C58.8728 24.6323 58.394 24.3087 57.8518 24.1482C53.368 22.8216 52.1826 35.8694 52.1826 35.8694" fill="white"/>
<path d="M46.3529 30.3846C40.0874 35.0101 36.0652 54.8348 36.0652 54.8348C36.0652 54.8348 22.1964 57.8127 23.1701 62.3634C24.1439 66.9141 32.9357 64.8235 37.8548 64.6751L44.4235 71.2438M65.222 50.4453L59.8833 45.1066C60.4257 41.1987 60.3189 30.6259 60.0787 26.6657C60.0434 26.0905 59.8323 25.54 59.4741 25.0886C59.1159 24.6372 58.6277 24.3066 58.0756 24.1416C53.511 22.7802 52.7273 35.5461 52.7273 35.5461" stroke="#270F3A" stroke-width="1.5" stroke-linecap="round" stroke-linejoin="round"/>
<path d="M45.2701 38.6219C45.2701 38.6219 45.709 25.0841 51.0391 23.3308" stroke="#270F3A" stroke-width="1.5" stroke-linecap="round" stroke-linejoin="round"/>
<path d="M48.9661 36.5674C48.9661 36.5674 48.5122 25.2432 51.7625 22.6665C54.0809 20.3481 56.752 23.2569 56.9036 23.9317" stroke="#270F3A" stroke-width="1.5" stroke-linecap="round" stroke-linejoin="round"/>
<path d="M53.7503 35.5592C47.1143 35.9319 42.6426 40.9267 42.6426 40.9267" stroke="#270F3A" stroke-width="1.5" stroke-linecap="round" stroke-linejoin="round"/>
<rect x="42.1798" y="74.0908" width="35.5804" height="8.81375" rx="3.25" transform="rotate(-45 42.1798 74.0908)" fill="#270F3A" stroke="#270F3A" stroke-width="1.5"/>
<rect x="40.2198" y="72.1299" width="35.5804" height="10.4805" rx="3.25" transform="rotate(-45 40.2198 72.1299)" fill="#9453C8" stroke="#270F3A" stroke-width="1.5"/>
<circle cx="47.8429" cy="72.6992" r="1.51752" transform="rotate(-45 47.8429 72.6992)" fill="#270F3A"/>
<path d="M15.2881 54.4385C16.3775 50.1886 18.5823 41.6241 18.6858 41.3652L24.4458 41.6888L27.3905 46.6398L25.6431 52.238C24.9744 53.3059 23.5786 55.4869 23.3456 55.6681C23.1126 55.8494 22.1267 56.3477 21.6629 56.5742L19.7861 57.9009L16.9708 57.092L15.2881 54.4385Z" fill="white"/>
<path d="M27.0801 49.0636C33.2511 44.5002 37.2577 25.0026 37.2577 25.0026C37.2577 25.0026 50.8974 22.0376 49.9548 17.5675C49.0123 13.0973 40.3631 15.1762 35.5267 15.3366L28.1477 7.95759L7.0609 29.0444L13.0553 35.0388C12.5115 38.8814 12.9704 49.3556 13.1957 53.2474C13.2281 53.8126 13.4334 54.3532 13.784 54.796C14.1345 55.2388 14.6133 55.5624 15.1555 55.7229C19.6393 57.0495 20.8247 44.0017 20.8247 44.0017" fill="white"/>
<path d="M26.6539 49.4877C32.9194 44.8622 36.9416 25.0375 36.9416 25.0375C36.9416 25.0375 50.8105 22.0596 49.8367 17.5089C48.8629 12.9582 40.0712 15.0488 35.1521 15.1972L28.5833 8.62848M7.78483 29.427L13.1235 34.7657C12.5811 38.6736 12.6879 49.2464 12.9281 53.2066C12.9635 53.7818 13.1745 54.3323 13.5327 54.7837C13.891 55.2351 14.3791 55.5657 14.9312 55.7307C19.4958 57.0921 20.2795 44.3262 20.2795 44.3262" stroke="#270F3A" stroke-width="1.5" stroke-linecap="round" stroke-linejoin="round"/>
<path d="M27.7357 41.2509C27.7357 41.2509 27.2969 54.7887 21.9667 56.542" stroke="#270F3A" stroke-width="1.5" stroke-linecap="round" stroke-linejoin="round"/>
<path d="M24.0418 43.304C24.0418 43.304 24.4956 54.6281 21.2453 57.2049C18.9269 59.5233 16.2558 56.6144 16.1042 55.9396" stroke="#270F3A" stroke-width="1.5" stroke-linecap="round" stroke-linejoin="round"/>
<path d="M19.2566 44.3116C25.8926 43.939 30.3643 38.9441 30.3643 38.9441" stroke="#270F3A" stroke-width="1.5" stroke-linecap="round" stroke-linejoin="round"/>
<rect x="30.8275" y="5.77979" width="35.5804" height="8.81375" rx="3.25" transform="rotate(135 30.8275 5.77979)" fill="#270F3A" stroke="#270F3A" stroke-width="1.5"/>
<rect x="32.7885" y="7.74023" width="35.5804" height="10.4805" rx="3.25" transform="rotate(135 32.7885 7.74023)" fill="#FF8C66" stroke="#270F3A" stroke-width="1.5"/>
<circle cx="25.1645" cy="7.17041" r="1.51752" transform="rotate(135 25.1645 7.17041)" fill="#270F3A"/>
</g>
<defs>
<clipPath id="clip0_25_22761">
<rect width="79.9997" height="80" fill="white"/>
</clipPath>
</defs>
</svg>
