<svg width="60" height="80" viewBox="0 0 60 80" fill="none" xmlns="http://www.w3.org/2000/svg">
<rect x="22.5986" y="66.3779" width="14.5818" height="12.8723" rx="6.43615" fill="#9453C8" stroke="#270F3A" stroke-width="1.5"/>
<rect x="18.7998" y="55.1309" width="22.1792" height="17.6933" rx="4.25" fill="#FF8C66" stroke="#270F3A" stroke-width="1.5"/>
<mask id="mask0_82_20307" style="mask-type:alpha" maskUnits="userSpaceOnUse" x="18" y="54" width="24" height="20">
<rect x="18.7998" y="55.1309" width="22.1792" height="17.6933" rx="4.25" fill="#270F3A" stroke="#270F3A" stroke-width="1.5"/>
</mask>
<g mask="url(#mask0_82_20307)">
<path d="M42.7897 47.3195C43.7851 51.0345 37.555 55.9316 28.8742 58.2576C20.1935 60.5836 12.3494 59.4576 11.354 55.7427" stroke="#270F3A" stroke-width="1.5"/>
<path d="M44.0671 52.0881C45.0625 55.803 38.8323 60.7002 30.1516 63.0262C21.4708 65.3522 13.6268 64.2262 12.6313 60.5112" stroke="#270F3A" stroke-width="1.5"/>
<path d="M45.3449 56.8556C46.3403 60.5706 40.1101 65.4678 31.4294 67.7938C22.7487 70.1197 14.9046 68.9938 13.9092 65.2788" stroke="#270F3A" stroke-width="1.5"/>
<path d="M46.6222 61.6232C47.6177 65.3382 41.3875 70.2353 32.7068 72.5613C24.026 74.8873 16.1819 73.7613 15.1865 70.0464" stroke="#270F3A" stroke-width="1.5"/>
</g>
<circle cx="29.8895" cy="29.8895" r="29.1395" fill="white" stroke="#270F3A" stroke-width="1.5"/>
<g clip-path="url(#clip0_82_20307)">
<path d="M33.5039 67.8078H33.1445C33.1445 56.7679 33.7878 49.8393 35.3007 44.6751C35.6791 43.3381 36.1857 42.0407 36.8137 40.8011C34.239 39.9468 31.8758 38.5539 29.8814 36.7151C27.8881 38.5535 25.5262 39.9464 22.9528 40.8011C23.5808 42.0407 24.0874 43.3381 24.4657 44.6751C25.9751 49.8501 26.622 56.7679 26.622 67.8078H26.2626C26.2626 56.8039 25.6229 49.9148 24.1243 44.7758C23.7447 43.4382 23.2331 42.1417 22.597 40.9053C22.2589 41.001 21.9158 41.0777 21.5692 41.1353C17.9755 41.7391 15.8588 40.6969 15.1006 39.5218C14.8415 39.1273 14.7074 38.6639 14.7157 38.1921C14.724 37.7202 14.8744 37.2619 15.1473 36.8768C15.4163 36.4896 15.7941 36.1908 16.2329 36.0181C16.6716 35.8454 17.1517 35.8066 17.6126 35.9065C19.1794 36.1437 21.1488 37.5021 22.7767 40.4957C25.3139 39.6638 27.6426 38.296 29.6047 36.4851C29.2223 36.1118 28.878 35.7013 28.5769 35.2596C26.8843 32.6901 26.9849 30.4728 27.6426 29.251C27.8505 28.8415 28.1677 28.4977 28.5591 28.2575C28.9505 28.0173 29.4007 27.8901 29.8599 27.8901C30.3191 27.8901 30.7693 28.0173 31.1607 28.2575C31.5521 28.4977 31.8693 28.8415 32.0772 29.251C32.7348 30.4728 32.8355 32.6901 31.1428 35.2596C30.8418 35.7013 30.4975 36.1118 30.115 36.4851C32.0772 38.296 34.4059 39.6638 36.9431 40.4957C38.571 37.5021 40.5368 36.1437 42.1072 35.9065C42.5744 35.7968 43.0638 35.8308 43.5114 36.0039C43.959 36.177 44.3439 36.4813 44.6156 36.8768C44.895 37.2618 45.0509 37.7226 45.0624 38.1982C45.074 38.6738 44.9407 39.1416 44.6803 39.5397C43.9149 40.7149 41.8054 41.757 38.2116 41.1533C37.8638 41.0961 37.5195 41.0193 37.1803 40.9233C36.5374 42.1554 36.0186 43.4483 35.6314 44.7829C34.14 49.9148 33.5039 56.8039 33.5039 67.8078ZM37.342 40.5819C37.651 40.6646 37.9565 40.7328 38.2548 40.7832C41.6939 41.3546 43.6633 40.4058 44.3641 39.3277C44.5882 38.9885 44.7023 38.5883 44.6907 38.1819C44.6791 37.7754 44.5425 37.3824 44.2994 37.0565C44.0672 36.728 43.743 36.4756 43.3676 36.3311C42.9922 36.1865 42.5824 36.1564 42.1899 36.2443C40.7919 36.4563 38.916 37.7429 37.342 40.5819ZM17.1346 36.212C16.8054 36.1971 16.478 36.267 16.1835 36.4148C15.889 36.5627 15.6374 36.7836 15.4527 37.0565C15.2096 37.3824 15.073 37.7754 15.0614 38.1819C15.0498 38.5883 15.1639 38.9885 15.388 39.3277C16.1068 40.4058 18.0689 41.3546 21.4973 40.7832C21.7956 40.7328 22.1011 40.6646 22.4137 40.5819C20.8361 37.7429 18.9602 36.4563 17.5622 36.2443C17.4207 36.2233 17.2777 36.2124 17.1346 36.212ZM29.8814 28.2304C29.4865 28.2274 29.0987 28.3357 28.7625 28.5429C28.4263 28.7501 28.1552 29.0478 27.9804 29.4019C27.2185 30.8394 27.5779 33.0351 28.9004 35.044C29.1878 35.4671 29.5164 35.8608 29.8814 36.2192C30.2475 35.8594 30.5773 35.4646 30.8661 35.0404C32.185 33.0351 32.548 30.825 31.7825 29.4019C31.608 29.0475 31.337 28.7495 31.0007 28.5423C30.6644 28.3351 30.2765 28.2269 29.8814 28.2304Z" fill="#270F3A" stroke="#270F3A"/>
</g>
<defs>
<clipPath id="clip0_82_20307">
<rect width="32.7885" height="33.5882" fill="white" transform="translate(13.4951 25.3911)"/>
</clipPath>
</defs>
</svg>
