<svg width="108" height="81" viewBox="0 0 108 81" fill="none" xmlns="http://www.w3.org/2000/svg">
<path d="M46.6929 30.5605H96.8096C101.228 30.5605 104.81 34.1423 104.81 38.5605V75.6074C104.81 77.4625 102.503 78.318 101.293 76.9114L96.0677 70.8353C95.4978 70.1726 94.6672 69.7914 93.7932 69.7914H46.6929C42.2746 69.7914 38.6929 66.2097 38.6929 61.7914V38.5605C38.6929 34.1423 42.2746 30.5605 46.6929 30.5605Z" fill="#270F3A" stroke="#270F3A" stroke-width="1.5" stroke-linecap="round"/>
<path d="M48.3897 28.2212H98.5063C102.925 28.2212 106.506 31.8029 106.506 36.2212V73.268C106.506 75.1232 104.2 75.9787 102.99 74.5721L97.7645 68.4959C97.1946 67.8333 96.364 67.4521 95.4899 67.4521H48.3897C43.9714 67.4521 40.3897 63.8703 40.3897 59.4521V36.2212C40.3897 31.8029 43.9714 28.2212 48.3897 28.2212Z" fill="white" stroke="#270F3A" stroke-width="1.5" stroke-linecap="round"/>
<path d="M86.4883 49.449C86.4883 48.6633 86.7213 47.8953 87.1578 47.242C87.5943 46.5888 88.2147 46.0796 88.9405 45.7789C89.6664 45.4783 90.4651 45.3996 91.2357 45.5529C92.0063 45.7062 92.7141 46.0845 93.2696 46.6401C93.8252 47.1956 94.2035 47.9034 94.3568 48.674C94.5101 49.4446 94.4314 50.2433 94.1307 50.9691C93.8301 51.695 93.3209 52.3154 92.6677 52.7519C92.0144 53.1884 91.2464 53.4214 90.4607 53.4214C89.4083 53.4214 88.3991 53.0033 87.655 52.2592C86.9108 51.5151 86.4928 50.5058 86.4928 49.4535L86.4883 49.449Z" fill="#9453C8" stroke="#270F3A" stroke-width="1.5" stroke-miterlimit="10"/>
<path d="M69.4792 49.4493C69.4801 48.6647 69.7135 47.898 70.1501 47.246C70.5866 46.5941 71.2066 46.0862 71.9318 45.7866C72.6569 45.487 73.4546 45.409 74.224 45.5626C74.9934 45.7162 75.7 46.0945 76.2544 46.6496C76.8089 47.2047 77.1864 47.9117 77.3391 48.6813C77.4919 49.4509 77.413 50.2485 77.1126 50.9733C76.8121 51.698 76.3035 52.3175 75.6511 52.7533C74.9987 53.1891 74.2317 53.4217 73.4471 53.4217C72.9257 53.4217 72.4093 53.3189 71.9276 53.1192C71.4459 52.9195 71.0083 52.6269 70.6398 52.2579C70.2713 51.889 69.9791 51.451 69.7799 50.9691C69.5808 50.4872 69.4786 49.9707 69.4792 49.4493Z" fill="#9453C8" stroke="#270F3A" stroke-width="1.5" stroke-miterlimit="10"/>
<path d="M52.4629 49.449C52.4629 48.6633 52.6959 47.8953 53.1324 47.242C53.5689 46.5888 54.1893 46.0796 54.9151 45.7789C55.641 45.4783 56.4397 45.3996 57.2103 45.5529C57.9809 45.7062 58.6887 46.0845 59.2442 46.6401C59.7998 47.1956 60.1781 47.9034 60.3314 48.674C60.4847 49.4446 60.406 50.2433 60.1053 50.9691C59.8047 51.695 59.2955 52.3154 58.6423 52.7519C57.989 53.1884 57.221 53.4214 56.4353 53.4214C55.9136 53.4214 55.3971 53.3186 54.9151 53.119C54.4332 52.9194 53.9953 52.6268 53.6264 52.2579C53.2575 51.889 52.9649 51.4511 52.7653 50.9691C52.5657 50.4872 52.4629 49.9706 52.4629 49.449Z" fill="#9453C8" stroke="#270F3A" stroke-width="1.5" stroke-miterlimit="10"/>
<path d="M58.1167 1H9C4.58172 1 1 4.58172 1 9V46.0468C1 47.902 3.30672 48.7575 4.51637 47.3509L9.74185 41.2748C10.3118 40.6121 11.1424 40.2309 12.0164 40.2309H58.1167C62.535 40.2309 66.1167 36.6491 66.1167 32.2309V9C66.1167 4.58172 62.535 1 58.1167 1Z" fill="#FF8C66" stroke="#270F3A" stroke-width="1.5" stroke-linecap="round"/>
<path d="M20.5181 22.2278C20.5181 21.4421 20.2851 20.6741 19.8486 20.0208C19.4121 19.3676 18.7917 18.8584 18.0658 18.5578C17.34 18.2571 16.5412 18.1784 15.7707 18.3317C15.0001 18.485 14.2923 18.8633 13.7367 19.4189C13.1812 19.9744 12.8028 20.6822 12.6496 21.4528C12.4963 22.2234 12.575 23.0221 12.8756 23.748C13.1763 24.4738 13.6854 25.0942 14.3387 25.5307C14.992 25.9672 15.76 26.2002 16.5456 26.2002C17.598 26.2002 18.6073 25.7821 19.3514 25.038C20.0955 24.2939 20.5136 23.2846 20.5136 22.2323L20.5181 22.2278Z" fill="white" stroke="#270F3A" stroke-width="1.5" stroke-miterlimit="10"/>
<path d="M37.5272 22.2276C37.5263 21.443 37.2928 20.6763 36.8563 20.0244C36.4197 19.3724 35.7997 18.8646 35.0746 18.5649C34.3495 18.2653 33.5518 18.1873 32.7824 18.341C32.013 18.4946 31.3064 18.8728 30.7519 19.4279C30.1974 19.983 29.82 20.6901 29.6672 21.4596C29.5145 22.2292 29.5933 23.0268 29.8938 23.7516C30.1942 24.4764 30.7028 25.0958 31.3552 25.5316C32.0077 25.9674 32.7746 26.2 33.5592 26.2C34.0807 26.2 34.597 26.0972 35.0787 25.8975C35.5604 25.6979 35.998 25.4052 36.3666 25.0362C36.7351 24.6673 37.0273 24.2294 37.2264 23.7474C37.4255 23.2655 37.5277 22.7491 37.5272 22.2276Z" fill="white" stroke="#270F3A" stroke-width="1.5" stroke-miterlimit="10"/>
<path d="M54.5434 22.2278C54.5434 21.4421 54.3105 20.6741 53.874 20.0208C53.4375 19.3676 52.8171 18.8584 52.0912 18.5578C51.3653 18.2571 50.5666 18.1784 49.7961 18.3317C49.0255 18.485 48.3177 18.8633 47.7621 19.4189C47.2066 19.9744 46.8282 20.6822 46.675 21.4528C46.5217 22.2234 46.6004 23.0221 46.901 23.748C47.2017 24.4738 47.7108 25.0942 48.3641 25.5307C49.0173 25.9672 49.7854 26.2002 50.571 26.2002C51.0927 26.2002 51.6093 26.0974 52.0912 25.8978C52.5732 25.6982 53.0111 25.4056 53.38 25.0367C53.7488 24.6678 54.0414 24.2299 54.2411 23.748C54.4407 23.266 54.5434 22.7494 54.5434 22.2278Z" fill="white" stroke="#270F3A" stroke-width="1.5" stroke-miterlimit="10"/>
</svg>
