<svg width="63" height="80" viewBox="0 0 63 80" fill="none" xmlns="http://www.w3.org/2000/svg">
<path d="M14.4624 47.9497C14.4624 46.8451 15.3578 45.9497 16.4624 45.9497H46.5127C47.6173 45.9497 48.5127 46.8451 48.5127 47.9497V76.9023C48.5127 78.3548 47.0133 79.3229 45.6896 78.7251L32.3107 72.683C31.7874 72.4467 31.1877 72.4467 30.6644 72.683L17.2856 78.7251C15.9618 79.3229 14.4624 78.3548 14.4624 76.9023V47.9497Z" fill="#270F3A"/>
<circle cx="31.4874" cy="33.4874" r="30.7374" fill="#270F3A" stroke="#270F3A" stroke-width="1.5"/>
<circle cx="31.4874" cy="31.4874" r="30.7374" fill="#9453C8" stroke="#270F3A" stroke-width="1.5"/>
<circle cx="31.4873" cy="31.4873" r="24.2691" fill="white" stroke="#270F3A" stroke-width="1.5"/>
<path d="M31.0556 15.3873C31.2484 15.0562 31.7268 15.0562 31.9197 15.3873L36.8215 23.8032C36.8921 23.9245 37.0105 24.0105 37.1477 24.0402L46.6664 26.1014C47.0409 26.1825 47.1888 26.6375 46.9334 26.9233L40.4442 34.1858C40.3507 34.2905 40.3055 34.4296 40.3196 34.5693L41.3007 44.2591C41.3393 44.6403 40.9523 44.9215 40.6016 44.767L31.6892 40.8396C31.5608 40.783 31.4144 40.783 31.286 40.8396L22.3736 44.767C22.023 44.9215 21.6359 44.6403 21.6745 44.2591L22.6556 34.5693C22.6698 34.4296 22.6246 34.2905 22.531 34.1858L16.0418 26.9233C15.7865 26.6375 15.9343 26.1825 16.3088 26.1014L25.8275 24.0402C25.9647 24.0105 26.0831 23.9245 26.1538 23.8032L31.0556 15.3873Z" fill="#FF8C66" stroke="#270F3A" stroke-width="1.5"/>
</svg>
