<svg width="60" height="80" viewBox="0 0 60 80" fill="none" xmlns="http://www.w3.org/2000/svg">
<path d="M5.84265 44.8773C5.84265 44.8773 -3.47356 34.3347 3.73729 26.6344C10.9481 18.934 28.0542 17.6971 28.0542 10.2863C28.0542 2.8754 37.2388 -6.25133 40.9337 10.2863C53.8132 -6.99873 70.0403 23.1079 46.0497 26.866L13.943 47.509L5.84265 44.8826V44.8773Z" fill="#FF8C66" stroke="#270F3A" stroke-width="1.5" stroke-linecap="round" stroke-linejoin="round"/>
<path d="M30.2662 64.55L32.061 76.8848C32.061 76.8848 23.4647 80.0483 16.0539 78.6377V56.4709C0.532131 59.8185 1.00057 39.6807 15.0012 43.2388C15.0012 43.2388 9.00094 29.3013 19.7646 28.7749C30.5282 28.2486 46.05 28.7749 46.05 28.7749C46.05 28.7749 52.7555 36.8911 54.5188 49.7654C56.282 62.6396 51.6145 67.3712 30.2715 64.55H30.2662Z" fill="#270F3A" stroke="#270F3A" stroke-width="1.5" stroke-linecap="round" stroke-linejoin="round"/>
<path d="M29.465 63.2096L31.2598 75.5444C31.2598 75.5444 23.4647 78.1445 16.0539 76.7339V54.5671C0.532131 57.9146 1.00057 37.7769 15.0012 41.3349C15.0012 41.3349 9.00094 27.3975 19.7646 26.8711C30.5282 26.3448 46.05 26.8711 46.05 26.8711C46.05 26.8711 52.7555 34.9873 54.5188 47.8616C56.282 60.7358 50.8134 66.0308 29.4703 63.2096H29.465Z" fill="white" stroke="#270F3A" stroke-width="1.5" stroke-linecap="round" stroke-linejoin="round"/>
<path d="M54.0928 40.7562C53.6454 40.7562 53.198 40.5667 52.8875 40.1983C50.2716 37.1034 47.1399 37.8929 47.0083 37.9297C46.1714 38.1508 45.303 37.6613 45.0714 36.8297C44.8398 35.9928 45.3135 35.1349 46.1451 34.8928C46.3556 34.8349 51.3243 33.4664 55.2929 38.1613C55.8561 38.8298 55.7719 39.8246 55.1087 40.3877C54.8139 40.6404 54.4507 40.7614 54.0876 40.7614L54.0928 40.7562Z" fill="#270F3A"/>
<path d="M30.4332 41.0243C30.17 41.0243 29.9068 40.9611 29.6594 40.819C28.9015 40.3927 28.6278 39.4294 29.0594 38.6663C29.1647 38.4768 31.749 34.0187 37.8703 34.5766C38.7388 34.6555 39.3809 35.424 39.302 36.2925C39.223 37.1609 38.4546 37.7978 37.5861 37.7241C33.4754 37.3504 31.828 40.1874 31.8122 40.219C31.5227 40.7348 30.9858 41.0243 30.4332 41.0243Z" fill="#270F3A"/>
<path d="M35.4916 44.4989C36.2707 44.4989 36.9022 43.8674 36.9022 43.0883C36.9022 42.3093 36.2707 41.6777 35.4916 41.6777C34.7126 41.6777 34.0811 42.3093 34.0811 43.0883C34.0811 43.8674 34.7126 44.4989 35.4916 44.4989Z" fill="#270F3A"/>
<path d="M49.5175 43.0883C50.2966 43.0883 50.9281 42.4567 50.9281 41.6777C50.9281 40.8986 50.2966 40.2671 49.5175 40.2671C48.7385 40.2671 48.1069 40.8986 48.1069 41.6777C48.1069 42.4567 48.7385 43.0883 49.5175 43.0883Z" fill="#270F3A"/>
<path d="M41.2544 40.856C41.2544 40.856 53.6023 44.7351 43.844 45.5614" stroke="#270F3A" stroke-width="1.5" stroke-linecap="round" stroke-linejoin="round"/>
<path d="M29.0872 51.1897C42.9875 52.114 50.6511 48.0609 53.6812 45.0433C54.2273 44.4995 55.2328 44.5813 55.5542 45.2819C65.1943 66.2937 38.7654 70.6816 32.0923 65.9158C26.6231 62.0099 27.8101 54.4709 29.0872 51.1897Z" fill="#9453C8" stroke="#270F3A" stroke-width="1.5"/>
<path d="M14.4517 40.5977L29.4534 51.6226" stroke="#270F3A" stroke-width="1.5"/>
<path d="M15.4756 54.6943L31.383 65.4043" stroke="#270F3A" stroke-width="1.5"/>
</svg>
