<svg width="124" height="124" viewBox="0 0 124 124" fill="none" xmlns="http://www.w3.org/2000/svg">
<path d="M-1 -1H99V79C99 90.0457 90.0457 99 79 99H-1V-1Z" fill="#FAFCFF"/>
<g clip-path="url(#clip0_2014_10)">
<g clip-path="url(#clip1_2014_10)">
<g clip-path="url(#clip2_2014_10)">
<path d="M99 24V-1H124C110.193 -1 99 10.1929 99 24Z" fill="#FAFCFF"/>
</g>
</g>
</g>
<g clip-path="url(#clip3_2014_10)">
<g clip-path="url(#clip4_2014_10)">
<g clip-path="url(#clip5_2014_10)">
<path d="M-1 124V99H24C10.1929 99 -1 110.193 -1 124Z" fill="#FAFCFF"/>
</g>
</g>
</g>
<defs>
<clipPath id="clip0_2014_10">
<rect width="25" height="25" fill="white" transform="matrix(0 -1 1 0 99 24)"/>
</clipPath>
<clipPath id="clip1_2014_10">
<rect width="25" height="25" fill="white" transform="matrix(0 -1 1 0 99 24)"/>
</clipPath>
<clipPath id="clip2_2014_10">
<rect width="25" height="25" fill="white" transform="matrix(0 -1 1 0 99 24)"/>
</clipPath>
<clipPath id="clip3_2014_10">
<rect width="25" height="25" fill="white" transform="matrix(0 -1 1 0 -1 124)"/>
</clipPath>
<clipPath id="clip4_2014_10">
<rect width="25" height="25" fill="white" transform="matrix(0 -1 1 0 -1 124)"/>
</clipPath>
<clipPath id="clip5_2014_10">
<rect width="25" height="25" fill="white" transform="matrix(0 -1 1 0 -1 124)"/>
</clipPath>
</defs>
</svg>
