<svg width="18" height="15" viewBox="0 0 18 15" fill="none" xmlns="http://www.w3.org/2000/svg">
<path fill-rule="evenodd" clip-rule="evenodd" d="M17.3346 5.00004C17.3346 5.00003 17.3346 5.00005 17.3346 5.00004C17.3346 2.23862 15.0961 0 12.3346 0C11.054 0 9.8859 0.48142 9.0013 1.27316C8.11671 0.48142 6.94856 0 5.66797 0C2.90654 0 0.667969 2.23858 0.667969 5C0.667969 4.99997 0.667969 5.00003 0.667969 5C0.667969 11.1259 6.22752 14.0051 8.26465 14.8545C8.73919 15.0523 9.2634 15.0523 9.738 14.8545C11.7751 14.0051 17.3346 11.126 17.3346 5.00004Z" fill="#60FFD2"/>
<path d="M17.1891 6.66667H13.2993L12.2658 4.25507C12.1344 3.94866 11.8332 3.75 11.4998 3.75C11.1664 3.75 10.8652 3.94866 10.7338 4.25507L8.9998 8.3012L8.51576 7.17173C8.38444 6.86533 8.08316 6.66667 7.7498 6.66667H0.810547C0.915377 7.25764 1.07405 7.8127 1.2754 8.3333H7.20031L8.23385 10.7449C8.36516 11.0513 8.66645 11.25 8.9998 11.25C9.3332 11.25 9.6344 11.0513 9.7658 10.7449L11.4998 6.69883L11.9838 7.8283C12.1152 8.1347 12.4164 8.3333 12.7498 8.3333H16.7242C16.9256 7.8127 17.0842 7.25764 17.1891 6.66667Z" fill="#1D6CEF"/>
</svg>
