<svg width="182" height="52" viewBox="0 0 182 52" fill="none" xmlns="http://www.w3.org/2000/svg">
<path d="M22.6846 4.88973C22.6846 4.30558 23.1581 3.83203 23.7422 3.83203H24.7474C25.3315 3.83203 25.8051 4.30558 25.8051 4.88973V5.89492C25.8051 6.47908 25.3315 6.95263 24.7474 6.95263H23.7422C23.1581 6.95263 22.6846 6.47908 22.6846 5.89492V4.88973Z" fill="#1D6CEF"/>
<path d="M27.3662 0.208793C27.3662 -0.375354 27.8398 -0.848907 28.424 -0.848907H30.9894C31.5735 -0.848907 32.0471 -0.375354 32.0471 0.208793V2.77427C32.0471 3.35843 31.5735 3.83197 30.9894 3.83197H28.424C27.8398 3.83197 27.3662 3.35843 27.3662 2.77427V0.208793Z" fill="#1D6CEF"/>
<path fill-rule="evenodd" clip-rule="evenodd" d="M17.2109 11.2573H12.934V7.3286H18.1176C19.7865 7.3286 21.1395 8.68161 21.1395 10.3506V15.6466C21.1395 17.3157 19.7865 18.6686 18.1176 18.6686H13.7477L4.39983 28.0164L23.8681 47.4847L43.6903 28.0043L34.3545 18.6686H29.9848C28.3157 18.6686 26.9627 17.3157 26.9627 15.6466V10.3506C26.9627 8.68161 28.3157 7.3286 29.9848 7.3286H35.1682V11.2573H30.8914V14.74H34.7301C35.5315 14.74 36.3002 15.0585 36.867 15.6252L47.1148 25.8731C48.3023 27.0604 48.2939 28.9883 47.0963 30.1653L25.9807 50.9167C24.7977 52.0793 22.8986 52.0711 21.7257 50.8981L0.980826 30.1533C-0.199338 28.9731 -0.199337 27.0598 0.980826 25.8796L11.2353 15.6252C11.802 15.0585 12.5707 14.74 13.3721 14.74H17.2109V11.2573Z" fill="#60FFD2"/>
<path d="M33.1505 22.5556H15.6947C15.4254 22.5556 15.1661 22.6583 14.9698 22.843L9.47976 28.0102C9.02965 28.4338 9.03716 29.1514 9.49605 29.5656L23.901 42.5651C24.315 42.9387 24.9479 42.9267 25.3474 42.5378L38.7162 29.5207C39.1292 29.1187 39.1443 28.46 38.75 28.0395L33.9222 22.8899C33.7222 22.6766 33.4429 22.5556 33.1505 22.5556Z" fill="#1D6CEF"/>
<path d="M78.3359 33.8359H69.6406V28.3516H78.3359C79.6797 28.3516 80.7734 28.1328 81.6172 27.6953C82.4609 27.2422 83.0781 26.6172 83.4688 25.8203C83.8594 25.0234 84.0547 24.125 84.0547 23.125C84.0547 22.1094 83.8594 21.1641 83.4688 20.2891C83.0781 19.4141 82.4609 18.7109 81.6172 18.1797C80.7734 17.6484 79.6797 17.3828 78.3359 17.3828H72.0781V46H65.0469V11.875H78.3359C81.0078 11.875 83.2969 12.3594 85.2031 13.3281C87.125 14.2813 88.5938 15.6016 89.6094 17.2891C90.625 18.9766 91.1328 20.9062 91.1328 23.0781C91.1328 25.2812 90.625 27.1875 89.6094 28.7969C88.5938 30.4062 87.125 31.6484 85.2031 32.5234C83.2969 33.3984 81.0078 33.8359 78.3359 33.8359ZM105.969 17.7109L96.6875 46H89.2109L101.891 11.875H106.648L105.969 17.7109ZM113.68 46L104.375 17.7109L103.625 11.875H108.43L121.18 46H113.68ZM113.258 33.2969V38.8047H95.2344V33.2969H113.258ZM143.703 34.6797H150.711C150.57 36.9766 149.938 39.0156 148.812 40.7969C147.703 42.5781 146.148 43.9688 144.148 44.9688C142.164 45.9688 139.773 46.4688 136.977 46.4688C134.789 46.4688 132.828 46.0938 131.094 45.3438C129.359 44.5781 127.875 43.4844 126.641 42.0625C125.422 40.6406 124.492 38.9219 123.852 36.9062C123.211 34.8906 122.891 32.6328 122.891 30.1328V27.7656C122.891 25.2656 123.219 23.0078 123.875 20.9922C124.547 18.9609 125.5 17.2344 126.734 15.8125C127.984 14.3906 129.477 13.2969 131.211 12.5312C132.945 11.7656 134.883 11.3828 137.023 11.3828C139.867 11.3828 142.266 11.8984 144.219 12.9297C146.188 13.9609 147.711 15.3828 148.789 17.1953C149.883 19.0078 150.539 21.0703 150.758 23.3828H143.727C143.648 22.0078 143.375 20.8438 142.906 19.8906C142.438 18.9219 141.727 18.1953 140.773 17.7109C139.836 17.2109 138.586 16.9609 137.023 16.9609C135.852 16.9609 134.828 17.1797 133.953 17.6172C133.078 18.0547 132.344 18.7188 131.75 19.6094C131.156 20.5 130.711 21.625 130.414 22.9844C130.133 24.3281 129.992 25.9062 129.992 27.7188V30.1328C129.992 31.8984 130.125 33.4531 130.391 34.7969C130.656 36.125 131.062 37.25 131.609 38.1719C132.172 39.0781 132.891 39.7656 133.766 40.2344C134.656 40.6875 135.727 40.9141 136.977 40.9141C138.445 40.9141 139.656 40.6797 140.609 40.2109C141.562 39.7422 142.289 39.0469 142.789 38.125C143.305 37.2031 143.609 36.0547 143.703 34.6797ZM173.094 37.0703C173.094 36.4609 173 35.9141 172.812 35.4297C172.641 34.9297 172.312 34.4766 171.828 34.0703C171.344 33.6484 170.664 33.2344 169.789 32.8281C168.914 32.4219 167.781 32 166.391 31.5625C164.844 31.0625 163.375 30.5 161.984 29.875C160.609 29.25 159.391 28.5234 158.328 27.6953C157.281 26.8516 156.453 25.875 155.844 24.7656C155.25 23.6562 154.953 22.3672 154.953 20.8984C154.953 19.4766 155.266 18.1875 155.891 17.0312C156.516 15.8594 157.391 14.8594 158.516 14.0312C159.641 13.1875 160.969 12.5391 162.5 12.0859C164.047 11.6328 165.742 11.4062 167.586 11.4062C170.102 11.4062 172.297 11.8594 174.172 12.7656C176.047 13.6719 177.5 14.9141 178.531 16.4922C179.578 18.0703 180.102 19.875 180.102 21.9062H173.117C173.117 20.9062 172.906 20.0312 172.484 19.2812C172.078 18.5156 171.453 17.9141 170.609 17.4766C169.781 17.0391 168.734 16.8203 167.469 16.8203C166.25 16.8203 165.234 17.0078 164.422 17.3828C163.609 17.7422 163 18.2344 162.594 18.8594C162.188 19.4688 161.984 20.1562 161.984 20.9219C161.984 21.5 162.125 22.0234 162.406 22.4922C162.703 22.9609 163.141 23.3984 163.719 23.8047C164.297 24.2109 165.008 24.5938 165.852 24.9531C166.695 25.3125 167.672 25.6641 168.781 26.0078C170.641 26.5703 172.273 27.2031 173.68 27.9062C175.102 28.6094 176.289 29.3984 177.242 30.2734C178.195 31.1484 178.914 32.1406 179.398 33.25C179.883 34.3594 180.125 35.6172 180.125 37.0234C180.125 38.5078 179.836 39.8359 179.258 41.0078C178.68 42.1797 177.844 43.1719 176.75 43.9844C175.656 44.7969 174.352 45.4141 172.836 45.8359C171.32 46.2578 169.625 46.4688 167.75 46.4688C166.062 46.4688 164.398 46.25 162.758 45.8125C161.117 45.3594 159.625 44.6797 158.281 43.7734C156.953 42.8672 155.891 41.7109 155.094 40.3047C154.297 38.8984 153.898 37.2344 153.898 35.3125H160.953C160.953 36.375 161.117 37.2734 161.445 38.0078C161.773 38.7422 162.234 39.3359 162.828 39.7891C163.438 40.2422 164.156 40.5703 164.984 40.7734C165.828 40.9766 166.75 41.0781 167.75 41.0781C168.969 41.0781 169.969 40.9062 170.75 40.5625C171.547 40.2188 172.133 39.7422 172.508 39.1328C172.898 38.5234 173.094 37.8359 173.094 37.0703Z" fill="white"/>
</svg>
