<svg width="31" height="31" viewBox="0 0 31 31" fill="none" xmlns="http://www.w3.org/2000/svg">
<g clip-path="url(#clip0_318_233)">
<path d="M15.5 0.5C10.2286 0.5 5.83203 4.74629 5.83203 10.168C5.83203 12.2306 6.45184 14.0698 7.64135 15.7933L14.7601 26.9015C15.1055 27.4415 15.8952 27.4405 16.2399 26.9015L23.3895 15.7555C24.5534 14.1102 25.168 12.1781 25.168 10.168C25.168 4.83705 20.8309 0.5 15.5 0.5ZM15.5 14.5625C13.077 14.5625 11.1055 12.591 11.1055 10.168C11.1055 7.74494 13.077 5.77344 15.5 5.77344C17.923 5.77344 19.8945 7.74494 19.8945 10.168C19.8945 12.591 17.923 14.5625 15.5 14.5625Z" fill="white"/>
<path d="M22.3709 20.697L17.9453 27.6162C16.7997 29.4022 14.1939 29.3964 13.0538 27.6179L8.62098 20.6988C4.72074 21.6006 2.31641 23.2525 2.31641 25.2266C2.31641 28.6521 9.10906 30.5 15.5 30.5C21.8909 30.5 28.6836 28.6521 28.6836 25.2266C28.6836 23.2511 26.2759 21.5983 22.3709 20.697Z" fill="white"/>
</g>
<defs>
<clipPath id="clip0_318_233">
<rect width="30" height="30" fill="white" transform="translate(0.5 0.5)"/>
</clipPath>
</defs>
</svg>
