<svg width="24" height="24" viewBox="0 0 24 24" fill="none" xmlns="http://www.w3.org/2000/svg">
<path d="M0.75 5.58008C0.75 2.81866 2.98858 0.580078 5.75 0.580078H18.25C21.0114 0.580078 23.25 2.81866 23.25 5.58008V18.0801C23.25 20.8415 21.0114 23.0801 18.25 23.0801H5.75C2.98858 23.0801 0.75 20.8415 0.75 18.0801V5.58008Z" fill="#1D6CEF"/>
<path fill-rule="evenodd" clip-rule="evenodd" d="M18.875 6.20508C19.5654 6.20508 20.125 5.64544 20.125 4.95508C20.125 4.26472 19.5654 3.70508 18.875 3.70508C18.1846 3.70508 17.625 4.26472 17.625 4.95508C17.625 5.64544 18.1846 6.20508 18.875 6.20508ZM9.5 11.8301C9.5 10.4494 10.6193 9.33008 12 9.33008C13.3807 9.33008 14.5 10.4494 14.5 11.8301C14.5 13.2108 13.3807 14.3301 12 14.3301C10.6193 14.3301 9.5 13.2108 9.5 11.8301ZM12 6.83008C9.2386 6.83008 7 9.06868 7 11.8301C7 14.5915 9.2386 16.8301 12 16.8301C14.7614 16.8301 17 14.5915 17 11.8301C17 9.06868 14.7614 6.83008 12 6.83008Z" fill="#60FFD2"/>
</svg>
