<svg width="26" height="21" viewBox="0 0 26 21" fill="none" xmlns="http://www.w3.org/2000/svg">
<path d="M0.715833 5.4282C0.867143 3.10125 2.66256 1.24952 4.98909 1.09184C7.01986 0.954218 9.7523 0.830078 13.002 0.830078C16.2516 0.830078 18.984 0.954218 21.0148 1.09184C23.3413 1.24952 25.1368 3.10125 25.2881 5.4282C25.4011 7.16568 25.502 9.17948 25.502 10.8301C25.502 12.4807 25.4011 14.4945 25.2881 16.232C25.1368 18.5589 23.3413 20.4107 21.0148 20.5683C18.984 20.706 16.2516 20.8301 13.002 20.8301C9.7523 20.8301 7.01986 20.706 4.98909 20.5683C2.66256 20.4107 0.867143 18.5589 0.715833 16.232C0.602853 14.4945 0.501953 12.4807 0.501953 10.8301C0.501953 9.17948 0.602853 7.16568 0.715833 5.4282Z" fill="#1D6CEF"/>
<path d="M10.5 8.33218C10.5 7.33558 11.6091 6.73978 12.4401 7.28988L16.1818 9.76738C16.9433 10.2716 16.9433 11.3895 16.1818 11.8936L12.44 14.3708C11.6091 14.9209 10.5 14.3251 10.5 13.3285V8.33218Z" fill="#60FFD2"/>
</svg>
