<svg width="26" height="21" viewBox="0 0 26 21" fill="none" xmlns="http://www.w3.org/2000/svg">
<path d="M22.998 5.83278V5.83058L25.3417 3.30147C25.7238 2.88925 25.3802 2.22511 24.823 2.2988L21.8865 2.68717C20.9699 1.55464 19.5685 0.830566 17.998 0.830566C15.2366 0.830566 12.998 3.06914 12.998 5.83058C12.998 6.48988 13.1256 7.11938 13.3574 7.69568C14.1157 9.58058 12.4437 12.7056 9.2477 15.8306C7.8286 17.2181 4.18063 17.5949 1.19536 17.3215C0.614449 17.2683 0.249759 17.9301 0.698989 18.3022C3.20215 20.3757 6.67387 20.8306 9.8728 20.8306C17.997 20.8306 23.6217 13.9568 22.998 5.83278Z" fill="#1D6CEF"/>
<path d="M9.2471 15.8302C3.55841 14.1236 0.976389 7.75708 2.44356 2.85704C2.60327 2.32363 3.32257 2.35238 3.57307 2.84967C5.75799 7.18718 10.2089 7.70518 13.6229 7.70518C21.1229 7.70518 19.2479 18.8305 9.2471 15.8302Z" fill="#60FFD2"/>
</svg>
