<svg width="26" height="26" viewBox="0 0 26 26" fill="none" xmlns="http://www.w3.org/2000/svg">
<path d="M13.002 25.3296C19.9055 25.3296 25.502 19.7332 25.502 12.8296C25.502 5.92603 19.9055 0.32959 13.002 0.32959C6.09839 0.32959 0.501953 5.92603 0.501953 12.8296C0.501953 19.7332 6.09839 25.3296 13.002 25.3296Z" fill="#1D6CEF"/>
<path d="M14.25 25.2679C13.8389 25.3087 13.4219 25.3296 13 25.3296C12.5781 25.3296 12.1611 25.3087 11.75 25.2679V15.3296H10.5C9.8096 15.3296 9.25 14.77 9.25 14.0796C9.25 13.3893 9.8096 12.8296 10.5 12.8296H11.75V10.3296C11.75 8.25848 13.4289 6.57959 15.5 6.57959H16.75C17.4404 6.57959 18 7.13924 18 7.82959C18 8.51998 17.4404 9.07958 16.75 9.07958H15.5C14.8096 9.07958 14.25 9.63928 14.25 10.3296V12.8296H16.75C17.4404 12.8296 18 13.3893 18 14.0796C18 14.77 17.4404 15.3296 16.75 15.3296H14.25V25.2679Z" fill="#60FFD2"/>
</svg>
