<svg width="21" height="20" viewBox="0 0 21 20" fill="none" xmlns="http://www.w3.org/2000/svg">
<path d="M6.88357 3.80304C7.34546 2.53914 7.57641 1.90719 7.77779 1.59759C9.05951 -0.373024 11.9448 -0.373024 13.2266 1.59759C13.428 1.90719 13.6589 2.53914 14.1208 3.80305L14.168 3.93222C14.208 4.04177 14.228 4.09655 14.2489 4.14544C14.5483 4.84677 15.2205 5.3168 15.982 5.35731C16.0351 5.36013 16.0935 5.36013 16.2101 5.36013H16.7081C17.0419 5.36013 17.2088 5.36013 17.2909 5.36428C20.3179 5.51745 21.5061 9.36469 19.0926 11.1981C19.0271 11.2478 18.8893 11.3419 18.6137 11.5301C18.5651 11.5633 18.5409 11.5799 18.5195 11.5952C17.8094 12.108 17.5155 13.0233 17.7945 13.8536C17.8028 13.8785 17.814 13.909 17.8363 13.97C18.0764 14.6272 18.1965 14.9558 18.238 15.1219C18.9136 17.8226 16.1025 20.0672 13.6183 18.8106C13.4655 18.7334 13.1885 18.5544 12.6345 18.1965L11.7913 17.6519C11.595 17.525 11.4968 17.4616 11.4004 17.4132C10.8353 17.1291 10.1691 17.1291 9.604 17.4132C9.5076 17.4616 9.4094 17.525 9.21301 17.6519L8.38689 18.1855C7.81915 18.5523 7.53527 18.7357 7.3785 18.8144C4.89813 20.0609 2.09767 17.8248 2.76427 15.1301C2.8064 14.9598 2.92905 14.6242 3.17433 13.9529C3.19781 13.8887 3.20955 13.8566 3.21844 13.83C3.49193 13.0111 3.20906 12.1091 2.51689 11.593C2.49441 11.5763 2.46883 11.5583 2.41768 11.5223C2.12943 11.3198 1.9853 11.2185 1.91608 11.164C-0.439295 9.31009 0.757085 5.52726 3.75013 5.3649C3.83809 5.36013 4.01425 5.36013 4.36658 5.36013H4.79749C4.91104 5.36013 4.96782 5.36013 5.0195 5.35746C5.78309 5.31791 6.45731 4.84647 6.75655 4.14285C6.7768 4.09523 6.79629 4.0419 6.83526 3.93525L6.88357 3.80304Z" fill="#266AFB"/>
</svg>
