<svg width="20" height="21" viewBox="0 0 20 21" fill="none" xmlns="http://www.w3.org/2000/svg">
<path fill-rule="evenodd" clip-rule="evenodd" d="M11 0.390015H9V4.47297C8.0882 4.62593 7.24622 4.98452 6.52323 5.49943L3.63602 2.61221L2.22181 4.02643L5.10909 6.91371C4.59436 7.63659 4.23589 8.47841 4.08296 9.39001H0V11.39H4.08296C4.23589 12.3016 4.59437 13.1434 5.10911 13.8663L2.22171 16.7537L3.63593 18.1679L6.52327 15.2806C7.24625 15.7955 8.0883 16.1541 9 16.307V20.39H11V16.307C11.9116 16.1541 12.7535 15.7956 13.4764 15.2808L16.3641 18.1685L17.7783 16.7543L14.8907 13.8666C15.4055 13.1437 15.7641 12.3017 15.917 11.39H20V9.39001H15.917C15.7641 8.47831 15.4055 7.63626 14.8906 6.91328L17.778 4.0259L16.3638 2.61169L13.4763 5.49912C12.7534 4.98438 11.9116 4.6259 11 4.47297V0.390015Z" fill="#1D6CEF"/>
<path fill-rule="evenodd" clip-rule="evenodd" d="M17.778 5.44026C18.1685 5.04973 18.1685 4.41657 17.778 4.02604L16.3638 2.61183C15.9733 2.2213 15.3401 2.22131 14.9496 2.61183C14.5591 3.00235 14.559 3.63552 14.9496 4.02604L16.3638 5.44026C16.7543 5.83078 17.3875 5.83078 17.778 5.44026ZM12 1.39038C12 0.838091 11.5523 0.390381 11 0.390381H9C8.4477 0.390381 8 0.838091 8 1.39038C8 1.94266 8.4477 2.39038 9 2.39038H11C11.5523 2.39038 12 1.94266 12 1.39038ZM19 12.3904C19.5523 12.3904 20 11.9427 20 11.3904V9.39041C20 8.83811 19.5523 8.39041 19 8.39041C18.4477 8.39041 18 8.83811 18 9.39041V11.3904C18 11.9427 18.4477 12.3904 19 12.3904ZM1 12.3904C1.55229 12.3904 2 11.9427 2 11.3904V9.39041C2 8.83811 1.55229 8.39041 1 8.39041C0.44772 8.39041 0 8.83811 0 9.39041V11.3904C0 11.9427 0.44772 12.3904 1 12.3904ZM11 18.3904C11.5523 18.3904 12 18.8381 12 19.3904C12 19.9427 11.5523 20.3904 11 20.3904H9C8.4477 20.3904 8 19.9427 8 19.3904C8 18.8381 8.4477 18.3904 9 18.3904H11ZM3.63606 5.44108C3.24554 5.83161 2.61237 5.83161 2.22185 5.44108C1.83133 5.05056 1.83133 4.41739 2.22185 4.02687L3.63606 2.61265C4.02659 2.22213 4.65975 2.22213 5.05028 2.61266C5.4408 3.00318 5.4408 3.63635 5.05028 4.02687L3.63606 5.44108ZM14.9499 18.1686C15.3404 18.5591 15.9736 18.5591 16.3641 18.1686L17.7783 16.7544C18.1688 16.3639 18.1688 15.7307 17.7783 15.3402C17.3878 14.9497 16.7546 14.9497 16.3641 15.3402L14.9499 16.7544C14.5594 17.1449 14.5594 17.7781 14.9499 18.1686ZM5.05022 16.7545C5.44074 17.1451 5.44074 17.7782 5.05022 18.1688C4.65969 18.5593 4.02653 18.5593 3.636 18.1688L2.22179 16.7545C1.83127 16.364 1.83127 15.7309 2.22179 15.3403C2.61231 14.9498 3.24548 14.9498 3.636 15.3403L5.05022 16.7545Z" fill="#60FFD2"/>
</svg>
