<svg width="30" height="30" viewBox="0 0 30 30" fill="none" xmlns="http://www.w3.org/2000/svg">
<path d="M14.9993 1.00001C13.4822 0.998168 11.975 1.24338 10.5368 1.72601C10.416 1.767 10.3151 1.85181 10.2539 1.96365C10.1927 2.0755 10.1757 2.20624 10.2063 2.33001C10.2224 2.39577 10.2522 2.45739 10.2937 2.51088C10.3353 2.56438 10.3876 2.60854 10.4473 2.64051C10.5103 2.67488 10.5798 2.6957 10.6514 2.70164C10.7229 2.70758 10.7949 2.69851 10.8628 2.67501C13.55 1.77127 16.4591 1.77107 19.1465 2.67443C21.834 3.57779 24.1522 5.33516 25.748 7.67863C27.3437 10.0221 28.1294 12.8231 27.9852 15.6546C27.841 18.4861 26.7748 21.1928 24.9493 23.362C24.9046 23.415 24.8494 23.4582 24.7872 23.4888C24.7249 23.5193 24.657 23.5366 24.5878 23.5395C24.5185 23.5431 24.4492 23.5319 24.3846 23.5067C24.3199 23.4816 24.2614 23.443 24.2128 23.3935L23.8978 23.0785L23.5153 25.486L25.9228 25.1035L25.6328 24.8135C25.5435 24.7242 25.4913 24.6043 25.4868 24.4781C25.4822 24.3518 25.5256 24.2286 25.6083 24.133C27.3577 22.1024 28.4874 19.6122 28.8629 16.9583C29.2385 14.3044 28.8442 11.5985 27.7269 9.1622C26.6096 6.72587 24.8162 4.66158 22.56 3.21468C20.3038 1.76777 17.6796 0.999095 14.9993 1.00001Z" fill="white"/>
<path d="M15 16C15.5523 16 16 15.5523 16 15C16 14.4477 15.5523 14 15 14C14.4477 14 14 14.4477 14 15C14 15.5523 14.4477 16 15 16Z" fill="white"/>
<path d="M14.9998 28.9999C16.5169 29.0018 18.0241 28.7566 19.4623 28.2739C19.5831 28.2329 19.684 28.1481 19.7452 28.0363C19.8064 27.9244 19.8234 27.7937 19.7928 27.6699C19.7767 27.6042 19.7469 27.5425 19.7053 27.489C19.6638 27.4356 19.6115 27.3914 19.5518 27.3594C19.4888 27.3251 19.4193 27.3042 19.3477 27.2983C19.2762 27.2923 19.2042 27.3014 19.1363 27.3249C16.4491 28.2287 13.54 28.2289 10.8525 27.3255C8.16514 26.4221 5.84684 24.6648 4.2511 22.3213C2.65535 19.9778 1.86969 17.1768 2.0139 14.3453C2.1581 11.5138 3.22426 8.80714 5.04984 6.63792C5.09449 6.58488 5.14969 6.54172 5.21192 6.51116C5.27416 6.4806 5.34207 6.46332 5.41133 6.46042C5.48049 6.45796 5.54941 6.46964 5.61389 6.49474C5.67837 6.51985 5.73705 6.55785 5.78633 6.60642L6.10134 6.92142L6.48384 4.51392L4.07633 4.89642L4.36633 5.18642C4.45562 5.27577 4.50778 5.39561 4.51233 5.52185C4.51687 5.64809 4.47347 5.77137 4.39083 5.86692C2.64137 7.89754 1.51171 10.3878 1.13614 13.0416C0.760576 15.6955 1.15488 18.4014 2.2722 20.8377C3.38952 23.2741 5.18287 25.3383 7.43909 26.7853C9.69531 28.2322 12.3195 29.0008 14.9998 28.9999Z" fill="white"/>
<path d="M6.44436 7.95292C6.28181 8.00633 6.1077 8.01396 5.9411 7.97498C5.7745 7.936 5.62184 7.8519 5.49986 7.73192L5.47536 7.70742C3.67276 10.0519 2.80008 12.9798 3.02498 15.9286C3.24988 18.8774 4.55651 21.639 6.69381 23.683C8.83112 25.727 11.6484 26.9091 14.6042 27.0022C17.5601 27.0953 20.4462 26.0928 22.7079 24.1874L22.9309 22.7814C22.9578 22.6129 23.0306 22.4551 23.1413 22.3253C23.2521 22.1955 23.3965 22.0988 23.5586 22.0457C23.7208 21.9927 23.8944 21.9853 24.0605 22.0245C24.2265 22.0637 24.3786 22.1479 24.4999 22.2679L24.5244 22.2924C26.327 19.9479 27.1997 17.0201 26.9748 14.0713C26.7498 11.1225 25.4432 8.3608 23.3059 6.31683C21.1686 4.27285 18.3514 3.09075 15.3955 2.99765C12.4396 2.90454 9.55357 3.907 7.29186 5.81242L7.06886 7.21892C7.04233 7.38686 6.97 7.54423 6.85982 7.67373C6.74964 7.80323 6.60589 7.89983 6.44436 7.95292ZM5.49986 15.4999H4.99986C4.86726 15.4999 4.74008 15.4472 4.64631 15.3535C4.55254 15.2597 4.49986 15.1325 4.49986 14.9999C4.49986 14.8673 4.55254 14.7401 4.64631 14.6464C4.74008 14.5526 4.86726 14.4999 4.99986 14.4999H5.49986C5.63247 14.4999 5.75965 14.5526 5.85342 14.6464C5.94719 14.7401 5.99986 14.8673 5.99986 14.9999C5.99986 15.1325 5.94719 15.2597 5.85342 15.3535C5.75965 15.4472 5.63247 15.4999 5.49986 15.4999ZM24.4999 14.4999H24.9999C25.1325 14.4999 25.2597 14.5526 25.3534 14.6464C25.4472 14.7401 25.4999 14.8673 25.4999 14.9999C25.4999 15.1325 25.4472 15.2597 25.3534 15.3535C25.2597 15.4472 25.1325 15.4999 24.9999 15.4999H24.4999C24.3673 15.4999 24.2401 15.4472 24.1463 15.3535C24.0525 15.2597 23.9999 15.1325 23.9999 14.9999C23.9999 14.8673 24.0525 14.7401 24.1463 14.6464C24.2401 14.5526 24.3673 14.4999 24.4999 14.4999ZM21.3639 7.92892L21.7179 7.57492C21.764 7.52716 21.8192 7.48907 21.8802 7.46287C21.9412 7.43666 22.0068 7.42287 22.0732 7.42229C22.1396 7.42172 22.2054 7.43437 22.2668 7.45951C22.3283 7.48465 22.3841 7.52178 22.4311 7.56872C22.478 7.61567 22.5151 7.67149 22.5403 7.73294C22.5654 7.79439 22.5781 7.86023 22.5775 7.92662C22.5769 7.99301 22.5631 8.05862 22.5369 8.11962C22.5107 8.18062 22.4726 8.2358 22.4249 8.28192L22.0709 8.63592C21.9766 8.727 21.8503 8.7774 21.7192 8.77626C21.5881 8.77512 21.4627 8.72253 21.37 8.62983C21.2773 8.53712 21.2247 8.41172 21.2235 8.28062C21.2224 8.14952 21.2728 8.02322 21.3639 7.92892ZM21.3639 21.3639C21.4576 21.2702 21.5848 21.2175 21.7174 21.2175C21.8499 21.2175 21.9771 21.2702 22.0709 21.3639L22.4249 21.7179C22.4726 21.764 22.5107 21.8192 22.5369 21.8802C22.5631 21.9412 22.5769 22.0068 22.5775 22.0732C22.5781 22.1396 22.5654 22.2054 22.5403 22.2669C22.5151 22.3283 22.478 22.3842 22.4311 22.4311C22.3841 22.4781 22.3283 22.5152 22.2668 22.5403C22.2054 22.5655 22.1396 22.5781 22.0732 22.5775C22.0068 22.577 21.9412 22.5632 21.8802 22.537C21.8192 22.5108 21.764 22.4727 21.7179 22.4249L21.3639 22.0709C21.2701 21.9772 21.2175 21.85 21.2175 21.7174C21.2175 21.5848 21.2701 21.4577 21.3639 21.3639ZM15.4999 24.9999C15.4999 25.1325 15.4472 25.2597 15.3534 25.3535C15.2597 25.4472 15.1325 25.4999 14.9999 25.4999C14.8673 25.4999 14.7401 25.4472 14.6463 25.3535C14.5525 25.2597 14.4999 25.1325 14.4999 24.9999V24.4999C14.4999 24.3673 14.5525 24.2401 14.6463 24.1464C14.7401 24.0526 14.8673 23.9999 14.9999 23.9999C15.1325 23.9999 15.2597 24.0526 15.3534 24.1464C15.4472 24.2401 15.4999 24.3673 15.4999 24.4999V24.9999ZM14.4999 4.99992C14.4999 4.86731 14.5525 4.74013 14.6463 4.64637C14.7401 4.5526 14.8673 4.49992 14.9999 4.49992C15.1325 4.49992 15.2597 4.5526 15.3534 4.64637C15.4472 4.74013 15.4999 4.86731 15.4999 4.99992V5.49992C15.4999 5.63253 15.4472 5.7597 15.3534 5.85347C15.2597 5.94724 15.1325 5.99992 14.9999 5.99992C14.8673 5.99992 14.7401 5.94724 14.6463 5.85347C14.5525 5.7597 14.4999 5.63253 14.4999 5.49992V4.99992ZM14.4999 13.0709V7.99992C14.4999 7.86731 14.5525 7.74013 14.6463 7.64637C14.7401 7.5526 14.8673 7.49992 14.9999 7.49992C15.1325 7.49992 15.2597 7.5526 15.3534 7.64637C15.4472 7.74013 15.4999 7.86731 15.4999 7.99992V13.0709C15.9996 13.1967 16.4308 13.512 16.7022 13.95C16.9737 14.388 17.0641 14.9144 16.9544 15.4179L18.2234 16.0499C18.3421 16.1092 18.4323 16.2132 18.4743 16.339C18.5163 16.4649 18.5066 16.6022 18.4474 16.7209C18.3881 16.8396 18.2841 16.9299 18.1583 16.9719C18.0324 17.0139 17.8951 17.0042 17.7764 16.9449L16.4999 16.3089C16.295 16.5453 16.0373 16.7302 15.7477 16.8486C15.4581 16.967 15.1447 17.0157 14.8329 16.9905C14.521 16.9654 14.2195 16.8672 13.9526 16.704C13.6857 16.5408 13.461 16.317 13.2966 16.0508C13.1322 15.7846 13.0327 15.4835 13.0062 15.1718C12.9797 14.86 13.0269 14.5465 13.1441 14.2564C13.2612 13.9663 13.445 13.7078 13.6805 13.5019C13.916 13.2959 14.1967 13.1483 14.4999 13.0709ZM7.57486 7.57492C7.66863 7.48118 7.79578 7.42853 7.92836 7.42853C8.06095 7.42853 8.1881 7.48118 8.28186 7.57492L8.63586 7.92892C8.68362 7.97504 8.72171 8.03022 8.74792 8.09122C8.77412 8.15222 8.78791 8.21783 8.78849 8.28422C8.78907 8.35061 8.77642 8.41645 8.75128 8.4779C8.72613 8.53934 8.68901 8.59517 8.64206 8.64212C8.59512 8.68906 8.53929 8.72619 8.47784 8.75133C8.41639 8.77647 8.35055 8.78912 8.28416 8.78854C8.21777 8.78797 8.15216 8.77417 8.09116 8.74797C8.03016 8.72177 7.97499 8.68367 7.92886 8.63592L7.57486 8.28192C7.48113 8.18816 7.42847 8.061 7.42847 7.92842C7.42847 7.79584 7.48113 7.66868 7.57486 7.57492ZM7.57486 21.7179L7.92886 21.3639C8.02317 21.2728 8.14947 21.2224 8.28057 21.2236C8.41166 21.2247 8.53707 21.2773 8.62977 21.37C8.72248 21.4627 8.77506 21.5881 8.7762 21.7192C8.77734 21.8503 8.72694 21.9766 8.63586 22.0709L8.28186 22.4249C8.23574 22.4727 8.18057 22.5108 8.11957 22.537C8.05857 22.5632 7.99295 22.577 7.92657 22.5775C7.86018 22.5781 7.79434 22.5655 7.73289 22.5403C7.67144 22.5152 7.61561 22.4781 7.56867 22.4311C7.52172 22.3842 7.48459 22.3283 7.45945 22.2669C7.43431 22.2054 7.42166 22.1396 7.42224 22.0732C7.42282 22.0068 7.43661 21.9412 7.46281 21.8802C7.48902 21.8192 7.52711 21.764 7.57486 21.7179Z" fill="white"/>
</svg>
