<svg width="39" height="36" viewBox="0 0 39 36" fill="none" xmlns="http://www.w3.org/2000/svg">
<g clip-path="url(#clip0_2_252)">
<g clip-path="url(#clip1_2_252)">
<path d="M32.6866 15.6296C33.5945 14.1468 34.0895 12.4438 34.0895 10.6609C34.0895 8.10954 33.096 5.71114 31.292 3.90748C29.4881 2.10321 27.0897 1.11035 24.5387 1.11035C21.9876 1.11035 19.5892 2.10321 17.7853 3.90748L10.5311 11.1616L10.5275 11.164L10.5251 11.1677L3.23884 18.4539C1.43487 20.2576 0.441406 22.6559 0.441406 25.2073C0.441406 27.7586 1.43487 30.157 3.23884 31.9607C5.0428 33.7649 7.4412 34.7584 9.99227 34.7584C12.5433 34.7584 14.9417 33.7649 16.7456 31.9607L18.7159 29.9904C20.5968 32.9697 23.8584 34.7906 27.418 34.7906C33.1032 34.7906 37.7283 30.1698 37.7283 24.4899C37.7283 20.8215 35.813 17.4868 32.6866 15.6296ZM18.664 4.78625C20.2838 3.16647 22.4112 2.35689 24.5387 2.35689C26.666 2.35689 28.7935 3.16647 30.4133 4.78625C33.6525 8.02579 33.6525 13.296 30.4133 16.5355L23.5779 23.3709L11.845 11.6052L18.664 4.78625ZM15.8669 31.0819C12.6273 34.3214 7.35715 34.3214 4.11761 31.0819C0.878365 27.8424 0.878365 22.5722 4.11761 19.3327L10.9663 12.484L22.6992 24.2496L18.4103 28.5384C18.409 28.5398 18.4076 28.5411 18.4063 28.5425L15.8669 31.0819ZM19.6213 29.0849L24.0012 24.7052C24.0066 24.7001 24.0138 24.6985 24.0192 24.6932C24.0246 24.6879 24.0262 24.6805 24.0312 24.675L31.292 17.4143C31.5345 17.1719 31.7595 16.9171 31.9722 16.6544C32.7018 17.0783 33.3572 17.5928 33.9284 18.1801L21.118 30.9905C20.5436 30.4324 20.0393 29.7941 19.6213 29.0849ZM27.418 33.5477C25.4533 33.5477 23.5936 32.9135 22.0701 31.796L34.7342 19.1317C35.8527 20.6555 36.4854 22.5171 36.4854 24.4899C36.4854 29.4846 32.4178 33.5477 27.418 33.5477Z" fill="#1D6CEF"/>
</g>
</g>
<defs>
<clipPath id="clip0_2_252">
<rect width="38.17" height="35" fill="white" transform="translate(0 0.450195)"/>
</clipPath>
<clipPath id="clip1_2_252">
<rect width="38.17" height="35" fill="white" transform="translate(0 0.450195)"/>
</clipPath>
</defs>
</svg>
