<svg width="35" height="36" viewBox="0 0 35 36" fill="none" xmlns="http://www.w3.org/2000/svg">
<g clip-path="url(#clip0_2_261)">
<path d="M30.5916 4.12955L27.2649 0.759634C27.0518 0.544672 26.7057 0.543071 26.4916 0.754559L24.7274 2.49603L24.3243 2.08784C24.1112 1.87288 23.7663 1.87074 23.551 2.0825L14.0602 11.4371L13.7457 11.1185C13.6436 11.0155 13.5048 10.9567 13.3596 10.9559C13.2084 10.973 13.0755 11.0117 12.9719 11.1137L11.4209 12.6454C11.2062 12.8577 11.2041 13.2038 11.4161 13.4187L17.7137 19.7975C17.8211 19.906 17.9621 19.9604 18.1031 19.9604C18.2419 19.9604 18.3808 19.9081 18.4871 19.8029L20.0385 18.2712C20.1421 18.1692 20.2003 18.0306 20.2014 17.8856C20.2024 17.7406 20.1459 17.6012 20.0439 17.4979L19.7304 17.1803L22.1982 14.7506C22.6274 15.1065 23.1586 15.3422 23.7402 15.4106C23.9884 16.1786 24.1214 16.9783 24.1214 17.7972C24.1214 22.0839 20.634 25.5713 16.3471 25.5713C14.8518 25.5713 13.4147 25.1467 12.1782 24.3589H14.0431C14.6183 24.3589 15.0867 23.8906 15.0867 23.3154V21.9712C15.0867 21.396 14.6183 20.9276 14.0431 20.9276H5.29258C4.71739 20.9276 4.24902 21.396 4.24902 21.9712V23.3154C4.24902 23.8906 4.71739 24.3589 5.29258 24.3589H7.41491C8.75576 26.181 10.6019 27.5267 12.6872 28.2575V30.5124H11.6933C9.55222 30.5124 7.81069 32.0574 7.81069 33.9565C7.81069 34.2588 8.05527 34.5034 8.35753 34.5034H24.0883C24.3905 34.5034 24.6352 34.2588 24.6352 33.9565C24.6352 32.0574 22.8936 30.5124 20.7526 30.5124H19.7581V28.3427C24.2071 26.8999 27.4353 22.7205 27.4353 17.7972C27.4353 16.4391 27.1832 15.1179 26.7052 13.8602C26.9275 13.4444 27.0545 12.9703 27.0545 12.4668C27.0545 11.7636 26.8073 11.1176 26.3967 10.6086L29.2206 7.82628C29.3236 7.72429 29.3824 7.58569 29.3835 7.44044C29.3845 7.29547 29.328 7.15582 29.2259 7.05243L28.8227 6.64404L30.5862 4.90287C30.8014 4.69085 30.8036 4.34451 30.5916 4.12955ZM18.1079 18.6402L12.5787 13.0393L13.3515 12.2761L13.6646 12.5932C13.6651 12.5936 13.6651 12.5943 13.6656 12.5947L18.5672 17.5593C18.5674 17.5596 18.5678 17.5596 18.5681 17.5599L18.8812 17.8771L18.1079 18.6402ZM22.2158 12.4668C22.2158 11.4344 23.0559 10.5946 24.0883 10.5946C25.1206 10.5946 25.9607 11.4344 25.9607 12.4668C25.9607 13.4991 25.1206 14.3392 24.0883 14.3392C23.0559 14.3392 22.2158 13.4991 22.2158 12.4668ZM5.34278 22.0214H13.9929V23.2652H10.5855C10.5848 23.2652 10.5841 23.2652 10.5834 23.2652H5.34278V22.0214ZM23.4651 33.4097H8.98081C9.27397 32.3763 10.379 31.6061 11.6933 31.6061H20.7526C22.0669 31.6061 23.1718 32.3763 23.4651 33.4097ZM18.6644 30.5124H13.7809V28.5809C14.6134 28.7795 15.4734 28.8851 16.3471 28.8851C17.1421 28.8851 17.9164 28.7972 18.6644 28.6374V30.5124ZM16.3471 27.7913C13.4442 27.7913 10.7015 26.524 8.81267 24.3589H10.3933C12.0285 25.8437 14.1304 26.665 16.3471 26.665C21.237 26.665 25.2151 22.6868 25.2151 17.7972C25.2151 16.9533 25.0934 16.126 24.8616 15.3271C25.238 15.2251 25.5843 15.0515 25.8858 14.8207C26.1853 15.7805 26.3415 16.7774 26.3415 17.7972C26.3415 23.3079 21.8581 27.7913 16.3471 27.7913ZM25.5611 9.89604C25.1266 9.64607 24.6245 9.50089 24.0883 9.50089C22.453 9.50089 21.1221 10.8315 21.1221 12.4668C21.1221 12.9892 21.259 13.4798 21.4972 13.9066L18.962 16.4021L14.8289 12.2156L23.9297 3.24515L24.3326 3.65324C24.3325 3.65311 24.3327 3.65337 24.3326 3.65324L27.6601 7.02362C27.66 7.02352 27.6602 7.02372 27.6601 7.02362L28.0627 7.43141L25.5611 9.89604ZM28.0544 5.86585L25.4958 3.27432L26.8708 1.9172L29.4289 4.50874L28.0544 5.86585Z" fill="#1D6CEF"/>
</g>
<defs>
<clipPath id="clip0_2_261">
<rect width="35" height="35" fill="white" transform="translate(0 0.0500488)"/>
</clipPath>
</defs>
</svg>
