<svg width="35" height="36" viewBox="0 0 35 36" fill="none" xmlns="http://www.w3.org/2000/svg">
<g clip-path="url(#clip0_2_266)">
<g clip-path="url(#clip1_2_266)">
<path d="M9.35933 34.5463C9.21583 34.5457 9.07835 34.4888 8.9765 34.3877L1.25844 26.7314C1.20718 26.6806 1.1665 26.6201 1.13874 26.5535C1.11097 26.4869 1.09668 26.4154 1.09668 26.3432C1.09668 26.271 1.11097 26.1995 1.13874 26.1329C1.1665 26.0662 1.20718 26.0058 1.25844 25.9549L4.01469 23.2205C4.11713 23.1188 4.25563 23.0618 4.39997 23.0618C4.54431 23.0618 4.6828 23.1188 4.78524 23.2205L12.5028 30.8768C12.554 30.9276 12.5947 30.9881 12.6225 31.0547C12.6502 31.1214 12.6645 31.1929 12.6645 31.2651C12.6645 31.3372 12.6502 31.4087 12.6225 31.4753C12.5947 31.542 12.554 31.6025 12.5028 31.6534L9.7465 34.3877C9.64353 34.4898 9.5043 34.5469 9.35933 34.5463ZM2.41782 26.3432L9.35933 33.2294L11.339 31.2651L4.39805 24.3788L2.41782 26.3432Z" fill="#1D6CEF"/>
<path d="M5.50063 25.2496C5.39248 25.2491 5.28688 25.2166 5.1972 25.1561C5.10753 25.0956 5.03779 25.01 4.99681 24.9099C4.95584 24.8098 4.94547 24.6998 4.96701 24.5938C4.98855 24.4878 5.04103 24.3906 5.11782 24.3144L8.14149 21.3148C8.80691 20.6524 9.59637 20.1276 10.4647 19.7706C11.3331 19.4135 12.2634 19.2312 13.2023 19.2339H23.693C24.2731 19.2339 24.8296 19.4644 25.2398 19.8746C25.65 20.2849 25.8805 20.8413 25.8805 21.4214C25.8805 22.0016 25.65 22.558 25.2398 22.9683C24.8296 23.3785 24.2731 23.6089 23.693 23.6089H15.4226C15.2776 23.6089 15.1385 23.5513 15.0359 23.4488C14.9333 23.3462 14.8757 23.2071 14.8757 23.0621C14.8757 22.917 14.9333 22.7779 15.0359 22.6754C15.1385 22.5728 15.2776 22.5152 15.4226 22.5152H23.693C23.983 22.5152 24.2612 22.3999 24.4664 22.1948C24.6715 21.9897 24.7867 21.7115 24.7867 21.4214C24.7867 21.1313 24.6715 20.8532 24.4664 20.6481C24.2612 20.443 23.983 20.3277 23.693 20.3277H13.2023C12.4059 20.3251 11.6168 20.4795 10.8802 20.7821C10.1436 21.0847 9.4738 21.5296 8.90932 22.0914L5.88563 25.091C5.78324 25.1925 5.64486 25.2496 5.50063 25.2496Z" fill="#1D6CEF"/>
<path d="M11.0119 30.7182C10.9037 30.7177 10.7981 30.6853 10.7084 30.6248C10.6187 30.5643 10.549 30.4786 10.5081 30.3785C10.4671 30.2784 10.4567 30.1685 10.4783 30.0625C10.4997 29.9564 10.5522 29.8593 10.629 29.7831L12.2833 28.1424C12.3852 28.0414 12.5227 27.9845 12.6662 27.9838H21.408C22.0597 27.9861 22.7054 27.8598 23.3083 27.6121C23.9111 27.3645 24.4591 27.0004 24.9211 26.5406L32.4029 19.119C32.5325 18.991 32.6353 18.8386 32.7055 18.6705C32.7757 18.5025 32.8119 18.3222 32.8119 18.1401C32.8119 17.958 32.7757 17.7777 32.7055 17.6096C32.6353 17.4416 32.5325 17.2892 32.4029 17.1612C32.1382 16.9002 31.7815 16.7538 31.4097 16.7538C31.038 16.7538 30.6812 16.9002 30.4166 17.1612L25.7305 21.8096C25.6798 21.8616 25.6193 21.903 25.5524 21.9313C25.4856 21.9596 25.4138 21.9744 25.3412 21.9747C25.2686 21.975 25.1967 21.9609 25.1296 21.9331C25.0625 21.9053 25.0017 21.8644 24.9505 21.8129C24.8994 21.7613 24.8591 21.7001 24.8319 21.6329C24.8047 21.5655 24.7912 21.4935 24.7921 21.4209C24.793 21.3483 24.8084 21.2766 24.8373 21.2101C24.8662 21.1435 24.9081 21.0833 24.9605 21.0331L29.6461 16.3846C30.1159 15.9209 30.7496 15.6609 31.4097 15.6609C32.07 15.6609 32.7035 15.9209 33.1734 16.3846C33.4055 16.6143 33.5897 16.8877 33.7155 17.189C33.8412 17.4903 33.906 17.8136 33.906 18.1401C33.906 18.4666 33.8412 18.7899 33.7155 19.0912C33.5897 19.3925 33.4055 19.6659 33.1734 19.8955L25.6911 27.3172C25.1279 27.8778 24.4598 28.3218 23.7248 28.6239C22.9898 28.926 22.2026 29.0801 21.408 29.0776H12.8909L11.3969 30.5596C11.2945 30.6612 11.1561 30.7182 11.0119 30.7182Z" fill="#1D6CEF"/>
<path d="M22.5479 14.713C21.8147 14.7316 21.091 14.5433 20.46 14.1693C18.9358 13.1533 17.6413 11.0232 18.4004 8.7465C19.2082 6.32387 20.6738 5.65887 22.3708 4.88942C22.7202 4.73083 23.0866 4.56458 23.4694 4.37317C24.7641 3.72073 25.9584 2.88589 27.0159 1.89419C27.0828 1.82727 27.1659 1.77884 27.257 1.75364C27.3482 1.72844 27.4444 1.72733 27.5362 1.75042C27.628 1.77351 27.7121 1.82001 27.7805 1.88537C27.849 1.95074 27.8992 2.03272 27.9264 2.12333C28.6088 4.91643 28.479 7.84637 27.5524 10.5682C26.7113 13.0915 25.2139 14.0742 24.1071 14.4542C23.6052 14.6261 23.0784 14.7134 22.5479 14.713ZM27.064 3.31497C26.1085 4.10818 25.0667 4.79134 23.9583 5.35153C23.5629 5.5495 23.1839 5.72177 22.8225 5.88528C21.1818 6.63067 20.0946 7.12286 19.4378 9.09272C18.7734 11.0866 20.2122 12.69 21.0664 13.2593C21.4785 13.4705 21.9298 13.5938 22.3919 13.6214C22.854 13.6492 23.3168 13.5806 23.7511 13.4201C25.0051 12.9898 25.9604 11.884 26.5144 10.222C27.2472 7.99673 27.4357 5.62814 27.064 3.31497Z" fill="#1D6CEF"/>
<path d="M18.1815 18.6871C18.1511 18.6873 18.1208 18.6847 18.0908 18.6794C18.0199 18.6677 17.9521 18.642 17.8912 18.604C17.8302 18.566 17.7773 18.5163 17.7356 18.4579C17.6939 18.3994 17.6641 18.3333 17.6478 18.2634C17.6317 18.1934 17.6294 18.1208 17.6413 18.05C18.4215 13.8132 20.732 10.011 24.1332 7.36681C24.2512 7.28397 24.3972 7.25111 24.5394 7.27538C24.6816 7.29967 24.8084 7.37911 24.8922 7.49644C24.9761 7.61376 25.0102 7.75943 24.9872 7.90181C24.9642 8.04419 24.8858 8.17166 24.7692 8.25657C24.7183 8.29647 19.7746 11.9059 18.7202 18.2305C18.6989 18.358 18.6331 18.4738 18.5345 18.5574C18.4358 18.641 18.3108 18.6869 18.1815 18.6871Z" fill="#1D6CEF"/>
<path d="M13.4289 13.3889C13.0043 13.3891 12.5826 13.3191 12.1809 13.1816C11.2939 12.8775 10.0957 12.0928 9.42627 10.0841C8.69827 7.94472 8.59656 5.6419 9.13318 3.44668C9.16027 3.35599 9.21046 3.27388 9.27878 3.2084C9.34717 3.14291 9.43131 3.09629 9.52308 3.07308C9.61485 3.04988 9.7111 3.05089 9.80231 3.07602C9.89359 3.10115 9.97675 3.14954 10.0437 3.21644C10.857 3.97892 11.775 4.62142 12.7699 5.12449C13.0658 5.27215 13.349 5.39793 13.6192 5.52316C14.9645 6.13348 16.1266 6.66011 16.7714 8.59439C17.0054 9.4003 16.971 10.2605 16.6735 11.0452C16.376 11.8299 15.8315 12.4966 15.122 12.9448C14.6105 13.249 14.0238 13.4029 13.4289 13.3889ZM10.0082 4.63613C9.76696 6.34913 9.92264 8.09466 10.4632 9.73791C10.8815 10.9924 11.598 11.8259 12.5353 12.1474C12.8554 12.2645 13.1961 12.3152 13.5364 12.2963C13.8767 12.2776 14.2097 12.1897 14.515 12.0381C15.1521 11.6137 16.2261 10.4194 15.7329 8.93893C15.2396 7.45855 14.4149 7.08449 13.1669 6.51848C12.8853 6.39051 12.5889 6.25598 12.2805 6.10176C11.474 5.69385 10.7124 5.20262 10.0082 4.63613Z" fill="#1D6CEF"/>
<path d="M18.5938 16.4996C18.4824 16.4996 18.3736 16.4657 18.282 16.4023C18.1905 16.3388 18.1205 16.249 18.0814 16.1446C16.5299 12.0058 11.8125 9.34752 11.7655 9.32127C11.7027 9.28634 11.6474 9.23944 11.6028 9.18316C11.5582 9.12688 11.5251 9.06241 11.5053 8.99332C11.4857 8.9243 11.4797 8.85199 11.488 8.78066C11.4962 8.70933 11.5184 8.64031 11.5533 8.57752C11.5882 8.51473 11.6351 8.4595 11.6914 8.41484C11.7477 8.37018 11.8122 8.33707 11.8812 8.3174C11.9503 8.29766 12.0226 8.29178 12.0939 8.29997C12.1652 8.30823 12.2343 8.33042 12.297 8.36535C12.5049 8.48071 17.4142 11.249 19.1062 15.7607C19.1314 15.828 19.1432 15.8996 19.1407 15.9714C19.1383 16.0433 19.1217 16.1139 19.0919 16.1793C19.0622 16.2448 19.0198 16.3036 18.9673 16.3527C18.9148 16.4017 18.853 16.4399 18.7857 16.4651C18.7242 16.4877 18.6593 16.4993 18.5938 16.4996Z" fill="#1D6CEF"/>
</g>
</g>
<defs>
<clipPath id="clip0_2_266">
<rect width="35" height="35" fill="white" transform="translate(0 0.640137)"/>
</clipPath>
<clipPath id="clip1_2_266">
<rect width="35" height="35" fill="white" transform="translate(0 0.640137)"/>
</clipPath>
</defs>
</svg>
