<svg width="35" height="36" viewBox="0 0 35 36" fill="none" xmlns="http://www.w3.org/2000/svg">
<g clip-path="url(#clip0_2_236)">
<g clip-path="url(#clip1_2_236)">
<path d="M1.41936 23.9151C1.32391 23.9151 1.23069 23.8863 1.15196 23.8324C1.07321 23.7784 1.01264 23.7019 0.978181 23.613C0.943727 23.5239 0.937007 23.4265 0.95891 23.3337C0.980806 23.2408 1.0303 23.1567 1.10088 23.0924C3.85765 20.5833 10.9931 15.0576 17.6863 17.9252C23.8754 20.5771 30.6416 15.3139 33.263 12.928C33.3087 12.8848 33.3625 12.851 33.4214 12.8288C33.4803 12.8066 33.543 12.7963 33.6059 12.7987C33.6687 12.801 33.7305 12.8159 33.7876 12.8423C33.8447 12.8689 33.8959 12.9065 33.9382 12.953C33.9806 12.9996 34.0132 13.0541 34.0342 13.1134C34.0552 13.1727 34.0642 13.2356 34.0606 13.2985C34.0569 13.3612 34.0408 13.4227 34.0132 13.4793C33.9855 13.5358 33.9469 13.5862 33.8995 13.6276C31.6869 15.6415 26.6525 19.5992 21.2904 19.5995C19.9239 19.6058 18.5706 19.3319 17.3141 18.7947C11.1252 16.1434 4.35903 21.4063 1.73736 23.792C1.65051 23.8714 1.53703 23.9154 1.41936 23.9151Z" fill="#1D6CEF"/>
<path d="M12.418 34.9141C12.3264 34.914 12.2368 34.8874 12.16 34.8373C12.0832 34.7873 12.0227 34.716 11.9857 34.6322C11.9486 34.5484 11.9367 34.4557 11.9514 34.3652C11.9661 34.2748 12.0067 34.1906 12.0683 34.1228C14.4542 31.5012 19.7172 24.7357 17.0655 18.5463C14.1979 11.8522 19.7237 4.71739 22.2326 1.96062C22.317 1.86782 22.4349 1.81235 22.5602 1.80644C22.6856 1.80051 22.8081 1.84463 22.9009 1.92906C22.9937 2.0135 23.0492 2.13133 23.0551 2.25666C23.061 2.38199 23.0169 2.50453 22.9325 2.59734C20.5465 5.21888 15.2836 11.9844 17.9352 18.1738C20.8029 24.8679 15.2771 32.0027 12.768 34.7595C12.7237 34.8083 12.6696 34.8472 12.6094 34.8738C12.5491 34.9005 12.4839 34.9142 12.418 34.9141Z" fill="#1D6CEF"/>
<path d="M12.4795 18.0252L13.1483 17.3564L18.4986 22.7067L17.8298 23.3755L12.4795 18.0252Z" fill="#1D6CEF"/>
<path d="M8.96729 18.8614L9.63613 18.1926L17.8287 26.3852L17.1599 27.054L8.96729 18.8614Z" fill="#1D6CEF"/>
<path d="M5.7915 20.0316L6.46028 19.3628L16.3249 29.2273L15.6561 29.8961L5.7915 20.0316Z" fill="#1D6CEF"/>
<path d="M3.11572 21.7037L3.78451 21.0349L14.8195 32.0699L14.1507 32.7386L3.11572 21.7037Z" fill="#1D6CEF"/>
<path d="M16.4937 14.013L17.1624 13.3442L22.5127 18.6945L21.8439 19.3633L16.4937 14.013Z" fill="#1D6CEF"/>
<path d="M17.1621 10.335L17.8309 9.66626L26.0235 17.8589L25.3547 18.5277L17.1621 10.335Z" fill="#1D6CEF"/>
<path d="M18.6675 7.49276L19.3363 6.82397L29.2008 16.6885L28.532 17.3573L18.6675 7.49276Z" fill="#1D6CEF"/>
<path d="M20.1729 4.65048L20.8416 3.98169L31.8766 15.0166L31.2077 15.6854L20.1729 4.65048Z" fill="#1D6CEF"/>
</g>
</g>
<defs>
<clipPath id="clip0_2_236">
<rect width="35" height="35" fill="white" transform="translate(0 0.860107)"/>
</clipPath>
<clipPath id="clip1_2_236">
<rect width="35" height="35" fill="white" transform="translate(0 0.860107)"/>
</clipPath>
</defs>
</svg>
